<svg width="696" height="475" viewBox="0 0 696 475" fill="none" xmlns="http://www.w3.org/2000/svg">
<path d="M37.5868 400.304H40.1788V383.618H46.3348V381.188H31.4308V383.618H37.5868V400.304ZM48.4737 400.304H50.9037V393.716C50.9037 390.746 52.4427 389.45 54.4677 389.45C56.0067 389.45 57.3837 390.341 57.3837 392.744V400.304H59.8137V392.069C59.8137 388.667 57.6537 387.182 55.1697 387.182C53.1987 387.182 51.5787 388.127 50.9577 389.477H50.9037V379.892H48.4737V400.304ZM75.5726 394.796V393.932C75.5726 390.638 73.8446 387.182 69.3356 387.182C65.5016 387.182 62.7206 390.071 62.7206 393.905C62.7206 397.712 65.2586 400.628 69.3086 400.628C71.7656 400.628 73.6286 399.764 74.9786 398.009L73.1426 396.605C72.1976 397.766 71.1176 398.522 69.6326 398.522C67.3916 398.522 65.3126 397.037 65.3126 394.796H75.5726ZM65.3126 392.852C65.3126 391.151 66.8786 389.126 69.2816 389.126C71.7386 389.126 72.9266 390.719 72.9806 392.852H65.3126ZM85.9942 407.918H88.4242V398.468H88.4782C89.3422 399.791 91.0972 400.628 92.9332 400.628C96.8752 400.628 99.4402 397.739 99.4402 393.905C99.4402 390.125 96.9022 387.182 92.9332 387.182C91.2052 387.182 89.4232 387.965 88.4782 389.342H88.4242V387.506H85.9942V407.918ZM92.6362 389.45C95.2282 389.45 96.8482 391.313 96.8482 393.905C96.8482 396.497 95.2282 398.36 92.6362 398.36C90.0442 398.36 88.4242 396.497 88.4242 393.905C88.4242 391.313 90.0442 389.45 92.6362 389.45ZM104.012 390.584C104.903 389.909 105.794 389.126 107.657 389.126C109.736 389.126 110.708 390.503 110.708 391.826V392.366H108.926C105.038 392.366 101.879 393.5 101.879 396.794C101.879 399.278 103.931 400.628 106.307 400.628C108.251 400.628 109.709 400.007 110.789 398.36H110.843C110.843 399.008 110.87 399.656 110.924 400.304H113.084C113.003 399.629 112.976 398.873 112.976 397.982V391.448C112.976 389.234 111.41 387.182 107.63 387.182C105.848 387.182 103.904 387.803 102.554 389.072L104.012 390.584ZM110.708 394.148V394.958C110.708 396.686 109.763 398.684 107.063 398.684C105.389 398.684 104.309 398.063 104.309 396.605C104.309 394.553 107.117 394.148 109.412 394.148H110.708ZM129.326 387.506H126.896V389.342H126.842C125.897 387.965 124.115 387.182 122.387 387.182C118.418 387.182 115.88 390.125 115.88 393.905C115.853 397.631 118.634 400.466 122.387 400.466C124.142 400.466 125.897 399.737 126.815 398.198H126.896V400.088C126.896 402.248 125.897 404.516 122.279 404.516C120.416 404.516 118.985 403.787 117.716 402.437L116.069 404.489C117.878 406.163 119.903 406.784 122.333 406.784C126.518 406.784 129.326 404.057 129.326 400.196V387.506ZM122.684 389.45C125.276 389.45 126.896 391.313 126.896 393.905C126.896 396.497 125.276 398.198 122.684 398.198C120.092 398.198 118.472 396.497 118.472 393.905C118.472 391.313 120.092 389.45 122.684 389.45ZM145.103 394.796V393.932C145.103 390.638 143.375 387.182 138.866 387.182C135.032 387.182 132.251 390.071 132.251 393.905C132.251 397.712 134.789 400.628 138.839 400.628C141.296 400.628 143.159 399.764 144.509 398.009L142.673 396.605C141.728 397.766 140.648 398.522 139.163 398.522C136.922 398.522 134.843 397.037 134.843 394.796H145.103ZM134.843 392.852C134.843 391.151 136.409 389.126 138.812 389.126C141.269 389.126 142.457 390.719 142.511 392.852H134.843ZM159.304 400.385L158.521 402.41C158.035 403.679 157.576 404.516 156.037 404.516C155.551 404.516 155.038 404.408 154.579 404.219L154.282 406.433C154.957 406.703 155.713 406.784 156.442 406.784C159.115 406.784 159.952 405.272 160.816 403.058L166.891 387.506H164.272L160.654 397.496H160.6L156.793 387.506H153.985L159.304 400.385ZM170.995 393.905C170.995 391.313 172.615 389.45 175.207 389.45C177.799 389.45 179.419 391.313 179.419 393.905C179.419 396.497 177.799 398.36 175.207 398.36C172.615 398.36 170.995 396.497 170.995 393.905ZM168.403 393.905C168.403 397.631 171.4 400.628 175.207 400.628C179.014 400.628 182.011 397.631 182.011 393.905C182.011 390.179 179.014 387.182 175.207 387.182C171.4 387.182 168.403 390.179 168.403 393.905ZM196.396 387.506H193.966V394.094C193.966 397.064 192.427 398.36 190.402 398.36C188.863 398.36 187.486 397.469 187.486 395.066V387.506H185.056V395.741C185.056 399.143 187.216 400.628 189.7 400.628C191.671 400.628 193.291 399.683 193.912 398.333H193.966V400.304H196.396V387.506ZM203.029 381.188H200.923V387.83H203.029V381.188ZM207.573 400.304H210.003V393.878C210.003 391.07 211.299 389.774 213.675 389.774C214.053 389.774 214.458 389.855 214.863 389.963L214.971 387.344C214.647 387.236 214.269 387.182 213.891 387.182C212.298 387.182 210.678 388.127 210.057 389.477H210.003V387.506H207.573V400.304ZM229.188 394.796V393.932C229.188 390.638 227.46 387.182 222.951 387.182C219.117 387.182 216.336 390.071 216.336 393.905C216.336 397.712 218.874 400.628 222.924 400.628C225.381 400.628 227.244 399.764 228.594 398.009L226.758 396.605C225.813 397.766 224.733 398.522 223.248 398.522C221.007 398.522 218.928 397.037 218.928 394.796H229.188ZM218.928 392.852C218.928 391.151 220.494 389.126 222.897 389.126C225.354 389.126 226.542 390.719 226.596 392.852H218.928ZM239.798 400.304H242.228V379.892H239.798V400.304ZM248.067 393.905C248.067 391.313 249.687 389.45 252.279 389.45C254.871 389.45 256.491 391.313 256.491 393.905C256.491 396.497 254.871 398.36 252.279 398.36C249.687 398.36 248.067 396.497 248.067 393.905ZM245.475 393.905C245.475 397.631 248.472 400.628 252.279 400.628C256.086 400.628 259.083 397.631 259.083 393.905C259.083 390.179 256.086 387.182 252.279 387.182C248.472 387.182 245.475 390.179 245.475 393.905ZM264.098 393.905C264.098 391.313 265.718 389.45 268.31 389.45C270.902 389.45 272.522 391.313 272.522 393.905C272.522 396.497 270.902 398.36 268.31 398.36C265.718 398.36 264.098 396.497 264.098 393.905ZM261.506 393.905C261.506 397.631 264.503 400.628 268.31 400.628C272.117 400.628 275.114 397.631 275.114 393.905C275.114 390.179 272.117 387.182 268.31 387.182C264.503 387.182 261.506 390.179 261.506 393.905ZM278.158 400.304H280.588V393.662L286.528 400.304H289.984L283.504 393.338L289.471 387.533H286.096L280.588 393.068V379.892H278.158V400.304ZM292.348 400.304H294.778V387.506H292.348V400.304ZM291.781 382.916C291.781 383.888 292.591 384.698 293.563 384.698C294.535 384.698 295.345 383.888 295.345 382.916C295.345 381.944 294.535 381.134 293.563 381.134C292.591 381.134 291.781 381.944 291.781 382.916ZM298.646 400.304H301.076V393.716C301.076 390.746 302.615 389.45 304.64 389.45C306.179 389.45 307.556 390.341 307.556 392.744V400.304H309.986V392.069C309.986 388.667 307.826 387.182 305.342 387.182C303.371 387.182 301.751 388.127 301.13 389.477H301.076V387.506H298.646V400.304ZM326.474 387.506H324.044V389.342H323.99C323.045 387.965 321.263 387.182 319.535 387.182C315.566 387.182 313.028 390.125 313.028 393.905C313.001 397.631 315.781 400.466 319.535 400.466C321.29 400.466 323.045 399.737 323.963 398.198H324.044V400.088C324.044 402.248 323.045 404.516 319.427 404.516C317.564 404.516 316.133 403.787 314.864 402.437L313.217 404.489C315.026 406.163 317.051 406.784 319.481 406.784C323.666 406.784 326.474 404.057 326.474 400.196V387.506ZM319.832 389.45C322.424 389.45 324.044 391.313 324.044 393.905C324.044 396.497 322.424 398.198 319.832 398.198C317.24 398.198 315.62 396.497 315.62 393.905C315.62 391.313 317.24 389.45 319.832 389.45ZM338.614 400.304H341.044V389.612H343.96V387.506H341.071V384.563C341.071 382.781 341.368 381.674 343.15 381.674C343.636 381.674 344.068 381.728 344.527 381.917L344.797 379.757C344.122 379.595 343.528 379.568 342.988 379.568C339.802 379.568 338.614 381.242 338.614 384.644V387.506H335.86V389.612H338.614V400.304ZM348.631 393.905C348.631 391.313 350.251 389.45 352.843 389.45C355.435 389.45 357.055 391.313 357.055 393.905C357.055 396.497 355.435 398.36 352.843 398.36C350.251 398.36 348.631 396.497 348.631 393.905ZM346.039 393.905C346.039 397.631 349.036 400.628 352.843 400.628C356.65 400.628 359.647 397.631 359.647 393.905C359.647 390.179 356.65 387.182 352.843 387.182C349.036 387.182 346.039 390.179 346.039 393.905ZM362.691 400.304H365.121V393.878C365.121 391.07 366.417 389.774 368.793 389.774C369.171 389.774 369.576 389.855 369.981 389.963L370.089 387.344C369.765 387.236 369.387 387.182 369.009 387.182C367.416 387.182 365.796 388.127 365.175 389.477H365.121V387.506H362.691V400.304ZM393.024 379.892H390.594V389.342H390.54C389.676 388.019 387.921 387.182 386.085 387.182C382.143 387.182 379.578 390.071 379.578 393.905C379.578 397.685 382.116 400.628 386.085 400.628C387.813 400.628 389.595 399.845 390.54 398.468H390.594V400.304H393.024V379.892ZM386.382 398.36C383.79 398.36 382.17 396.497 382.17 393.905C382.17 391.313 383.79 389.45 386.382 389.45C388.974 389.45 390.594 391.313 390.594 393.905C390.594 396.497 388.974 398.36 386.382 398.36ZM398.676 393.905C398.676 391.313 400.296 389.45 402.888 389.45C405.48 389.45 407.1 391.313 407.1 393.905C407.1 396.497 405.48 398.36 402.888 398.36C400.296 398.36 398.676 396.497 398.676 393.905ZM396.084 393.905C396.084 397.631 399.081 400.628 402.888 400.628C406.695 400.628 409.692 397.631 409.692 393.905C409.692 390.179 406.695 387.182 402.888 387.182C399.081 387.182 396.084 390.179 396.084 393.905ZM424.832 394.796V393.932C424.832 390.638 423.104 387.182 418.595 387.182C414.761 387.182 411.98 390.071 411.98 393.905C411.98 397.712 414.518 400.628 418.568 400.628C421.025 400.628 422.888 399.764 424.238 398.009L422.402 396.605C421.457 397.766 420.377 398.522 418.892 398.522C416.651 398.522 414.572 397.037 414.572 394.796H424.832ZM414.572 392.852C414.572 391.151 416.138 389.126 418.541 389.126C420.998 389.126 422.186 390.719 422.24 392.852H414.572ZM436.433 389.288C435.515 387.776 433.76 387.182 432.059 387.182C429.656 387.182 427.199 388.451 427.199 391.124C427.199 393.581 429.035 394.256 431.114 394.769C432.167 395.012 434.192 395.282 434.192 396.74C434.192 397.847 432.842 398.36 431.6 398.36C430.196 398.36 429.278 397.631 428.495 396.848L426.659 398.36C427.928 400.088 429.494 400.628 431.6 400.628C434.138 400.628 436.784 399.494 436.784 396.605C436.784 394.202 435.164 393.392 433.058 392.879C431.978 392.636 429.791 392.42 429.791 390.881C429.791 389.963 430.79 389.45 431.924 389.45C433.139 389.45 433.976 390.017 434.543 390.719L436.433 389.288ZM447.251 400.304H449.681V393.716C449.681 390.746 451.22 389.45 453.245 389.45C454.784 389.45 456.161 390.341 456.161 392.744V400.304H458.591V392.069C458.591 388.667 456.431 387.182 453.947 387.182C451.976 387.182 450.356 388.127 449.735 389.477H449.681V387.506H447.251V400.304ZM464.225 393.905C464.225 391.313 465.845 389.45 468.437 389.45C471.029 389.45 472.649 391.313 472.649 393.905C472.649 396.497 471.029 398.36 468.437 398.36C465.845 398.36 464.225 396.497 464.225 393.905ZM461.633 393.905C461.633 397.631 464.63 400.628 468.437 400.628C472.244 400.628 475.241 397.631 475.241 393.905C475.241 390.179 472.244 387.182 468.437 387.182C464.63 387.182 461.633 390.179 461.633 393.905ZM485.143 387.506H481.66V383.915H479.23V387.506H476.422V389.612H479.23V396.281C479.23 398.333 479.284 400.628 483.037 400.628C483.523 400.628 484.657 400.52 485.224 400.196V397.982C484.738 398.279 484.063 398.36 483.496 398.36C481.66 398.36 481.66 396.848 481.66 395.417V389.612H485.143V387.506ZM504.487 389.288C503.569 387.776 501.814 387.182 500.113 387.182C497.71 387.182 495.253 388.451 495.253 391.124C495.253 393.581 497.089 394.256 499.168 394.769C500.221 395.012 502.246 395.282 502.246 396.74C502.246 397.847 500.896 398.36 499.654 398.36C498.25 398.36 497.332 397.631 496.549 396.848L494.713 398.36C495.982 400.088 497.548 400.628 499.654 400.628C502.192 400.628 504.838 399.494 504.838 396.605C504.838 394.202 503.218 393.392 501.112 392.879C500.032 392.636 497.845 392.42 497.845 390.881C497.845 389.963 498.844 389.45 499.978 389.45C501.193 389.45 502.03 390.017 502.597 390.719L504.487 389.288ZM519.886 394.796V393.932C519.886 390.638 518.158 387.182 513.649 387.182C509.815 387.182 507.034 390.071 507.034 393.905C507.034 397.712 509.572 400.628 513.622 400.628C516.079 400.628 517.942 399.764 519.292 398.009L517.456 396.605C516.511 397.766 515.431 398.522 513.946 398.522C511.705 398.522 509.626 397.037 509.626 394.796H519.886ZM509.626 392.852C509.626 391.151 511.192 389.126 513.595 389.126C516.052 389.126 517.24 390.719 517.294 392.852H509.626ZM534.889 394.796V393.932C534.889 390.638 533.161 387.182 528.652 387.182C524.818 387.182 522.037 390.071 522.037 393.905C522.037 397.712 524.575 400.628 528.625 400.628C531.082 400.628 532.945 399.764 534.295 398.009L532.459 396.605C531.514 397.766 530.434 398.522 528.949 398.522C526.708 398.522 524.629 397.037 524.629 394.796H534.889ZM524.629 392.852C524.629 391.151 526.195 389.126 528.598 389.126C531.055 389.126 532.243 390.719 532.297 392.852H524.629ZM537.796 400.304H540.226V393.662C540.226 390.773 541.792 389.45 543.547 389.45C545.896 389.45 546.247 391.178 546.247 393.608V400.304H548.677V393.311C548.677 391.043 549.595 389.45 551.944 389.45C554.293 389.45 554.698 391.232 554.698 393.176V400.304H557.128V392.852C557.128 389.99 556.21 387.182 552.268 387.182C550.729 387.182 549.055 387.992 548.218 389.558C547.408 387.992 546.112 387.182 544.222 387.182C541.927 387.182 540.361 388.748 540.118 389.504H540.064V387.506H537.796V400.304ZM575.161 387.506H571.678V383.915H569.248V387.506H566.44V389.612H569.248V396.281C569.248 398.333 569.302 400.628 573.055 400.628C573.541 400.628 574.675 400.52 575.242 400.196V397.982C574.756 398.279 574.081 398.36 573.514 398.36C571.678 398.36 571.678 396.848 571.678 395.417V389.612H575.161V387.506ZM580.267 393.905C580.267 391.313 581.887 389.45 584.479 389.45C587.071 389.45 588.691 391.313 588.691 393.905C588.691 396.497 587.071 398.36 584.479 398.36C581.887 398.36 580.267 396.497 580.267 393.905ZM577.675 393.905C577.675 397.631 580.672 400.628 584.479 400.628C588.286 400.628 591.283 397.631 591.283 393.905C591.283 390.179 588.286 387.182 584.479 387.182C580.672 387.182 577.675 390.179 577.675 393.905ZM613.938 394.796V393.932C613.938 390.638 612.21 387.182 607.701 387.182C603.867 387.182 601.086 390.071 601.086 393.905C601.086 397.712 603.624 400.628 607.674 400.628C610.131 400.628 611.994 399.764 613.344 398.009L611.508 396.605C610.563 397.766 609.483 398.522 607.998 398.522C605.757 398.522 603.678 397.037 603.678 394.796H613.938ZM603.678 392.852C603.678 391.151 605.244 389.126 607.647 389.126C610.104 389.126 611.292 390.719 611.346 392.852H603.678ZM615.171 400.304H618.168L621.948 394.931L625.728 400.304H628.86L623.676 393.473L628.05 387.506H625.107L622.056 392.042L618.951 387.506H615.819L620.355 393.473L615.171 400.304ZM631.035 400.304H633.465V387.506H631.035V400.304ZM630.468 382.916C630.468 383.888 631.278 384.698 632.25 384.698C633.222 384.698 634.032 383.888 634.032 382.916C634.032 381.944 633.222 381.134 632.25 381.134C631.278 381.134 630.468 381.944 630.468 382.916ZM646.026 389.288C645.108 387.776 643.353 387.182 641.652 387.182C639.249 387.182 636.792 388.451 636.792 391.124C636.792 393.581 638.628 394.256 640.707 394.769C641.76 395.012 643.785 395.282 643.785 396.74C643.785 397.847 642.435 398.36 641.193 398.36C639.789 398.36 638.871 397.631 638.088 396.848L636.252 398.36C637.521 400.088 639.087 400.628 641.193 400.628C643.731 400.628 646.377 399.494 646.377 396.605C646.377 394.202 644.757 393.392 642.651 392.879C641.571 392.636 639.384 392.42 639.384 390.881C639.384 389.963 640.383 389.45 641.517 389.45C642.732 389.45 643.569 390.017 644.136 390.719L646.026 389.288ZM656.187 387.506H652.704V383.915H650.274V387.506H647.466V389.612H650.274V396.281C650.274 398.333 650.328 400.628 654.081 400.628C654.567 400.628 655.701 400.52 656.268 400.196V397.982C655.782 398.279 655.107 398.36 654.54 398.36C652.704 398.36 652.704 396.848 652.704 395.417V389.612H656.187V387.506ZM662.481 381.188H659.889V394.796H662.481V381.188ZM659.457 398.684C659.457 399.656 660.267 400.466 661.239 400.466C662.211 400.466 663.021 399.656 663.021 398.684C663.021 397.712 662.211 396.902 661.239 396.902C660.267 396.902 659.457 397.712 659.457 398.684Z" fill="white"/>
<g filter="url(#filter0_d_1510_699)">
<path d="M133.174 338.519H180.574V281.639H221.259V238.979H180.574V58.8586H126.854L14.2786 234.634V281.639H133.174V338.519ZM133.174 238.979H62.4686L132.384 126.009H133.174V238.979Z" fill="url(#paint0_linear_1510_699)"/>
</g>
<g filter="url(#filter1_d_1510_699)">
<path d="M593.984 338.519H641.384V281.639H682.069V238.979H641.384V58.8586H587.664L475.089 234.634V281.639H593.984V338.519ZM593.984 238.979H523.279L593.194 126.009H593.984V238.979Z" fill="url(#paint1_linear_1510_699)"/>
</g>
<path d="M465.589 313.158C465.589 322.899 415.342 330.795 353.359 330.795C291.377 330.795 241.13 322.899 241.13 313.158C241.13 303.417 291.377 295.521 353.359 295.521C415.342 295.521 465.589 303.417 465.589 313.158ZM247.857 313.158C247.857 321.065 303.042 327.476 353.359 327.476C403.677 327.476 459.702 321.065 459.702 313.158C459.702 305.25 403.677 298.84 353.359 298.84C303.042 298.84 247.857 305.25 247.857 313.158Z" fill="url(#paint2_linear_1510_699)"/>
<g filter="url(#filter2_di_1510_699)">
<ellipse cx="353.359" cy="304.445" rx="112.23" ry="19.5912" fill="url(#paint3_linear_1510_699)"/>
</g>
<g clip-path="url(#clip0_1510_699)">
<path d="M371.288 266.029C371.104 274.521 370.256 283.014 368.75 291.505C368.176 294.745 365.647 297.273 362.408 297.848C352.641 299.581 342.877 300.442 333.11 300.427C325.241 300.419 317.37 299.84 309.499 298.691C307.758 298.44 306.019 298.157 304.278 297.848C301.039 297.273 298.51 294.745 297.936 291.505C294.496 272.129 294.496 252.752 297.936 233.378C298.51 230.139 301.038 227.611 304.278 227.036C306.019 226.727 307.763 226.444 309.504 226.191C327.14 223.622 344.772 223.903 362.408 227.036C365.647 227.61 368.176 230.139 368.75 233.378C370.681 244.261 371.529 255.144 371.288 266.029Z" fill="#C1C0BF"/>
<path d="M371.289 266.029C371.104 274.521 370.256 283.014 368.75 291.505C368.176 294.745 365.648 297.273 362.408 297.848C352.641 299.581 342.877 300.442 333.11 300.427C325.242 300.419 317.371 299.84 309.5 298.691C308.09 297.453 307.103 295.752 306.759 293.816C303.046 272.898 303.046 251.983 306.759 231.068C307.103 229.131 308.092 227.428 309.505 226.191C327.14 223.622 344.773 223.903 362.408 227.036C365.648 227.61 368.176 230.139 368.75 233.378C370.681 244.261 371.529 255.144 371.289 266.029Z" fill="#E8E8E8"/>
<path d="M383.405 242.747C383.043 251.232 382.019 259.707 380.338 268.165C379.696 271.391 377.116 273.867 373.865 274.374C364.064 275.904 354.284 276.562 344.52 276.344C344.881 267.858 345.903 259.384 347.587 250.923C348.231 247.697 350.809 245.221 354.06 244.714C363.86 243.184 373.64 242.526 383.405 242.747Z" fill="#C1C0BF"/>
<path d="M411.102 245.326C391.726 241.886 372.349 242.886 352.973 246.326C349.734 246.901 347.205 249.43 346.63 252.669C343.19 272.045 343.19 291.421 346.63 310.798C347.205 314.037 349.734 316.565 352.973 317.14C372.349 320.581 391.726 319.581 411.102 316.14C414.341 315.565 416.869 313.037 417.444 309.798C420.885 290.422 420.885 271.045 417.444 251.669C416.869 248.43 414.341 245.901 411.102 245.326Z" fill="#C1C0BF"/>
<path d="M419.983 284.322C419.798 292.813 418.95 301.307 417.445 309.798C416.87 313.037 414.342 315.566 411.102 316.14C401.335 317.874 391.571 318.734 381.804 318.719C373.936 318.712 366.065 318.132 358.194 316.983C356.784 315.746 355.797 314.045 355.453 312.109C351.74 291.191 351.74 270.275 355.453 249.36C355.797 247.424 356.786 245.721 358.198 244.483C375.834 241.914 393.467 242.195 411.102 245.328C414.341 245.903 416.87 248.431 417.444 251.671C419.376 262.554 420.223 273.437 419.983 284.322Z" fill="#E8E8E8"/>
<path d="M342.327 262.441C342.327 267.404 338.306 271.428 333.343 271.428C332.204 271.428 331.115 271.218 330.116 270.831C326.747 269.535 324.358 266.267 324.358 262.441C324.358 258.617 326.747 255.349 330.116 254.053C331.115 253.669 332.204 253.456 333.343 253.456C338.306 253.456 342.327 257.48 342.327 262.441Z" fill="#423D3D"/>
<path d="M335.874 262.441C335.874 266.268 333.485 269.535 330.116 270.831C326.748 269.535 324.358 266.268 324.358 262.441C324.358 258.617 326.748 255.35 330.116 254.054C333.485 255.349 335.874 258.617 335.874 262.441Z" fill="#666666"/>
<path d="M395.33 280.732C395.33 285.695 391.309 289.719 386.346 289.719C385.207 289.719 384.118 289.509 383.119 289.122C379.75 287.826 377.361 284.558 377.361 280.732C377.361 276.908 379.75 273.64 383.119 272.344C384.118 271.96 385.207 271.747 386.346 271.747C391.308 271.747 395.33 275.771 395.33 280.732Z" fill="#423D3D"/>
<path d="M388.876 280.732C388.876 284.558 386.487 287.826 383.119 289.122C379.75 287.826 377.361 284.558 377.361 280.732C377.361 276.908 379.75 273.64 383.119 272.344C386.487 273.64 388.876 276.908 388.876 280.732Z" fill="#666666"/>
<path d="M415.024 261.038C415.024 266.002 411.002 270.025 406.039 270.025C404.9 270.025 403.812 269.816 402.812 269.428C399.443 268.133 397.054 264.865 397.054 261.038C397.054 257.214 399.443 253.947 402.812 252.651C403.812 252.266 404.9 252.054 406.039 252.054C411.002 252.054 415.024 256.078 415.024 261.038Z" fill="#423D3D"/>
<path d="M408.57 261.038C408.57 264.865 406.181 268.132 402.812 269.428C399.443 268.132 397.054 264.865 397.054 261.038C397.054 257.214 399.443 253.947 402.812 252.651C406.181 253.947 408.57 257.214 408.57 261.038Z" fill="#666666"/>
<path d="M375.637 300.425C375.637 305.388 371.615 309.413 366.652 309.413C365.513 309.413 364.425 309.203 363.425 308.815C360.057 307.52 357.667 304.252 357.667 300.426C357.667 296.601 360.057 293.334 363.425 292.038C364.425 291.654 365.513 291.441 366.652 291.441C371.615 291.441 375.637 295.465 375.637 300.425Z" fill="#423D3D"/>
<path d="M369.183 300.426C369.183 304.252 366.794 307.52 363.425 308.815C360.057 307.52 357.667 304.252 357.667 300.426C357.667 296.601 360.057 293.334 363.425 292.038C366.794 293.334 369.183 296.601 369.183 300.426Z" fill="#666666"/>
</g>
<defs>
<filter id="filter0_d_1510_699" x="14.2788" y="58.8584" width="209.98" height="282.66" filterUnits="userSpaceOnUse" color-interpolation-filters="sRGB">
<feFlood flood-opacity="0" result="BackgroundImageFix"/>
<feColorMatrix in="SourceAlpha" type="matrix" values="0 0 0 0 0 0 0 0 0 0 0 0 0 0 0 0 0 0 127 0" result="hardAlpha"/>
<feOffset dx="3" dy="3"/>
<feComposite in2="hardAlpha" operator="out"/>
<feColorMatrix type="matrix" values="0 0 0 0 1 0 0 0 0 1 0 0 0 0 1 0 0 0 0.94 0"/>
<feBlend mode="normal" in2="BackgroundImageFix" result="effect1_dropShadow_1510_699"/>
<feBlend mode="normal" in="SourceGraphic" in2="effect1_dropShadow_1510_699" result="shape"/>
</filter>
<filter id="filter1_d_1510_699" x="475.089" y="58.8584" width="209.98" height="282.66" filterUnits="userSpaceOnUse" color-interpolation-filters="sRGB">
<feFlood flood-opacity="0" result="BackgroundImageFix"/>
<feColorMatrix in="SourceAlpha" type="matrix" values="0 0 0 0 0 0 0 0 0 0 0 0 0 0 0 0 0 0 127 0" result="hardAlpha"/>
<feOffset dx="3" dy="3"/>
<feComposite in2="hardAlpha" operator="out"/>
<feColorMatrix type="matrix" values="0 0 0 0 1 0 0 0 0 1 0 0 0 0 1 0 0 0 1 0"/>
<feBlend mode="normal" in2="BackgroundImageFix" result="effect1_dropShadow_1510_699"/>
<feBlend mode="normal" in="SourceGraphic" in2="effect1_dropShadow_1510_699" result="shape"/>
</filter>
<filter id="filter2_di_1510_699" x="241.13" y="284.854" width="224.459" height="45.1821" filterUnits="userSpaceOnUse" color-interpolation-filters="sRGB">
<feFlood flood-opacity="0" result="BackgroundImageFix"/>
<feColorMatrix in="SourceAlpha" type="matrix" values="0 0 0 0 0 0 0 0 0 0 0 0 0 0 0 0 0 0 127 0" result="hardAlpha"/>
<feOffset dy="6"/>
<feComposite in2="hardAlpha" operator="out"/>
<feColorMatrix type="matrix" values="0 0 0 0 0 0 0 0 0 0 0 0 0 0 0 0 0 0 0.35 0"/>
<feBlend mode="normal" in2="BackgroundImageFix" result="effect1_dropShadow_1510_699"/>
<feBlend mode="normal" in="SourceGraphic" in2="effect1_dropShadow_1510_699" result="shape"/>
<feColorMatrix in="SourceAlpha" type="matrix" values="0 0 0 0 0 0 0 0 0 0 0 0 0 0 0 0 0 0 127 0" result="hardAlpha"/>
<feOffset dy="5"/>
<feComposite in2="hardAlpha" operator="arithmetic" k2="-1" k3="1"/>
<feColorMatrix type="matrix" values="0 0 0 0 0 0 0 0 0 0 0 0 0 0 0 0 0 0 0.34 0"/>
<feBlend mode="normal" in2="shape" result="effect2_innerShadow_1510_699"/>
</filter>
<linearGradient id="paint0_linear_1510_699" x1="-15.4094" y1="341.466" x2="251.763" y2="341.466" gradientUnits="userSpaceOnUse">
<stop stop-color="#EF0896"/>
<stop offset="0.544792" stop-color="#7007FF"/>
<stop offset="1" stop-color="#00C8FF"/>
</linearGradient>
<linearGradient id="paint1_linear_1510_699" x1="445.401" y1="341.466" x2="712.574" y2="341.466" gradientUnits="userSpaceOnUse">
<stop stop-color="#EF0896"/>
<stop offset="0.544792" stop-color="#7007FF"/>
<stop offset="1" stop-color="#00C8FF"/>
</linearGradient>
<linearGradient id="paint2_linear_1510_699" x1="225.65" y1="320.893" x2="481.929" y2="320.893" gradientUnits="userSpaceOnUse">
<stop stop-color="#EF0896"/>
<stop offset="0.544792" stop-color="#7007FF"/>
<stop offset="1" stop-color="#00C8FF"/>
</linearGradient>
<linearGradient id="paint3_linear_1510_699" x1="225.65" y1="313.038" x2="481.929" y2="313.038" gradientUnits="userSpaceOnUse">
<stop stop-color="#EF0896"/>
<stop offset="0.544792" stop-color="#7007FF"/>
<stop offset="1" stop-color="#00C8FF"/>
</linearGradient>
<clipPath id="clip0_1510_699">
<rect width="124" height="124" fill="white" transform="translate(296.056 194.721)"/>
</clipPath>
</defs>
</svg>
