<svg width="24" height="24" viewBox="0 0 24 24" fill="none" xmlns="http://www.w3.org/2000/svg">
<path d="M12 0C18.6274 0 24 5.37258 24 12C24 18.6274 18.6274 24 12 24C5.37258 24 0 18.6274 0 12C0 5.37258 5.37258 0 12 0ZM12 22.5C17.799 22.5 22.5 17.799 22.5 12C22.5 6.201 17.799 1.5 12 1.5C6.201 1.5 1.5 6.201 1.5 12C1.5 17.799 6.201 22.5 12 22.5Z" fill="#C8B5CC"/>
<path d="M15.75 9.75C14.9216 9.75 14.25 9.07843 14.25 8.25C14.25 7.42157 14.9216 6.75 15.75 6.75C16.5784 6.75 17.25 7.42157 17.25 8.25C17.25 9.07843 16.5784 9.75 15.75 9.75Z" fill="#C8B4CC"/>
<path d="M8.25 9.75C7.42157 9.75 6.75 9.07843 6.75 8.25C6.75 7.42157 7.42157 6.75 8.25 6.75C9.07843 6.75 9.75 7.42157 9.75 8.25C9.75 9.07843 9.07843 9.75 8.25 9.75Z" fill="#C8B4CC"/>
<path d="M6.75 12C6.75 14.8995 9.1005 17.25 12 17.25C14.8995 17.25 17.25 14.8995 17.25 12H18.75C18.75 15.7279 15.7279 18.75 12 18.75C8.27208 18.75 5.25 15.7279 5.25 12H6.75Z" fill="#C8B4CC"/>
</svg>
