<svg width="36" height="36" viewBox="0 0 36 36" fill="none" xmlns="http://www.w3.org/2000/svg">
<path fill-rule="evenodd" clip-rule="evenodd" d="M31.3818 1H10.3818C8.72498 1 7.38184 2.34315 7.38184 4V5.93552C7.03523 6.10777 6.70131 6.3017 6.38184 6.51555V4C6.38184 1.79086 8.1727 0 10.3818 0H31.3818C33.591 0 35.3818 1.79086 35.3818 4V12C35.3818 14.2091 33.591 16 31.3818 16H29.9533L22.4092 21.2808C22.039 21.54 21.5422 21.214 21.6326 20.7712L22.6063 16H20.1588C20.233 15.6731 20.2894 15.3394 20.3269 15H23.2187H23.5604L22.6582 19.2103C22.5618 19.6603 23.0732 19.9906 23.4437 19.7176L29.8461 15H31.3818C33.0387 15 34.3818 13.6569 34.3818 12V4C34.3818 2.34315 33.0387 1 31.3818 1ZM20.2866 8.66004C21.0212 8.66004 21.6167 8.06457 21.6167 7.33002C21.6167 6.59547 21.0212 6 20.2866 6C19.5521 6 18.9566 6.59547 18.9566 7.33002C18.9566 8.06457 19.5521 8.66004 20.2866 8.66004ZM16.7119 8.66065C17.4464 8.66065 18.0419 8.06518 18.0419 7.33063C18.0419 6.59608 17.4464 6.00061 16.7119 6.00061C15.9773 6.00061 15.3818 6.59608 15.3818 7.33063C15.3818 8.06518 15.9773 8.66065 16.7119 8.66065ZM25.6064 7.33002C25.6064 8.06457 25.0109 8.66004 24.2764 8.66004C23.5418 8.66004 22.9464 8.06457 22.9464 7.33002C22.9464 6.59547 23.5418 6 24.2764 6C25.0109 6 25.6064 6.59547 25.6064 7.33002ZM28.2666 8.66004C29.0012 8.66004 29.5966 8.06457 29.5966 7.33002C29.5966 6.59547 29.0012 6 28.2666 6C27.5321 6 26.9366 6.59547 26.9366 7.33002C26.9366 8.06457 27.5321 8.66004 28.2666 8.66004ZM16.3821 16.5C16.3821 20.1559 13.632 23 10.3821 23C7.13226 23 4.38211 20.1559 4.38211 16.5C4.38211 12.844 7.13226 9.99997 10.3821 9.99997C13.632 9.99997 16.3821 12.844 16.3821 16.5ZM17.3821 16.5C17.3821 20.6421 14.2481 24 10.3821 24C6.51611 24 3.38211 20.6421 3.38211 16.5C3.38211 12.3578 6.51611 8.99997 10.3821 8.99997C14.2481 8.99997 17.3821 12.3578 17.3821 16.5ZM10.3821 24C11.8266 24 13.257 24.2974 14.5916 24.8753C15.9262 25.4533 17.1388 26.3004 18.1603 27.3682C19.1817 28.4361 19.992 29.7039 20.5448 31.0991C21.4615 33.4129 19.3645 35.5 16.8757 35.5H10.3821H3.88853C1.3997 35.5 -0.697319 33.4129 0.219432 31.0991C0.772234 29.7039 1.58249 28.4361 2.60393 27.3682C3.62538 26.3004 4.83801 25.4533 6.17259 24.8753C7.50717 24.2974 8.93757 24 10.3821 24ZM17.4376 28.0595C18.3685 29.0326 19.1091 30.1903 19.6151 31.4674C19.9191 32.2348 19.7386 32.9418 19.2399 33.5029C18.7198 34.0881 17.8513 34.5 16.8757 34.5H10.3821H3.88853C2.91296 34.5 2.04445 34.0881 1.52435 33.5029C1.02563 32.9418 0.84509 32.2348 1.14912 31.4674C1.65515 30.1903 2.39575 29.0326 3.32657 28.0595C4.25731 27.0864 5.35984 26.317 6.56997 25.793C7.77999 25.269 9.07522 25 10.3821 25C11.689 25 12.9842 25.269 14.1942 25.793C15.4044 26.317 16.5069 27.0864 17.4376 28.0595Z" fill="#00EAFF"/>
</svg>
