<svg width="52" height="42" viewBox="0 0 52 42" fill="none" xmlns="http://www.w3.org/2000/svg">
<path d="M42.2773 23.4837L42.2695 27.9062C42.2695 25.9468 40.9838 23.9795 38.3969 22.4925C37.119 21.7489 35.6318 21.1991 34.0518 20.8273C29.3118 19.7196 23.6733 20.2695 19.8471 22.4925C17.3222 23.964 16.0519 25.8927 16.0442 27.829L16.0597 23.4065C16.0675 21.4778 17.3299 19.5494 19.8626 18.0779C23.6887 15.8549 29.3273 15.2971 34.0673 16.4048C35.6474 16.7766 37.1267 17.334 38.4124 18.07C40.9916 19.5649 42.285 21.5243 42.2773 23.4837Z" fill="#F2BC36"/>
<path d="M42.2781 23.4831L42.2656 27.9026C42.2601 29.8358 40.9919 31.766 38.4585 33.2382L38.471 28.8187C41.0045 27.3464 42.2726 25.4162 42.2781 23.4831Z" fill="#F9C73A"/>
<path d="M16.0471 27.8275L16.0597 23.408C16.0541 25.3655 17.343 27.326 19.9235 28.8159C25.0565 31.7794 33.3765 31.7795 38.4712 28.8188L38.4587 33.2383C33.3639 36.199 25.044 36.199 19.911 33.2354C17.3304 31.7456 16.0416 29.785 16.0471 27.8275Z" fill="#F9C73A"/>
<path d="M38.4106 19.2481C43.5436 22.2116 43.5709 27.0309 38.4711 29.9945C33.3764 32.9552 25.0564 32.9552 19.9234 29.9916C14.7955 27.031 14.7682 22.2118 19.8629 19.251C24.9626 16.2874 33.2826 16.2874 38.4106 19.2481Z" fill="#F9C73A"/>
<path d="M46.1574 23.4939L46.1449 27.9134C46.1378 30.4168 44.4933 32.9165 41.208 34.8256C34.5954 38.6685 23.8355 38.6656 17.1794 34.8228C13.83 32.889 12.1571 30.3508 12.1643 27.8164L12.1769 23.3969C12.1697 25.9312 13.8425 28.4694 17.1919 30.4032C23.848 34.2461 34.6079 34.249 41.2206 30.4061C44.5058 28.4969 46.1503 25.9973 46.1574 23.4939Z" fill="#F2BC36"/>
<path d="M41.1419 16.4848C47.7979 20.3276 47.8329 26.5631 41.22 30.4061C34.6074 34.249 23.8474 34.2461 17.1914 30.4033C10.5354 26.5604 10.5002 20.3307 17.1129 16.4879C23.7258 12.6449 34.4858 12.6419 41.1419 16.4848ZM19.9229 28.8159C25.0559 31.7794 33.3759 31.7795 38.4706 28.8187C43.5703 25.8551 43.543 21.0359 38.4101 18.0723C33.2821 15.1117 24.9621 15.1116 19.8623 18.0753C14.7676 21.036 14.7949 25.8552 19.9229 28.8159Z" fill="#FED44C"/>
<path d="M35.5607 20.3973L35.5581 21.3083L34.842 21.7244L34.8446 20.8135L35.5607 20.3973Z" fill="#F2BC36"/>
<path d="M29.4705 22.5413L29.473 21.6304C29.4736 21.4185 29.6291 21.2243 29.9357 21.0461C30.251 20.8629 30.6346 20.7805 31.0826 20.797C31.5343 20.8114 31.9901 20.9309 32.4502 21.1553L32.4476 22.0663C31.9875 21.8418 31.5317 21.7224 31.08 21.7079C30.632 21.6914 30.2484 21.7738 29.9331 21.9571C29.6265 22.1352 29.4711 22.3294 29.4705 22.5413Z" fill="#F2BC36"/>
<path d="M33.3139 21.7032L33.3113 22.6141L30.6743 24.1466L30.6769 23.2356L33.3139 21.7032Z" fill="#F2BC36"/>
<path d="M34.5211 23.3406L34.5185 24.2515C34.3372 23.6378 33.9323 23.092 33.311 22.6141L33.3136 21.7032C33.9349 22.1811 34.3398 22.7269 34.5211 23.3406Z" fill="#F2BC36"/>
<path d="M36.7318 23.1223L36.7292 24.0332L34.5188 24.2515L34.5214 23.3406L36.7318 23.1223Z" fill="#F2BC36"/>
<path d="M26.9409 22.4016L26.9435 21.4907C26.9434 21.5407 26.9474 21.591 26.9555 21.6415C27.0367 22.1646 27.4848 22.8093 28.2961 23.5694L28.2935 24.4803C27.4822 23.7203 27.0341 23.0756 26.9529 22.5524C26.9448 22.5019 26.9408 22.4516 26.9409 22.4016Z" fill="#F2BC36"/>
<path d="M29.5832 25.2471L29.5806 26.158C29.5807 26.1474 29.5803 26.1367 29.5796 26.1259C29.5642 25.8952 29.3561 25.5656 28.959 25.1434L28.9616 24.2325C29.3587 24.6547 29.5668 24.9842 29.5822 25.215C29.5829 25.2257 29.5833 25.2364 29.5832 25.2471Z" fill="#F2BC36"/>
<path d="M28.9615 24.2325L28.9589 25.1435L26.4319 26.612L26.4345 25.7011L28.9615 24.2325Z" fill="#F2BC36"/>
<path d="M24.0397 26.0429L24.0372 26.9539C22.8769 26.1321 22.2314 25.1682 22.0935 24.0581L22.0961 23.1472C22.234 24.2572 22.8795 25.2211 24.0397 26.0429Z" fill="#F2BC36"/>
<path d="M23.9216 27.1613L23.9191 28.0722L23.0129 27.5491L23.0155 26.6381L23.9216 27.1613Z" fill="#F2BC36"/>
<path d="M24.9316 26.5744L24.929 27.4853L23.9189 28.0723L23.9215 27.1614L24.9316 26.5744Z" fill="#F2BC36"/>
<path d="M32.0895 25.3843L32.0869 26.2953C32.0855 26.7833 31.7117 27.2426 30.9681 27.6748C30.1458 28.1526 29.1868 28.371 28.0916 28.3339C26.9925 28.2948 25.9384 28.0105 24.9292 27.4853L24.9318 26.5744C25.941 27.0996 26.9951 27.3838 28.0941 27.4229C29.1894 27.46 30.1484 27.2416 30.9706 26.7638C31.7143 26.3317 32.0881 25.8723 32.0895 25.3843Z" fill="#F2BC36"/>
<path d="M32.0785 25.2355C32.1598 25.7792 31.7894 26.2879 30.9706 26.7637C30.1484 27.2416 29.1894 27.46 28.0941 27.4228C26.9951 27.3837 25.941 27.0995 24.9318 26.5743L23.9217 27.1613L23.0156 26.6381L24.0399 26.0429C22.8796 25.2211 22.2341 24.2572 22.0962 23.1471L24.3499 23.0317C24.4579 23.8864 24.8636 24.5929 25.5708 25.1532L28.2963 23.5693C27.4849 22.8092 27.0369 22.1645 26.9557 21.6414C26.8709 21.1162 27.2343 20.6199 28.046 20.1482C28.8541 19.6785 29.7988 19.456 30.8834 19.487C31.9716 19.5158 32.9936 19.7815 33.953 20.282L34.6548 19.8741L35.5609 20.3973L34.8449 20.8134C35.805 21.454 36.4351 22.2243 36.7318 23.1223L34.5214 23.3406C34.34 22.7268 33.9352 22.181 33.3139 21.7031L30.6769 23.2356L30.7197 23.2603C31.5454 24.0327 32.0044 24.6917 32.0785 25.2355ZM27.9017 26.0923C28.3818 26.1192 28.7831 26.0388 29.1127 25.8473C29.4388 25.6577 29.5977 25.4456 29.5821 25.215C29.5667 24.9842 29.3586 24.6547 28.9615 24.2325L26.4345 25.701C26.9337 25.9358 27.4215 26.0655 27.9017 26.0923ZM30.0225 22.5662L32.4503 21.1553C31.9902 20.9309 31.5344 20.8114 31.0827 20.797C30.6347 20.7805 30.2511 20.8629 29.9357 21.0461C29.6238 21.2273 29.4683 21.4252 29.4732 21.6414C29.4815 21.8556 29.661 22.1646 30.0225 22.5662Z" fill="#FED44C"/>
<path d="M43.7904 17.3101L43.7827 21.7326C43.7827 19.7732 42.497 17.8059 39.9101 16.3189C38.6321 15.5754 37.145 15.0255 35.565 14.6537C30.8249 13.546 25.1864 14.0959 21.3603 16.3189C18.8353 17.7904 17.5651 19.7191 17.5574 21.6554L17.5729 17.2329C17.5806 15.3042 18.8431 13.3758 21.3758 11.9043C25.2019 9.68135 30.8404 9.12352 35.5805 10.2312C37.1605 10.603 38.6399 11.1604 39.9256 11.8964C42.5047 13.3913 43.7982 15.3507 43.7904 17.3101Z" fill="#F2BC36"/>
<path d="M43.7913 17.3096L43.7787 21.7291C43.7733 23.6623 42.5051 25.5925 39.9717 27.0648L39.9842 22.6452C42.5176 21.173 43.7858 19.2427 43.7913 17.3096Z" fill="#F9C73A"/>
<path d="M17.5601 21.6539L17.5726 17.2344C17.5671 19.1919 18.8559 21.1525 21.4365 22.6424C26.5694 25.6059 34.8894 25.606 39.9841 22.6452L39.9716 27.0648C34.8769 30.0255 26.5569 30.0254 21.4239 27.0619C18.8434 25.572 17.5545 23.6115 17.5601 21.6539Z" fill="#F9C73A"/>
<path d="M39.9238 13.0746C45.0568 16.0381 45.0841 20.8573 39.9843 23.821C34.8896 26.7817 26.5696 26.7817 21.4366 23.8181C16.3086 20.8575 16.2813 16.0382 21.376 13.0775C26.4758 10.1139 34.7958 10.1139 39.9238 13.0746Z" fill="#F9C73A"/>
<path d="M47.6706 17.3204L47.6581 21.7399C47.651 24.2433 46.0065 26.7429 42.7212 28.6521C36.1086 32.495 25.3486 32.4921 18.6926 28.6492C15.3432 26.7154 13.6703 24.1772 13.6775 21.6429L13.69 17.2234C13.6829 19.7577 15.3557 22.2959 18.7051 24.2297C25.3612 28.0726 36.1211 28.0754 42.7338 24.2326C46.019 22.3234 47.6635 19.8238 47.6706 17.3204Z" fill="#F2BC36"/>
<path d="M42.655 10.3113C49.3111 14.1541 49.3461 20.3896 42.7332 24.2326C36.1205 28.0755 25.3606 28.0726 18.7046 24.2297C12.0485 20.3869 12.0134 14.1572 18.626 10.3143C25.239 6.47134 35.999 6.46841 42.655 10.3113ZM21.4361 22.6424C26.5691 25.6059 34.8891 25.606 39.9838 22.6452C45.0835 19.6816 45.0562 14.8623 39.9232 11.8988C34.7952 8.93815 26.4753 8.9381 21.3755 11.9018C16.2808 14.8625 16.3081 19.6817 21.4361 22.6424Z" fill="#FED44C"/>
<path d="M37.0739 14.2239L37.0713 15.1348L36.3552 15.551L36.3578 14.64L37.0739 14.2239Z" fill="#F2BC36"/>
<path d="M30.9836 16.3678L30.9862 15.4569C30.9868 15.245 31.1423 15.0508 31.4488 14.8727C31.7642 14.6894 32.1478 14.607 32.5958 14.6235C33.0475 14.6379 33.5033 14.7574 33.9634 14.9818L33.9608 15.8928C33.5007 15.6683 33.0449 15.5489 32.5932 15.5345C32.1452 15.5179 31.7616 15.6003 31.4463 15.7836C31.1397 15.9617 30.9842 16.1559 30.9836 16.3678Z" fill="#F2BC36"/>
<path d="M34.8271 15.5296L34.8245 16.4406L32.1875 17.973L32.1901 17.0621L34.8271 15.5296Z" fill="#F2BC36"/>
<path d="M36.0343 17.1671L36.0317 18.078C35.8504 17.4643 35.4455 16.9185 34.8242 16.4406L34.8268 15.5296C35.4481 16.0075 35.8529 16.5533 36.0343 17.1671Z" fill="#F2BC36"/>
<path d="M38.2447 16.9488L38.2422 17.8598L36.0317 18.0781L36.0343 17.1671L38.2447 16.9488Z" fill="#F2BC36"/>
<path d="M28.4543 16.228L28.4569 15.3171C28.4568 15.3671 28.4608 15.4174 28.469 15.4679C28.5501 15.991 28.9982 16.6357 29.8096 17.3958L29.807 18.3067C28.9956 17.5467 28.5476 16.902 28.4664 16.3788C28.4582 16.3283 28.4542 16.278 28.4543 16.228Z" fill="#F2BC36"/>
<path d="M31.0962 19.0736L31.0936 19.9845C31.0936 19.9738 31.0933 19.9631 31.0925 19.9524C31.0771 19.7216 30.869 19.3921 30.4719 18.9699L30.4745 18.059C30.8716 18.4812 31.0797 18.8107 31.0951 19.0415C31.0958 19.0522 31.0962 19.0629 31.0962 19.0736Z" fill="#F2BC36"/>
<path d="M30.4747 18.0591L30.4721 18.97L27.9451 20.4386L27.9476 19.5276L30.4747 18.0591Z" fill="#F2BC36"/>
<path d="M25.5529 19.8695L25.5503 20.7804C24.3901 19.9586 23.7446 18.9947 23.6067 17.8846L23.6093 16.9737C23.7472 18.0838 24.3927 19.0477 25.5529 19.8695Z" fill="#F2BC36"/>
<path d="M25.4346 20.9879L25.432 21.8988L24.5259 21.3757L24.5285 20.4647L25.4346 20.9879Z" fill="#F2BC36"/>
<path d="M26.4448 20.4008L26.4422 21.3118L25.4321 21.8988L25.4347 20.9878L26.4448 20.4008Z" fill="#F2BC36"/>
<path d="M33.6024 19.2108L33.5998 20.1217C33.5985 20.6097 33.2246 21.069 32.481 21.5012C31.6588 21.979 30.6998 22.1974 29.6045 22.1603C28.5055 22.1212 27.4514 21.837 26.4421 21.3118L26.4447 20.4008C27.4539 20.926 28.5081 21.2103 29.6071 21.2494C30.7023 21.2865 31.6613 21.0681 32.4836 20.5903C33.2272 20.1581 33.601 19.6988 33.6024 19.2108Z" fill="#F2BC36"/>
<path d="M33.5917 19.062C33.673 19.6057 33.3025 20.1145 32.4838 20.5903C31.6616 21.0681 30.7026 21.2865 29.6073 21.2494C28.5083 21.2103 27.4542 20.9261 26.4449 20.4008L25.4349 20.9878L24.5287 20.4647L25.553 19.8694C24.3928 19.0476 23.7473 18.0837 23.6094 16.9736L25.8631 16.8583C25.9711 17.713 26.3768 18.4195 27.084 18.9797L29.8095 17.3958C28.9981 16.6358 28.5501 15.9911 28.4689 15.4679C28.3841 14.9427 28.7475 14.4464 29.5591 13.9747C30.3673 13.505 31.312 13.2826 32.3965 13.3135C33.4847 13.3424 34.5067 13.6081 35.4662 14.1085L36.168 13.7007L37.0741 14.2238L36.3581 14.64C37.3182 15.2805 37.9483 16.0508 38.245 16.9488L36.0346 17.1671C35.8532 16.5534 35.4484 16.0076 34.8271 15.5297L32.1901 17.0621L32.2329 17.0868C33.0586 17.8592 33.5175 18.5183 33.5917 19.062ZM29.4148 19.9189C29.895 19.9457 30.2963 19.8653 30.6259 19.6738C30.952 19.4843 31.1109 19.2722 31.0953 19.0415C31.0799 18.8108 30.8718 18.4812 30.4747 18.059L27.9477 19.5276C28.4468 19.7623 28.9347 19.8921 29.4148 19.9189ZM31.5356 16.3927L33.9634 14.9818C33.5033 14.7574 33.0475 14.6379 32.5959 14.6235C32.1478 14.607 31.7643 14.6894 31.4489 14.8727C31.137 15.0539 30.9815 15.2517 30.9864 15.4679C30.9947 15.6821 31.1742 15.9911 31.5356 16.3927Z" fill="#FED44C"/>
<path d="M48.0399 9.88476L48.0322 14.3073C48.0322 12.3479 46.7465 10.3806 44.1596 8.89355C42.8816 8.15003 41.3945 7.60016 39.8145 7.2284C35.0744 6.1207 29.436 6.67058 25.6098 8.89355C23.0849 10.3651 21.8146 12.2938 21.8069 14.2301L21.8224 9.80762C21.8301 7.87888 23.0926 5.95051 25.6253 4.47899C29.4514 2.25603 35.09 1.6982 39.83 2.8059C41.41 3.17766 42.8894 3.7351 44.1751 4.47104C46.7543 5.96601 48.0477 7.92539 48.0399 9.88476Z" fill="#F2BC36"/>
<path d="M48.041 9.88428L48.0285 14.3038C48.023 16.237 46.7549 18.1672 44.2214 19.6394L44.234 15.2199C46.7674 13.7476 48.0356 11.8174 48.041 9.88428Z" fill="#F9C73A"/>
<path d="M21.8096 14.2286L21.8221 9.80911C21.8166 11.7666 23.1054 13.7272 25.686 15.2171C30.819 18.1806 39.1389 18.1806 44.2336 15.2199L44.2211 19.6394C39.1264 22.6002 30.8064 22.6001 25.6734 19.6366C23.0929 18.1467 21.804 16.1861 21.8096 14.2286Z" fill="#F9C73A"/>
<path d="M44.1733 5.64924C49.3063 8.61278 49.3336 13.432 44.2338 16.3957C39.1391 19.3564 30.8191 19.3563 25.6861 16.3928C20.5581 13.4322 20.5309 8.61292 25.6255 5.6522C30.7253 2.68854 39.0453 2.6886 44.1733 5.64924Z" fill="#F9C73A"/>
<path d="M51.9201 9.89505L51.9076 14.3146C51.9005 16.818 50.256 19.3176 46.9707 21.2268C40.3581 25.0696 29.5982 25.0668 22.9421 21.2239C19.5927 19.2901 17.9198 16.7519 17.927 14.2176L17.9396 9.79807C17.9324 12.3324 19.6052 14.8706 22.9546 16.8044C29.6107 20.6472 40.3706 20.6501 46.9833 16.8073C50.2685 14.8981 51.913 12.3985 51.9201 9.89505Z" fill="#F2BC36"/>
<path d="M46.9045 2.88593C53.5606 6.7288 53.5956 12.9643 46.9827 16.8073C40.3701 20.6501 29.6101 20.6473 22.9541 16.8044C16.2981 12.9616 16.2629 6.73187 22.8755 2.88902C29.4885 -0.953988 40.2485 -0.956915 46.9045 2.88593ZM25.6856 15.217C30.8186 18.1806 39.1386 18.1806 44.2333 15.2199C49.333 12.2562 49.3058 7.43701 44.1728 4.47348C39.0448 1.51282 30.7248 1.51276 25.625 4.47642C20.5303 7.43715 20.5576 12.2564 25.6856 15.217Z" fill="#FED44C"/>
<path d="M41.3234 6.79843L41.3208 7.70937L40.6047 8.12549L40.6073 7.21456L41.3234 6.79843Z" fill="#F2BC36"/>
<path d="M35.2332 8.94233L35.2357 8.03139C35.2363 7.81949 35.3918 7.62532 35.6984 7.44718C36.0137 7.26391 36.3973 7.18153 36.8453 7.19805C37.297 7.21247 37.7528 7.33193 38.2129 7.55636L38.2103 8.4673C37.7502 8.24287 37.2944 8.1234 36.8427 8.10899C36.3947 8.09247 36.0111 8.17486 35.6958 8.35811C35.3892 8.53626 35.2338 8.73042 35.2332 8.94233Z" fill="#F2BC36"/>
<path d="M39.0764 8.10428L39.0738 9.01521L36.4368 10.5477L36.4394 9.63674L39.0764 8.10428Z" fill="#F2BC36"/>
<path d="M40.2838 9.74169L40.2812 10.6526C40.0999 10.0389 39.695 9.49307 39.0737 9.01518L39.0763 8.10425C39.6976 8.58215 40.1025 9.12797 40.2838 9.74169Z" fill="#F2BC36"/>
<path d="M42.4943 9.52338L42.4917 10.4343L40.2812 10.6526L40.2838 9.74169L42.4943 9.52338Z" fill="#F2BC36"/>
<path d="M32.7039 8.80272L32.7064 7.89178C32.7063 7.94177 32.7103 7.99203 32.7185 8.04255C32.7997 8.56569 33.2477 9.21041 34.0591 9.97046L34.0565 10.8814C33.2451 10.1214 32.7971 9.47663 32.7159 8.9535C32.7077 8.90297 32.7037 8.85271 32.7039 8.80272Z" fill="#F2BC36"/>
<path d="M35.3457 11.6482L35.3431 12.5591C35.3431 12.5485 35.3428 12.5378 35.342 12.5271C35.3266 12.2963 35.1186 11.9668 34.7214 11.5446L34.724 10.6336C35.1211 11.0558 35.3292 11.3854 35.3446 11.6161C35.3454 11.6269 35.3457 11.6375 35.3457 11.6482Z" fill="#F2BC36"/>
<path d="M34.7242 10.6336L34.7216 11.5446L32.1946 13.0131L32.1972 12.1022L34.7242 10.6336Z" fill="#F2BC36"/>
<path d="M29.8024 12.444L29.7999 13.355C28.6396 12.5332 27.9941 11.5693 27.8562 10.4592L27.8588 9.54825C27.9967 10.6583 28.6422 11.6222 29.8024 12.444Z" fill="#F2BC36"/>
<path d="M29.6843 13.5625L29.6817 14.4734L28.7756 13.9502L28.7782 13.0393L29.6843 13.5625Z" fill="#F2BC36"/>
<path d="M30.6943 12.9754L30.6917 13.8863L29.6816 14.4733L29.6842 13.5624L30.6943 12.9754Z" fill="#F2BC36"/>
<path d="M37.852 11.7853L37.8494 12.6963C37.848 13.1843 37.4742 13.6436 36.7305 14.0758C35.9083 14.5536 34.9493 14.772 33.854 14.7349C32.755 14.6958 31.7009 14.4116 30.6917 13.8863L30.6942 12.9754C31.7034 13.5006 32.7576 13.7849 33.8566 13.8239C34.9519 13.8611 35.9109 13.6427 36.7331 13.1649C37.4767 12.7327 37.8506 12.2734 37.852 11.7853Z" fill="#F2BC36"/>
<path d="M37.8412 11.6366C37.9225 12.1803 37.5521 12.6891 36.7333 13.1649C35.9111 13.6427 34.9521 13.8611 33.8568 13.824C32.7578 13.7849 31.7037 13.5006 30.6945 12.9754L29.6844 13.5624L28.7782 13.0392L29.8026 12.444C28.6423 11.6222 27.9968 10.6583 27.8589 9.54819L30.1126 9.43282C30.2206 10.2875 30.6263 10.9941 31.3335 11.5543L34.059 9.97039C33.2476 9.21034 32.7996 8.56563 32.7184 8.04249C32.6336 7.51729 32.997 7.02093 33.8086 6.54927C34.6168 6.07961 35.5615 5.85714 36.646 5.88809C37.7343 5.91693 38.7563 6.18264 39.7157 6.6831L40.4175 6.27524L41.3236 6.79839L40.6076 7.21453C41.5677 7.85506 42.1978 8.62539 42.4945 9.52335L40.2841 9.74166C40.1027 9.12793 39.6979 8.58212 39.0766 8.10423L36.4396 9.6367L36.4824 9.66141C37.3081 10.4338 37.7671 11.0928 37.8412 11.6366ZM33.6644 12.4934C34.1445 12.5203 34.5459 12.4399 34.8754 12.2484C35.2016 12.0589 35.3604 11.8467 35.3448 11.6161C35.3294 11.3853 35.1213 11.0558 34.7242 10.6336L32.1972 12.1021C32.6964 12.3369 33.1842 12.4666 33.6644 12.4934ZM35.7852 8.96729L38.213 7.5564C37.7529 7.33196 37.2971 7.21249 36.8454 7.19809C36.3974 7.18156 36.0138 7.26396 35.6984 7.44721C35.3865 7.62846 35.231 7.82627 35.2359 8.04249C35.2442 8.2567 35.4237 8.56569 35.7852 8.96729Z" fill="#FED44C"/>
<path d="M25.8597 34.6549L21.477 37.2064C20.4991 37.7755 19.3345 38.0155 18.0366 37.9001C17.2098 37.8289 16.3297 37.6066 15.4052 37.2242C14.9073 37.0198 14.4007 36.771 13.885 36.4685C7.991 33.0727 3.21713 24.7961 3.23491 18.0397C3.23491 18.0397 3.23491 18.0397 3.23491 18.031V17.791C3.27046 16.1997 3.57268 14.8484 4.08831 13.7462C4.31945 13.2661 4.58614 12.8303 4.89732 12.4484C5.31512 11.9327 5.80406 11.5055 6.35523 11.1856L10.738 8.64322C10.1868 8.96314 9.69785 9.38115 9.28005 9.90552C8.96887 10.2788 8.70218 10.7146 8.47993 11.1947C7.95546 12.2968 7.65318 13.6572 7.62648 15.2395C7.62648 15.3193 7.61764 15.3996 7.61764 15.4886C7.59984 22.2537 12.3737 30.5212 18.2677 33.9261C18.7834 34.2195 19.2989 34.4682 19.7968 34.6731C20.7125 35.0551 21.5926 35.2774 22.4193 35.3572C23.7173 35.4731 24.8818 35.224 25.8597 34.6549Z" fill="#FED44C"/>
<path d="M25.862 34.6592L21.4761 37.208C23.3938 36.0935 24.5846 33.7269 24.5942 30.3671L28.9801 27.8182C28.9705 31.1781 27.7797 33.5447 25.862 34.6592Z" fill="#F9C73A"/>
<path d="M6.35474 11.1893L10.7406 8.64048C12.684 7.51114 15.3739 7.66797 18.3386 9.37968L13.9527 11.9285C10.988 10.2168 8.29807 10.0599 6.35474 11.1893Z" fill="#F9C73A"/>
<path d="M13.9529 11.9285L18.3388 9.37973C24.2247 12.778 28.9996 21.0482 28.9804 27.8182L24.5945 30.3671C24.6137 23.597 19.8388 15.3268 13.9529 11.9285Z" fill="#F9C73A"/>
<path d="M14.9874 11.137C20.8733 14.5353 25.6482 22.8055 25.629 29.5755C25.6098 36.3389 20.8038 39.0775 14.9178 35.6793C9.02625 32.2778 4.25138 24.0076 4.27057 17.2442C4.28975 10.4742 9.09582 7.73554 14.9874 11.137Z" fill="#F2BC36"/>
<path d="M13.9631 8.30199C21.6028 12.7128 27.7751 23.4102 27.7502 32.1891C27.7253 40.9676 21.5127 44.5078 13.8729 40.097C6.23318 35.6862 0.0552591 24.9923 0.0801531 16.2138C0.105036 7.43488 6.32332 3.89119 13.9631 8.30199ZM13.8832 36.4708C19.7691 39.869 24.5752 37.1304 24.5944 30.367C24.6136 23.5969 19.8387 15.3268 13.9528 11.9285C8.06121 8.52703 3.25514 11.2656 3.23595 18.0357C3.21676 24.7991 7.99163 33.0693 13.8832 36.4708Z" fill="#F9C73A"/>
<path d="M14.5098 30.4439L15.2714 30.0013L15.2678 31.2898L14.5061 31.7324L14.5098 30.4439Z" fill="#E2AB30"/>
<path d="M10.8284 24.7885L11.59 24.3458C12.4604 25.718 13.3594 26.757 14.28 27.4555L13.5183 27.8982C12.5977 27.1997 11.6987 26.1606 10.8284 24.7885Z" fill="#FED44C"/>
<path d="M14.5151 28.5293L15.2768 28.0867C15.7772 28.3159 16.171 28.3765 16.465 28.2684L15.7033 28.711C15.4093 28.8192 15.0155 28.7586 14.5151 28.5293Z" fill="#FED44C"/>
<path d="M16.5717 28.2188L15.81 28.6614C15.777 28.6806 15.7414 28.6972 15.7034 28.7111L16.465 28.2685C16.5031 28.2545 16.5386 28.238 16.5717 28.2188Z" fill="black"/>
<path d="M14.5243 25.3063L15.2859 24.8636L15.2768 28.0867L14.5151 28.5294L14.5243 25.3063Z" fill="#E2AB30"/>
<path d="M14.5305 23.1219L15.2922 22.6793L15.3405 22.7072L14.5788 23.1498L14.5305 23.1219Z" fill="#FED44C"/>
<path d="M12.3827 19.0034L13.1443 18.5608C12.9222 18.6899 12.8079 18.9351 12.8068 19.3028C12.8057 19.6991 12.9083 20.0761 13.1147 20.4294C13.3244 20.7849 13.7171 21.2339 14.2961 21.7826L13.5344 22.2252C12.9554 21.6766 12.5628 21.2275 12.353 20.872C12.1467 20.5187 12.0441 20.1418 12.0452 19.7454C12.0462 19.3778 12.1605 19.1325 12.3827 19.0034Z" fill="#FED44C"/>
<path d="M14.5789 23.1498L15.3405 22.7072C16.5333 23.7215 17.4083 24.6634 17.9691 25.5352L17.2074 25.9778C16.6467 25.106 15.7716 24.1642 14.5789 23.1498Z" fill="#FED44C"/>
<path d="M17.9744 30.3294L17.2128 30.7721C17.7612 30.4533 18.0395 29.8162 18.0423 28.8542C18.0452 27.8077 17.7646 26.8475 17.2073 25.9779L17.9689 25.5352C18.5263 26.4049 18.8069 27.365 18.8039 28.4116C18.8012 29.3736 18.5229 30.0107 17.9744 30.3294Z" fill="#FED44C"/>
<path d="M14.54 19.7604L15.3017 19.3178L15.2922 22.6794L14.5305 23.122L14.54 19.7604Z" fill="#E2AB30"/>
<path d="M10.9756 16.9339L11.7372 16.4913C11.775 16.4693 11.814 16.4489 11.8543 16.43C12.4841 16.1384 13.3027 16.2498 14.3103 16.7718L13.5486 17.2145C12.541 16.6925 11.7224 16.5811 11.0927 16.8726C11.0523 16.8915 11.0133 16.9119 10.9756 16.9339Z" fill="#FED44C"/>
<path d="M13.551 16.3187L14.3127 15.8761L15.3097 16.4517L14.548 16.8943L13.551 16.3187Z" fill="#FED44C"/>
<path d="M14.5482 16.8944L15.3099 16.4517L15.3073 17.3673L14.5457 17.8099L14.5482 16.8944Z" fill="#E2AB30"/>
<path d="M14.5457 17.8099L15.3073 17.3672C16.4489 18.1218 17.5275 19.1932 18.543 20.5775L17.7813 21.0201C16.7658 19.6359 15.6873 18.5644 14.5457 17.8099Z" fill="#FED44C"/>
<path d="M17.7814 21.0201L18.543 20.5775L17.5275 21.6431L16.7659 22.0857L17.7814 21.0201Z" fill="#E2AB30"/>
<path d="M17.2074 25.9779C17.7648 26.8475 18.0454 27.8077 18.0424 28.8542C18.0395 29.8969 17.7128 30.5579 17.0692 30.8455C16.4222 31.1312 15.5691 30.996 14.5098 30.4439L14.5062 31.7324L13.5091 31.1568L13.5128 29.8485C12.0919 28.8614 10.8173 27.4742 9.68896 25.6873L10.8284 24.7885C11.6988 26.1607 12.5977 27.1997 13.5184 27.8982L13.5282 24.4254C12.3562 23.4271 11.4983 22.507 10.9547 21.669C10.4111 20.8311 10.1408 19.8928 10.1437 18.8619C10.1466 17.8313 10.463 17.1682 11.0927 16.8726C11.7225 16.581 12.5411 16.6924 13.5487 17.2144L13.5512 16.3187L14.5482 16.8943L14.5456 17.8099C15.6873 18.5644 16.7658 19.6359 17.7813 21.0201L16.7658 22.0857C16.0809 21.1264 15.3401 20.3532 14.5401 19.7604L14.5306 23.122L14.5789 23.1498C15.7716 24.1642 16.6467 25.1061 17.2074 25.9779ZM15.7034 28.711C15.994 28.6048 16.1399 28.3434 16.1411 27.9273C16.1422 27.507 16.0293 27.1122 15.8023 26.7352C15.5719 26.3559 15.1482 25.881 14.5244 25.3062L14.5152 28.5293C15.0157 28.7586 15.4094 28.8192 15.7034 28.711ZM13.5345 22.2252L13.5432 19.1292C13.0773 18.9079 12.7112 18.8552 12.4448 18.9716C12.1818 19.0897 12.0463 19.3449 12.0452 19.7454C12.0441 20.1418 12.1467 20.5188 12.353 20.8721C12.5628 21.2276 12.9555 21.6766 13.5345 22.2252Z" fill="#F9C73A"/>
<path d="M32.1401 29.6404C32.1224 34.0055 30.5844 37.0723 28.1041 38.5126L23.7125 41.0641C26.2016 39.6147 27.7396 36.5479 27.7485 32.192C27.7752 23.4088 21.6056 12.714 13.9603 8.30464C10.1198 6.08217 6.63495 5.87771 4.11914 7.33579L8.50187 4.79296C11.0177 3.32621 14.5026 3.53066 18.3519 5.75315C25.9883 10.1625 32.1579 20.8573 32.1401 29.6404Z" fill="#FED44C"/>
<path d="M22.4998 35.9442L22.7504 36.7895L22.2319 36.0764L21.3042 37.7858L21.6077 35.8647L20.7624 36.1154L21.4754 35.5968L19.7661 34.6692L21.6871 34.9726L21.4365 34.1274L21.955 34.8404L22.8826 33.1311L22.5793 35.052L23.4245 34.8015L22.7115 35.32L24.4208 36.2476L22.4998 35.9442Z" fill="white"/>
<path d="M44.0449 8.09649L44.5093 9.6633L43.5483 8.34159L41.8288 11.51L42.3912 7.94923L40.8244 8.41374L42.1461 7.4526L38.9778 5.73324L42.5385 6.29554L42.074 4.72888L43.0351 6.05044L44.7545 2.8822L44.1922 6.44281L45.7589 5.97843L44.4373 6.93943L47.6055 8.65894L44.0449 8.09649Z" fill="white"/>
</svg>
