<svg width="42" height="42" viewBox="0 0 42 42" fill="none" xmlns="http://www.w3.org/2000/svg">
<g filter="url(#filter0_di_2012_8982)">
<circle cx="21" cy="18" r="16" fill="#1F2166"/>
<circle cx="21" cy="18" r="15.5" stroke="url(#paint0_linear_2012_8982)" stroke-opacity="0.5"/>
</g>
<path d="M21.8914 17.9923L25.8246 14.0592C25.9384 13.9413 26.0014 13.7834 26 13.6196C25.9986 13.4557 25.9328 13.2989 25.8169 13.1831C25.7011 13.0672 25.5443 13.0014 25.3804 13C25.2166 12.9986 25.0587 13.0616 24.9408 13.1754L21.0077 17.1086L17.0746 13.1754C16.9567 13.0616 16.7988 12.9986 16.6349 13C16.4711 13.0014 16.3143 13.0672 16.1984 13.1831C16.0825 13.2989 16.0168 13.4557 16.0154 13.6196C16.014 13.7834 16.077 13.9413 16.1908 14.0592L20.1239 17.9923L16.1908 21.9254C16.1311 21.9831 16.0835 22.0521 16.0507 22.1283C16.018 22.2046 16.0007 22.2866 16 22.3696C15.9993 22.4526 16.0151 22.5349 16.0465 22.6117C16.078 22.6885 16.1244 22.7583 16.1831 22.8169C16.2417 22.8756 16.3115 22.922 16.3883 22.9535C16.4651 22.9849 16.5474 23.0007 16.6304 23C16.7134 22.9993 16.7954 22.982 16.8717 22.9493C16.9479 22.9165 17.0169 22.8689 17.0746 22.8092L21.0077 18.8761L24.9408 22.8092C25.0587 22.923 25.2166 22.986 25.3804 22.9846C25.5443 22.9832 25.7011 22.9175 25.8169 22.8016C25.9328 22.6857 25.9986 22.5289 26 22.3651C26.0014 22.2012 25.9384 22.0433 25.8246 21.9254L21.8914 17.9923Z" fill="white"/>
<defs>
<filter id="filter0_di_2012_8982" x="0" y="0" width="42" height="42" filterUnits="userSpaceOnUse" color-interpolation-filters="sRGB">
<feFlood flood-opacity="0" result="BackgroundImageFix"/>
<feColorMatrix in="SourceAlpha" type="matrix" values="0 0 0 0 0 0 0 0 0 0 0 0 0 0 0 0 0 0 127 0" result="hardAlpha"/>
<feOffset dy="3"/>
<feGaussianBlur stdDeviation="2.5"/>
<feComposite in2="hardAlpha" operator="out"/>
<feColorMatrix type="matrix" values="0 0 0 0 0.258824 0 0 0 0 0.0784314 0 0 0 0 0.290196 0 0 0 0.6 0"/>
<feBlend mode="normal" in2="BackgroundImageFix" result="effect1_dropShadow_2012_8982"/>
<feBlend mode="normal" in="SourceGraphic" in2="effect1_dropShadow_2012_8982" result="shape"/>
<feColorMatrix in="SourceAlpha" type="matrix" values="0 0 0 0 0 0 0 0 0 0 0 0 0 0 0 0 0 0 127 0" result="hardAlpha"/>
<feOffset/>
<feGaussianBlur stdDeviation="7"/>
<feComposite in2="hardAlpha" operator="arithmetic" k2="-1" k3="1"/>
<feColorMatrix type="matrix" values="0 0 0 0 0.792035 0 0 0 0 0.103226 0 0 0 0 0.904167 0 0 0 0.9 0"/>
<feBlend mode="normal" in2="shape" result="effect2_innerShadow_2012_8982"/>
</filter>
<linearGradient id="paint0_linear_2012_8982" x1="2.7931" y1="25.0175" x2="39.3295" y2="25.0175" gradientUnits="userSpaceOnUse">
<stop stop-color="#EF0896"/>
<stop offset="0.544792" stop-color="#7007FF"/>
<stop offset="1" stop-color="#00C8FF"/>
</linearGradient>
</defs>
</svg>
