<svg width="77" height="77" viewBox="0 0 77 77" fill="none" xmlns="http://www.w3.org/2000/svg">
<path d="M65.8239 4.26473C47.3228 0.979789 28.8219 0.979789 10.3206 4.26473C7.22792 4.81373 4.81366 7.228 4.26466 10.3207C0.979713 28.8218 0.979713 47.3226 4.26466 65.824C4.81366 68.9166 7.22792 71.3309 10.3206 71.8799C28.8217 75.1648 47.3228 75.1648 65.8239 71.8799C68.9166 71.3309 71.3308 68.9166 71.8798 65.824C75.1648 47.3229 75.1648 28.822 71.8798 10.3207C71.3308 7.22776 68.9168 4.81373 65.8239 4.26473Z" fill="#C1C0BF"/>
<path d="M74.3037 41.4984C74.1273 49.606 73.3176 57.7161 71.8799 65.8236C71.3313 68.9167 68.9171 71.331 65.8239 71.8795C56.4983 73.5349 47.1753 74.3565 37.8497 74.3419C30.3367 74.3348 22.8211 73.7813 15.3054 72.6842C13.9594 71.5026 13.017 69.8787 12.6884 68.0299C9.14325 48.0569 9.14325 28.0863 12.6884 8.11594C13.017 6.26736 13.962 4.64085 15.3104 3.45921C32.1491 1.00635 48.9853 1.27465 65.8239 4.26627C68.9171 4.8148 71.3313 7.22906 71.8799 10.3222C73.7237 20.7136 74.5334 31.1048 74.3037 41.4984Z" fill="#DBDBDB"/>
<path d="M74.1338 46.3633C75.1276 46.404 75.9783 45.6277 76.0198 44.6274C76.4963 33.1392 75.7036 21.4901 73.6643 10.0037C72.9855 6.18217 69.9624 3.15863 66.1409 2.48024C47.5156 -0.826865 28.6282 -0.826627 10.0037 2.48024C6.18215 3.15886 3.1586 6.18217 2.47997 10.0037C-0.826657 28.6285 -0.826657 47.5156 2.47997 66.1406C3.1586 69.9622 6.18215 72.9857 10.0037 73.6641C19.3162 75.3178 28.694 76.1444 38.0718 76.1444C47.4501 76.1444 56.8281 75.3178 66.1404 73.6644C69.9617 72.9857 72.985 69.9624 73.6639 66.1409C74.5586 61.1 75.2203 55.9891 75.6311 50.9493C75.7124 49.9518 74.9694 49.0768 73.9717 48.9958C72.9781 48.9139 72.0993 49.6573 72.0181 50.655C71.6168 55.5814 70.9699 60.5784 70.0947 65.5073C69.681 67.8379 67.8372 69.6817 65.5066 70.0954C47.3028 73.3274 28.8417 73.3274 10.6368 70.0954C8.30619 69.6815 6.46237 67.8377 6.04871 65.5071C2.81666 47.3026 2.81666 28.842 6.04871 10.6373C6.46237 8.30669 8.30642 6.46287 10.6371 6.04921C28.841 2.81717 47.3023 2.81717 65.5068 6.04921C67.8377 6.46311 69.6812 8.30693 70.0949 10.6376C72.0886 21.8656 72.8632 33.2514 72.3979 44.4775C72.3567 45.4774 73.1339 46.3218 74.1338 46.3633Z" fill="black"/>
</svg>
