<svg width="89" height="77" viewBox="0 0 89 77" fill="none" xmlns="http://www.w3.org/2000/svg">
<path d="M74.3284 41.4979C74.152 49.6054 73.3424 57.7156 71.9046 65.8231C71.356 68.9162 68.9418 71.3305 65.8486 71.879C56.523 73.5343 47.2 74.3559 37.8744 74.3414C30.3614 74.3342 22.8458 73.7807 15.3302 72.6837C13.6677 72.4444 12.0073 72.1737 10.3448 71.879C7.25171 71.3305 4.83768 68.9162 4.28892 65.8231C1.00493 47.3217 1.00493 28.8206 4.28892 10.3217C4.83745 7.22853 7.25171 4.81426 10.3448 4.26574C12.0073 3.97098 13.6724 3.7003 15.3352 3.45868C32.1738 1.00581 49.01 1.27412 65.8486 4.26574C68.9418 4.81426 71.356 7.22853 71.9046 10.3217C73.7484 20.7129 74.5581 31.1041 74.3284 41.4979Z" fill="#C1C0BF"/>
<path d="M74.3283 41.4979C74.152 49.6054 73.3423 57.7156 71.9045 65.8231C71.356 68.9162 68.9417 71.3305 65.8486 71.879C56.523 73.5343 47.2 74.3559 37.8744 74.3414C30.3614 74.3342 22.8457 73.7807 15.3301 72.6837C13.9841 71.502 13.0417 69.8781 12.7131 68.0293C9.16791 48.0563 9.16791 28.0858 12.7131 8.11541C13.0417 6.26682 13.9867 4.64032 15.3351 3.45868C32.1737 1.00581 49.01 1.27412 65.8486 4.26574C68.9417 4.81426 71.356 7.22853 71.9045 10.3217C73.7483 20.7129 74.558 31.1041 74.3283 41.4979Z" fill="#DBDBDB"/>
<path d="M89 12.5C88.8237 20.6075 88.014 28.7176 86.5762 36.8252C86.0277 39.9183 83.6135 42.3326 80.5203 42.8811C71.1947 44.5364 61.8717 45.358 52.5461 45.3435C52.7224 37.236 53.5297 29.1258 54.9699 21.0159C55.5208 17.9228 57.9327 15.5085 61.0258 14.96C70.3514 13.3047 79.6747 12.4831 89 12.5Z" fill="#C1C0BF"/>
<path d="M46.676 38.071C46.676 42.8099 42.8361 46.6522 38.0972 46.6522C37.0096 46.6522 35.9705 46.4516 35.0159 46.082C31.7994 44.8446 29.5183 41.7251 29.5183 38.071C29.5183 34.4196 31.7996 31.2998 35.0159 30.0626C35.9705 29.6952 37.0096 29.4924 38.0972 29.4924C42.8361 29.4922 46.676 33.3344 46.676 38.071Z" fill="#423D3D"/>
<path d="M40.5135 38.0708C40.5135 41.7246 38.2322 44.8444 35.0159 46.0818C31.7994 44.8444 29.5183 41.7248 29.5183 38.0708C29.5183 34.4194 31.7996 31.2995 35.0159 30.0624C38.2322 31.2995 40.5135 34.4196 40.5135 38.0708Z" fill="#666666"/>
<path d="M49.2065 72.4993C39.0733 72.7028 20.7974 71.8946 10.6621 70.0948C8.33151 69.6812 6.48769 67.8374 6.07404 65.5067C2.84199 47.3023 2.84199 28.8417 6.07404 10.6372C6.48793 8.30637 8.33175 6.46279 10.6624 6.0489C28.8668 2.81709 47.3274 2.81685 65.5321 6.0489C69.2835 6.71491 69.5 7.50002 70.5 8.00002C71.764 8.63202 72.5 7.1586 71.6894 5.00365C71.5 4.50002 70 3.16066 66.1659 2.47992C47.5409 -0.826945 28.6538 -0.826945 10.029 2.47992C6.20723 3.15831 3.18392 6.18186 2.5053 10.0034C-0.801571 28.6282 -0.801571 47.5153 2.5053 66.1401C3.18392 69.9619 6.20724 72.9852 10.0288 73.6636C19.352 75.3189 36.7918 76.1548 46.1393 76.1548C47.1866 76.1548 48.2348 76.1443 49.2796 76.1234C50.2804 76.1033 51.0753 75.2756 51.0553 74.275C51.035 73.2745 50.2077 72.4862 49.2065 72.4993Z" fill="black"/>
<path d="M38.0967 27.6801C32.3666 27.6801 27.7048 32.3419 27.7048 38.0721C27.7048 39.0731 28.5164 39.8844 29.5172 39.8844C30.5182 39.8844 31.3296 39.0728 31.3296 38.0721C31.3296 34.3406 34.3653 31.3049 38.0967 31.3049C41.8282 31.3049 44.8639 34.3408 44.8639 38.0721C44.8639 41.8033 41.828 44.8393 38.0967 44.8393C36.1793 44.8393 34.3438 44.0205 33.0612 42.5927C32.3921 41.8479 31.2462 41.7871 30.5015 42.456C29.7569 43.1251 29.6959 44.271 30.3648 45.0156C32.3339 47.2071 35.1523 48.4642 38.097 48.4642C43.8272 48.4642 48.4889 43.8025 48.4889 38.0723C48.4891 32.3419 43.8272 27.6801 38.0967 27.6801Z" fill="black"/>
</svg>
