<svg width="22" height="22" viewBox="0 0 22 22" fill="none" xmlns="http://www.w3.org/2000/svg">
<g clip-path="url(#clip0_142_26459)">
<path d="M13.4782 7.37628C13.4454 8.88276 13.295 10.3897 13.0279 11.8962C12.926 12.471 12.4774 12.9195 11.9026 13.0215C10.1698 13.329 8.43744 13.4817 6.70464 13.479C5.30858 13.4777 3.9121 13.3749 2.51566 13.171C2.20671 13.1265 1.89824 13.0763 1.58929 13.0215C1.01454 12.9195 0.565951 12.471 0.464029 11.8962C-0.146213 8.45845 -0.146213 5.02065 0.464029 1.58332C0.565908 1.00857 1.0145 0.560016 1.58925 0.458051C1.8982 0.403266 2.20757 0.352993 2.51652 0.30809C5.64537 -0.147679 8.77376 -0.0978356 11.9026 0.458051C12.4774 0.559973 12.926 1.00857 13.0279 1.58332C13.3704 3.51416 13.5209 5.445 13.4782 7.37628Z" fill="#C1C0BF"/>
<path d="M13.4776 7.37628C13.4448 8.88276 13.2944 10.3897 13.0272 11.8962C12.9253 12.471 12.4767 12.9195 11.902 13.0215C10.1692 13.329 8.4368 13.4817 6.704 13.479C5.30795 13.4777 3.91146 13.3749 2.51502 13.171C2.2649 12.9514 2.0898 12.6497 2.0287 12.3062C1.36999 8.59496 1.36999 4.88413 2.0287 1.17335C2.08976 0.82986 2.26533 0.527661 2.51588 0.30809C5.64474 -0.147679 8.77312 -0.0978356 11.902 0.458051C12.4767 0.559973 12.9253 1.00857 13.0272 1.58332C13.3698 3.51416 13.5202 5.445 13.4776 7.37628Z" fill="#E8E8E8"/>
<path d="M13.4777 7.37627C13.4449 8.88275 13.2945 10.3897 13.0273 11.8962C12.9254 12.4709 12.4768 12.9195 11.9021 13.0215C10.1693 13.329 8.4369 13.4817 6.7041 13.479C6.73689 11.9725 6.88685 10.4656 7.15446 8.95863C7.25685 8.38389 7.70497 7.93529 8.27972 7.83337C10.0125 7.5258 11.7449 7.37313 13.4777 7.37627Z" fill="#C1C0BF"/>
<path d="M20.4114 8.97847C16.9737 8.3681 13.5359 8.3681 10.0982 8.97847C9.52352 9.08048 9.07492 9.52907 8.97291 10.1037C8.36254 13.5414 8.36254 16.9792 8.97291 20.417C9.07492 20.9916 9.52352 21.4402 10.0982 21.5422C13.5359 22.1526 16.9737 22.1526 20.4114 21.5422C20.9861 21.4402 21.4347 20.9916 21.5367 20.417C22.147 16.9792 22.147 13.5415 21.5367 10.1037C21.4346 9.52907 20.9861 9.08048 20.4114 8.97847Z" fill="#C1C0BF"/>
<path d="M21.987 15.897C21.9542 17.4035 21.8037 18.9105 21.5366 20.417C21.4346 20.9917 20.986 21.4403 20.4113 21.5422C18.6785 21.8498 16.9461 22.0025 15.2133 21.9998C13.8173 21.9985 12.4208 21.8956 11.0243 21.6918C10.7742 21.4722 10.5991 21.1704 10.538 20.8269C9.87927 17.1157 9.87927 13.4049 10.538 9.6941C10.599 9.35061 10.7746 9.04841 11.0252 8.82884C14.154 8.37307 17.2824 8.42292 20.4113 8.9788C20.986 9.08073 21.4346 9.52932 21.5365 10.1041C21.8792 12.0349 22.0296 13.9658 21.987 15.897Z" fill="#E8E8E8"/>
<path d="M8.33948 6.73956C8.33948 7.62012 7.62598 8.33405 6.74542 8.33405C6.54334 8.33405 6.35028 8.29679 6.17291 8.22809C5.57525 7.9982 5.15137 7.41847 5.15137 6.73956C5.15137 6.06109 5.57525 5.48139 6.17291 5.25147C6.35028 5.18323 6.54334 5.14551 6.74542 5.14551C7.62598 5.14546 8.33948 5.85943 8.33948 6.73956Z" fill="#423D3D"/>
<path d="M7.19445 6.73956C7.19445 7.41851 6.77056 7.9982 6.17291 8.22808C5.57525 7.9982 5.15137 7.41846 5.15137 6.73956C5.15137 6.06108 5.57525 5.48139 6.17291 5.25146C6.77056 5.48135 7.19445 6.06104 7.19445 6.73956Z" fill="#666666"/>
<path d="M16.8488 15.2601C16.8488 16.1407 16.1353 16.8546 15.2547 16.8546C15.0526 16.8546 14.8596 16.8174 14.6822 16.7487C14.0845 16.5188 13.6606 15.939 13.6606 15.2601C13.6606 14.5817 14.0845 14.002 14.6822 13.772C14.8596 13.7038 15.0526 13.6661 15.2547 13.6661C16.1352 13.6661 16.8488 14.38 16.8488 15.2601Z" fill="#423D3D"/>
<path d="M15.7037 15.2601C15.7037 15.939 15.2798 16.5187 14.6822 16.7486C14.0845 16.5187 13.6606 15.939 13.6606 15.2601C13.6606 14.5816 14.0845 14.0019 14.6822 13.772C15.2798 14.0019 15.7037 14.5816 15.7037 15.2601Z" fill="#666666"/>
<path d="M20.3429 11.7661C20.3429 12.6467 19.6294 13.3606 18.7488 13.3606C18.5468 13.3606 18.3537 13.3233 18.1763 13.2546C17.5787 13.0248 17.1548 12.445 17.1548 11.7661C17.1548 11.0876 17.5787 10.5079 18.1763 10.278C18.3537 10.2098 18.5468 10.1721 18.7488 10.1721C19.6294 10.1721 20.3429 10.886 20.3429 11.7661Z" fill="#423D3D"/>
<path d="M19.1979 11.766C19.1979 12.445 18.774 13.0247 18.1763 13.2546C17.5787 13.0247 17.1548 12.445 17.1548 11.766C17.1548 11.0876 17.5787 10.5079 18.1763 10.278C18.774 10.5078 19.1979 11.0876 19.1979 11.766Z" fill="#666666"/>
<path d="M13.3546 18.7542C13.3546 19.6347 12.6411 20.3487 11.7606 20.3487C11.5585 20.3487 11.3654 20.3114 11.188 20.2427C10.5904 20.0129 10.1665 19.4331 10.1665 18.7542C10.1665 18.0757 10.5904 17.496 11.188 17.2661C11.3654 17.1979 11.5585 17.1602 11.7606 17.1602C12.6411 17.1601 13.3546 17.8741 13.3546 18.7542Z" fill="#423D3D"/>
<path d="M12.2096 18.7541C12.2096 19.4331 11.7857 20.0128 11.188 20.2427C10.5904 20.0128 10.1665 19.4331 10.1665 18.7541C10.1665 18.0757 10.5904 17.496 11.188 17.2661C11.7857 17.496 12.2096 18.0757 12.2096 18.7541Z" fill="#666666"/>
</g>
<defs>
<clipPath id="clip0_142_26459">
<rect width="22" height="22" fill="white"/>
</clipPath>
</defs>
</svg>
