<svg width="24" height="24" viewBox="0 0 24 24" fill="none" xmlns="http://www.w3.org/2000/svg">
<g clip-path="url(#clip0_55_216)">
<path d="M20.4862 3.51473C18.2197 1.24823 15.2062 0 12.0009 0C8.79557 0 5.78217 1.24823 3.51566 3.51473C1.24916 5.78123 0.000976562 8.79469 0.000976562 12C0.000976562 15.2053 1.24916 18.2188 3.51566 20.4853C5.78217 22.7518 8.79562 24 12.0009 24C15.2062 24 18.2197 22.7518 20.4862 20.4853C22.7527 18.2188 24.0009 15.2053 24.0009 12C24.0009 8.79469 22.7527 5.78123 20.4862 3.51473ZM12.0009 22.5938C6.15951 22.5938 1.40723 17.8414 1.40723 12C1.40723 6.15858 6.15951 1.40625 12.0009 1.40625C17.8423 1.40625 22.5946 6.15858 22.5946 12C22.5946 17.8414 17.8423 22.5938 12.0009 22.5938Z" fill="white"/>
<path d="M7.48125 6.77814C5.84775 6.77814 4.5188 8.10714 4.5188 9.74068C4.5188 10.129 4.83361 10.4438 5.22192 10.4438C5.61024 10.4438 5.92505 10.129 5.92505 9.74068C5.92505 8.88254 6.62316 8.18439 7.48125 8.18439C8.33935 8.18439 9.03746 8.88254 9.03746 9.74068C9.03746 10.129 9.35227 10.4438 9.74058 10.4438C10.1289 10.4438 10.4437 10.129 10.4437 9.74068C10.4437 8.10714 9.11475 6.77814 7.48125 6.77814Z" fill="white"/>
<path d="M16.5186 6.77814C14.8851 6.77814 13.5562 8.10714 13.5562 9.74068C13.5562 10.129 13.871 10.4438 14.2593 10.4438C14.6476 10.4438 14.9624 10.129 14.9624 9.74068C14.9624 8.88254 15.6605 8.18439 16.5186 8.18439C17.3767 8.18439 18.0748 8.88254 18.0748 9.74068C18.0748 10.129 18.3896 10.4438 18.7779 10.4438C19.1662 10.4438 19.4811 10.129 19.4811 9.74068C19.4811 8.10714 18.1521 6.77814 16.5186 6.77814Z" fill="white"/>
<path d="M18.626 13.5964C18.26 13.4671 17.8582 13.6589 17.7288 14.0251C16.8726 16.4475 14.5703 18.075 11.9999 18.075C9.42947 18.075 7.1272 16.4475 6.27103 14.0251C6.14166 13.6589 5.73985 13.4671 5.3738 13.5964C5.00766 13.7258 4.81575 14.1275 4.94517 14.4937C5.99958 17.4769 8.83467 19.4813 11.9999 19.4813C15.1651 19.4813 18.0002 17.4769 19.0546 14.4937C19.1841 14.1275 18.9922 13.7258 18.626 13.5964Z" fill="white"/>
</g>
<defs>
<clipPath id="clip0_55_216">
<rect width="24" height="24" fill="white"/>
</clipPath>
</defs>
</svg>
