<svg width="16" height="16" viewBox="0 0 16 16" fill="none" xmlns="http://www.w3.org/2000/svg">
<path d="M8 1C4.1552 1 1 4.1552 1 8C1 11.8448 4.1552 15 8 15C11.8448 15 15 11.8448 15 8C15 4.1552 11.8448 1 8 1ZM8.82031 11.2812C8.82031 11.7335 8.45221 12.1016 8 12.1016C7.54779 12.1016 7.17969 11.7335 7.17969 11.2812V7.17969C7.17969 6.72748 7.54779 6.35938 8 6.35938C8.45221 6.35938 8.82031 6.72748 8.82031 7.17969V11.2812ZM8 5.53906C7.54779 5.53906 7.17969 5.17096 7.17969 4.71875C7.17969 4.26654 7.54779 3.89844 8 3.89844C8.45221 3.89844 8.82031 4.26654 8.82031 4.71875C8.82031 5.17096 8.45221 5.53906 8 5.53906Z" fill="#DC9A00"/>
</svg>
