<svg width="20" height="20" viewBox="0 0 20 20" fill="none" xmlns="http://www.w3.org/2000/svg">
<g clip-path="url(#clip0_1311:8468)">
<path d="M9.99876 6.25L9.99695 10.6226C9.99695 10.7886 10.0628 10.9473 10.1801 11.0645L13.3081 14.1919L14.1919 13.3081L11.2469 10.3638L11.2487 6.25H9.99876Z" fill="#00EAFF"/>
<path d="M11.25 1.25C6.85069 1.25 3.2097 4.51722 2.59989 8.75001H0L3.125 11.875L6.25 8.75001H3.8629C4.46083 5.20859 7.54098 2.50001 11.25 2.50001C15.3857 2.50001 18.75 5.86426 18.75 10C18.75 14.1358 15.3858 17.5 11.25 17.5C8.92519 17.5 6.76944 16.4478 5.33569 14.6131L4.35059 15.3821C6.02293 17.522 8.53759 18.75 11.25 18.75C16.0748 18.75 20 14.8242 20 10C20 5.17582 16.0748 1.25004 11.25 1.25Z" fill="#00EAFF"/>
</g>
<defs>
<clipPath id="clip0_1311:8468">
<rect width="20" height="20" fill="white"/>
</clipPath>
</defs>
</svg>
