<svg width="21" height="22" viewBox="0 0 21 22" fill="none" xmlns="http://www.w3.org/2000/svg">
<path d="M19.1833 1.06012C18.4665 0.936655 17.7406 0.873102 17.0133 0.870122C14.5316 0.868087 12.1018 1.57969 10.0133 2.92012C7.91942 1.59729 5.48992 0.903152 3.01327 0.920121C2.28591 0.923102 1.56007 0.986655 0.843268 1.11012C0.608475 1.1506 0.395849 1.27358 0.243681 1.45691C0.0915139 1.64025 0.00980452 1.87189 0.0132682 2.11012V14.1101C0.0111266 14.2571 0.0413944 14.4027 0.101918 14.5366C0.162442 14.6705 0.251734 14.7894 0.363441 14.8849C0.475149 14.9803 0.606525 15.05 0.748224 15.089C0.889923 15.1279 1.03846 15.1351 1.18327 15.1101C2.61629 14.862 4.08447 14.9032 5.50133 15.2312C6.9182 15.5592 8.25509 16.1675 9.43327 17.0201L9.55327 17.0901H9.66327C9.77417 17.1363 9.89312 17.1601 10.0133 17.1601C10.1334 17.1601 10.2524 17.1363 10.3633 17.0901H10.4733L10.5933 17.0201C11.7632 16.1484 13.0963 15.5205 14.5134 15.1735C15.9306 14.8265 17.4029 14.7675 18.8433 15.0001C18.9881 15.0251 19.1366 15.0179 19.2783 14.979C19.42 14.94 19.5514 14.8703 19.6631 14.7749C19.7748 14.6794 19.8641 14.5605 19.9246 14.4266C19.9851 14.2927 20.0154 14.1471 20.0133 14.0001V2.00012C20.0029 1.77228 19.9149 1.55483 19.7639 1.38386C19.6129 1.21289 19.4081 1.09866 19.1833 1.06012ZM9.01327 14.3501C7.16315 13.3768 5.10379 12.8688 3.01327 12.8701C2.68327 12.8701 2.35327 12.8701 2.01327 12.8701V2.87012C2.34633 2.85093 2.68021 2.85093 3.01327 2.87012C5.14665 2.86776 7.23348 3.49381 9.01327 4.67012V14.3501ZM18.0133 12.9101C17.6733 12.9101 17.3433 12.9101 17.0133 12.9101C14.9227 12.9088 12.8634 13.4168 11.0133 14.3901V4.67012C12.7931 3.49381 14.8799 2.86776 17.0133 2.87012C17.3463 2.85093 17.6802 2.85093 18.0133 2.87012V12.9101ZM19.1833 17.0601C18.4665 16.9367 17.7406 16.8731 17.0133 16.8701C14.5316 16.8681 12.1018 17.5797 10.0133 18.9201C7.92478 17.5797 5.4949 16.8681 3.01327 16.8701C2.28591 16.8731 1.56007 16.9367 0.843268 17.0601C0.713096 17.0808 0.588291 17.127 0.476031 17.196C0.36377 17.2651 0.266269 17.3557 0.189135 17.4625C0.112 17.5694 0.0567537 17.6905 0.026572 17.8188C-0.00360967 17.9471 -0.00813089 18.0801 0.0132682 18.2101C0.0640869 18.4698 0.215759 18.6988 0.435059 18.8468C0.654359 18.9949 0.923408 19.05 1.18327 19.0001C2.61629 18.752 4.08447 18.7932 5.50133 19.1212C6.9182 19.4492 8.25509 20.0575 9.43327 20.9101C9.60263 21.0307 9.80536 21.0955 10.0133 21.0955C10.2212 21.0955 10.4239 21.0307 10.5933 20.9101C11.7714 20.0575 13.1083 19.4492 14.5252 19.1212C15.9421 18.7932 17.4102 18.752 18.8433 19.0001C19.1031 19.05 19.3722 18.9949 19.5915 18.8468C19.8108 18.6988 19.9624 18.4698 20.0133 18.2101C20.0347 18.0801 20.0301 17.9471 20 17.8188C19.9698 17.6905 19.9145 17.5694 19.8374 17.4625C19.7603 17.3557 19.6628 17.2651 19.5505 17.196C19.4382 17.127 19.3134 17.0808 19.1833 17.0601Z" fill="#00EAFF"/>
</svg>
