<svg width="209" height="79" viewBox="0 0 209 79" fill="none" xmlns="http://www.w3.org/2000/svg">
<path d="M3.21292 70.892C2.82892 70.94 2.57692 70.868 2.45692 70.676C2.33692 70.46 2.27692 70.136 2.27692 69.704C2.27692 69.176 2.28892 68.696 2.31292 68.264L2.34892 65.24L2.42092 60.992C2.56492 55.904 2.63692 51.932 2.63692 49.076C2.63692 48.212 2.62492 47.696 2.60092 47.528C2.55292 47 2.52892 46.688 2.52892 46.592C2.52892 45.968 2.66092 45.656 2.92492 45.656C3.04492 45.656 3.28492 45.668 3.64492 45.692C4.02892 45.716 4.55692 45.728 5.22892 45.728C5.42092 45.728 5.91292 45.716 6.70492 45.692C7.49692 45.668 8.32492 45.656 9.18892 45.656C10.4609 45.656 11.6729 45.692 12.8249 45.764C14.4809 45.86 15.8489 46.532 16.9289 47.78C18.0329 49.028 18.5849 50.9 18.5849 53.396C18.5849 55.028 18.2369 56.324 17.5409 57.284C16.8449 58.244 16.0409 58.916 15.1289 59.3C14.2169 59.66 13.4129 59.84 12.7169 59.84C12.0689 59.84 10.9769 59.912 9.44092 60.056C8.55292 60.152 7.83292 60.212 7.28092 60.236C7.23292 62.444 7.20892 63.944 7.20892 64.736C7.20892 67.856 7.24492 69.548 7.31692 69.812C7.36492 70.052 7.31692 70.268 7.17292 70.46C7.05292 70.628 6.88492 70.748 6.66892 70.82C6.47692 70.868 6.29692 70.856 6.12892 70.784C6.05692 70.76 5.85292 70.748 5.51692 70.748C4.79692 70.748 4.02892 70.796 3.21292 70.892ZM11.7089 57.248C12.5969 57.248 13.4249 56.984 14.1929 56.456C14.9609 55.928 15.3449 54.98 15.3449 53.612C15.3449 52.148 15.0449 51.044 14.4449 50.3C13.8449 49.532 12.9689 49.04 11.8169 48.824C10.0169 48.464 8.60092 48.32 7.56892 48.392C7.56892 49.064 7.55692 49.568 7.53292 49.904C7.48492 51.248 7.42492 52.208 7.35292 52.784C7.25692 53.624 7.23292 54.572 7.28092 55.628L7.35292 57.032L9.04492 57.14C9.69292 57.212 10.5809 57.248 11.7089 57.248ZM34.12 49.652C34.096 49.892 34.108 50.9 34.156 52.676C34.276 55.604 34.336 58.016 34.336 59.912V62.108C34.288 65.204 33.544 67.448 32.104 68.84C30.688 70.208 28.972 70.892 26.956 70.892C25.42 70.892 24.184 70.388 23.248 69.38C22.312 68.348 21.652 67.208 21.268 65.96C21.1 65.408 20.968 64.556 20.872 63.404C20.8 62.228 20.764 61.028 20.764 59.804C20.764 58.436 20.8 57.524 20.872 57.068C20.92 56.732 20.944 55.616 20.944 53.72C20.944 50.696 20.896 48.512 20.8 47.168C20.776 47.024 20.764 46.832 20.764 46.592C20.764 45.848 20.992 45.572 21.448 45.764L21.844 45.8C21.94 45.8 22.036 45.788 22.132 45.764C22.252 45.74 22.372 45.728 22.492 45.728C22.588 45.728 22.648 45.8 22.672 45.944C22.648 47.456 22.624 49.628 22.6 52.46C22.576 55.268 22.564 57.992 22.564 60.632C22.564 62.024 22.732 63.272 23.068 64.376C23.428 65.48 23.92 66.344 24.544 66.968C25.168 67.592 25.864 67.904 26.632 67.904C27.688 67.904 28.444 67.604 28.9 67.004C29.38 66.38 29.62 65.732 29.62 65.06L29.692 62.864C29.764 59.264 29.8 57.272 29.8 56.888C29.8 56.336 29.824 55.244 29.872 53.612C29.944 52.244 29.98 50.9 29.98 49.58C29.98 48.404 29.932 47.576 29.836 47.096C29.764 46.808 29.728 46.58 29.728 46.412C29.728 46.076 29.8 45.872 29.944 45.8C30.112 45.704 30.268 45.668 30.412 45.692C30.58 45.692 30.688 45.692 30.736 45.692C30.976 45.716 31.24 45.728 31.528 45.728C31.84 45.704 32.116 45.692 32.356 45.692H33.292C33.676 45.692 33.892 45.752 33.94 45.872C34.012 45.968 34.06 46.196 34.084 46.556C34.132 47.084 34.156 47.732 34.156 48.5C34.156 49.028 34.144 49.412 34.12 49.652ZM22.672 46.124V45.944V46.124ZM39.5662 71.288C39.0382 71.288 38.7742 71.048 38.7742 70.568V67.76L38.9182 55.7C38.9182 54.788 38.8582 53.132 38.7382 50.732L38.5942 46.304C38.5942 45.896 38.7502 45.692 39.0622 45.692C39.1822 45.692 39.3862 45.728 39.6742 45.8C39.9622 45.872 40.1902 45.908 40.3582 45.908C41.0302 46.004 41.8342 46.052 42.7702 46.052C43.4182 46.052 44.0302 46.016 44.6062 45.944C44.9662 45.896 45.2182 45.92 45.3622 46.016C45.5062 46.112 45.5782 46.268 45.5782 46.484C45.5782 46.652 45.5542 46.832 45.5062 47.024C45.4822 47.192 45.4702 47.384 45.4702 47.6L45.3982 49.544C45.3022 51.512 45.2542 52.988 45.2542 53.972L45.3262 59.408C45.3502 60.272 45.3622 61.16 45.3622 62.072L45.2902 65.996L45.2542 66.716L45.2902 67.724L45.3622 68.984L50.5102 69.164L54.7942 69.2H54.8662C55.0102 69.2 55.0942 69.224 55.1182 69.272C55.1422 69.32 55.1422 69.392 55.1182 69.488C55.1182 69.56 55.1182 69.62 55.1182 69.668C55.0942 69.764 55.0942 69.944 55.1182 70.208C55.1662 70.472 55.1902 70.712 55.1902 70.928C55.1902 71.096 55.1302 71.204 55.0102 71.252C54.8902 71.3 54.7342 71.312 54.5422 71.288C54.3742 71.288 54.2422 71.288 54.1462 71.288L52.2382 71.18C50.5582 71.036 49.3702 70.964 48.6742 70.964C47.9062 70.964 45.9622 71.036 42.8422 71.18L39.5662 71.288ZM64.7451 71.756C61.2891 71.756 59.0931 71.096 58.1571 69.776C57.2211 68.432 56.7291 67.736 56.6811 67.688C56.5851 67.568 56.5371 67.448 56.5371 67.328C56.5371 67.256 56.6331 67.1 56.8251 66.86C57.1371 66.428 57.5931 65.912 58.1931 65.312C58.2891 65.216 58.3851 65.168 58.4811 65.168C58.6011 65.168 58.7331 65.264 58.8771 65.456C59.0211 65.624 59.1411 65.756 59.2371 65.852C60.6531 67.268 62.2611 67.976 64.0611 67.976C64.9731 67.976 65.7651 67.808 66.4371 67.472C67.1091 67.112 67.4451 66.452 67.4451 65.492C67.4451 63.836 66.1371 62.072 63.5211 60.2C63.0891 59.912 62.6811 59.672 62.2971 59.48C61.2891 58.928 60.4251 58.388 59.7051 57.86C58.9851 57.332 58.3491 56.636 57.7971 55.772C57.2451 54.908 56.9691 53.9 56.9691 52.748C56.9691 51.308 57.4131 50.012 58.3011 48.86C59.2131 47.708 60.2931 46.808 61.5411 46.16C62.8131 45.512 63.9171 45.188 64.8531 45.188C67.1331 45.188 69.0051 45.644 70.4691 46.556C71.9571 47.444 73.1091 48.296 73.9251 49.112C74.0211 49.208 74.0691 49.316 74.0691 49.436C74.0691 49.508 74.0331 49.604 73.9611 49.724C73.9131 49.82 73.8771 49.892 73.8531 49.94C73.7331 50.108 73.5291 50.408 73.2411 50.84C72.9771 51.248 72.7611 51.548 72.5931 51.74C72.5211 51.836 72.4371 51.944 72.3411 52.064C72.2691 52.16 72.1971 52.232 72.1251 52.28C72.0771 52.328 71.9931 52.352 71.8731 52.352C71.8251 52.352 71.7051 52.28 71.5131 52.136C71.3451 51.968 71.1771 51.824 71.0091 51.704C70.0491 50.864 69.1131 50.144 68.2011 49.544C67.2891 48.944 66.4131 48.644 65.5731 48.644C64.9011 48.644 64.3491 48.8 63.9171 49.112C63.4851 49.4 63.2691 50.072 63.2691 51.128C63.2691 52.16 63.6531 52.964 64.4211 53.54C65.1891 54.116 66.2091 54.668 67.4811 55.196C67.6011 55.244 68.2971 55.544 69.5691 56.096C70.8651 56.648 72.0051 57.704 72.9891 59.264C73.9971 60.824 74.5011 62.684 74.5011 64.844C74.5011 67.148 73.6371 68.876 71.9091 70.028C70.1811 71.18 67.7931 71.756 64.7451 71.756ZM78.6113 71.072C78.4673 71.072 78.3833 71.036 78.3593 70.964C78.3353 70.868 78.3233 70.7 78.3233 70.46C78.2993 70.196 78.2873 69.752 78.2873 69.128C78.2873 68.936 78.2753 68.732 78.2513 68.516C78.2273 68.276 78.2153 67.964 78.2153 67.58V62.648C78.2153 62.168 78.2273 61.7 78.2513 61.244C78.2993 60.788 78.3233 60.452 78.3233 60.236C78.4193 59.132 78.4673 58.076 78.4673 57.068C78.4673 55.82 78.4313 54.836 78.3593 54.116C78.3113 53.3 78.2873 52.556 78.2873 51.884C78.2873 50.372 78.3233 48.608 78.3953 46.592C78.3953 46.28 78.4553 46.076 78.5753 45.98C78.6953 45.86 78.8633 45.8 79.0793 45.8L79.6193 45.836C79.8353 45.836 80.1833 45.86 80.6633 45.908C81.1433 45.932 81.7313 45.944 82.4273 45.944C83.2193 45.944 84.1553 45.884 85.2353 45.764C86.5313 45.668 87.3953 45.62 87.8273 45.62C88.8113 45.62 89.7113 45.656 90.5273 45.728L91.8233 45.764C92.1353 45.764 92.3393 45.836 92.4353 45.98C92.5313 46.124 92.5793 46.388 92.5793 46.772C92.5793 46.988 92.6033 47.36 92.6513 47.888C92.6993 48.512 92.7233 49.052 92.7233 49.508C92.7233 49.988 92.6873 50.432 92.6153 50.84C92.5913 51.2 92.4233 51.38 92.1113 51.38C92.0153 51.38 91.8833 51.356 91.7153 51.308C91.5473 51.26 91.4153 51.224 91.3193 51.2C90.9593 51.128 89.9153 51.092 88.1873 51.092L86.8193 51.056C86.5073 51.032 86.0513 51.02 85.4513 51.02C85.0193 51.02 84.6953 51.032 84.4793 51.056C83.7593 51.104 83.1233 51.128 82.5713 51.128L80.6633 51.092C80.4713 51.092 80.3633 51.14 80.3393 51.236C80.3153 51.308 80.3033 51.5 80.3033 51.812C80.3033 52.244 80.2913 52.616 80.2673 52.928C80.2193 53.888 80.1953 54.668 80.1953 55.268V57.392C80.1953 57.896 80.2073 58.28 80.2313 58.544C80.4233 58.568 80.7473 58.58 81.2033 58.58C81.6113 58.604 82.4513 58.616 83.7233 58.616C84.2513 58.616 85.0193 58.592 86.0273 58.544C86.7953 58.496 87.2993 58.472 87.5393 58.472C87.8753 58.472 88.2113 58.496 88.5473 58.544C88.8833 58.568 89.1353 58.58 89.3033 58.58C89.6153 58.58 89.7713 58.724 89.7713 59.012C89.7713 59.108 89.7593 59.252 89.7353 59.444C89.7113 59.612 89.6993 59.84 89.6993 60.128L89.7353 62.036C89.7353 62.252 89.7113 62.408 89.6633 62.504C89.6153 62.576 89.5313 62.612 89.4113 62.612C89.3393 62.612 89.2313 62.6 89.0873 62.576C88.9673 62.528 88.8593 62.504 88.7633 62.504C88.5473 62.504 88.1393 62.492 87.5393 62.468C86.9633 62.444 86.1713 62.432 85.1633 62.432C84.0833 62.432 83.1473 62.48 82.3553 62.576C81.5633 62.672 81.0833 62.72 80.9153 62.72C80.6513 62.72 80.4953 62.708 80.4473 62.684C80.3273 62.684 80.2553 62.672 80.2313 62.648V66.248C80.3993 66.248 80.5313 66.236 80.6273 66.212L81.6353 66.176L85.8833 66.14C86.7473 66.14 87.4313 66.152 87.9353 66.176L90.4193 66.212L91.9313 66.176C92.2193 66.176 92.4113 66.248 92.5073 66.392C92.6033 66.512 92.6513 66.692 92.6513 66.932L92.6153 67.652L92.5793 70.172C92.5793 70.556 92.4953 70.796 92.3273 70.892C92.1593 70.964 91.9193 71 91.6073 71C91.2953 70.976 91.0433 70.964 90.8513 70.964C89.8193 70.964 88.9313 70.952 88.1873 70.928L84.5153 70.892C84.2273 70.892 82.7873 70.928 80.1953 71L78.8273 71.036L78.6113 71.072ZM107.031 71.576C106.719 71.576 106.503 71.516 106.383 71.396C106.287 71.276 106.239 71.072 106.239 70.784L106.275 69.956L106.203 67.868C106.059 65.372 105.987 63.2 105.987 61.352C105.987 60.392 106.023 59.732 106.095 59.372C106.215 58.772 106.275 57.08 106.275 54.296C106.275 51.392 106.227 49.196 106.131 47.708C106.107 47.516 106.095 47.252 106.095 46.916C106.095 46.532 106.131 46.256 106.203 46.088C106.275 45.92 106.347 45.836 106.419 45.836C106.515 45.812 106.671 45.8 106.887 45.8L107.679 45.728C109.335 45.536 110.655 45.44 111.639 45.44C114.327 45.44 116.343 46.136 117.687 47.528C119.055 48.896 119.739 50.684 119.739 52.892C119.739 54.644 119.175 56.324 118.047 57.932C117.567 58.628 117.015 59.252 116.391 59.804L118.911 64.376C120.759 67.688 121.839 69.56 122.151 69.992C122.487 70.52 122.655 70.868 122.655 71.036C122.655 71.132 122.595 71.192 122.475 71.216C122.355 71.24 122.247 71.252 122.151 71.252C122.079 71.252 122.019 71.252 121.971 71.252L117.903 71.36C117.711 71.36 117.555 71.276 117.435 71.108C117.339 70.94 117.195 70.64 117.003 70.208C116.883 69.848 116.667 69.368 116.355 68.768C115.875 67.904 115.047 66.284 113.871 63.908L112.035 60.344L112.143 62.252L112.323 64.988C112.467 68.204 112.587 69.98 112.683 70.316C112.707 70.412 112.719 70.532 112.719 70.676C112.719 71.108 112.491 71.324 112.035 71.324C111.891 71.324 111.771 71.312 111.675 71.288C111.291 71.24 110.355 71.288 108.867 71.432C107.859 71.528 107.247 71.576 107.031 71.576ZM111.819 55.556C112.179 55.556 112.503 55.484 112.791 55.34C113.463 55.028 113.799 54.392 113.799 53.432C113.799 52.736 113.691 52.22 113.475 51.884C113.259 51.548 112.983 51.38 112.647 51.38C112.383 51.38 112.155 51.476 111.963 51.668C111.939 51.692 111.939 51.86 111.963 52.172C111.987 52.484 111.999 52.796 111.999 53.108C111.999 53.372 111.987 53.564 111.963 53.684C111.867 54.092 111.819 54.512 111.819 54.944L111.783 55.268L111.819 55.556ZM131.695 71.792C128.263 71.792 125.983 70.352 124.855 67.472C123.727 64.568 123.163 61.46 123.163 58.148C123.163 54.956 123.595 52.4 124.459 50.48C125.347 48.56 126.415 47.216 127.663 46.448C128.935 45.68 130.195 45.296 131.443 45.296C133.843 45.296 135.643 45.992 136.843 47.384C138.043 48.752 138.811 50.384 139.147 52.28C139.483 54.152 139.651 56.276 139.651 58.652C139.651 60.572 139.363 62.552 138.787 64.592C138.211 66.608 137.323 68.312 136.123 69.704C134.923 71.096 133.447 71.792 131.695 71.792ZM131.407 62.648C132.055 62.648 132.535 62.288 132.847 61.568C133.159 60.848 133.315 59.984 133.315 58.976C133.315 58.016 133.159 57.176 132.847 56.456C132.559 55.736 132.163 55.376 131.659 55.376C131.059 55.376 130.603 55.796 130.291 56.636C130.003 57.452 129.859 58.34 129.859 59.3C129.859 60.284 129.955 61.088 130.147 61.712C130.339 62.336 130.759 62.648 131.407 62.648ZM144.437 71.288C143.909 71.288 143.645 71.048 143.645 70.568V67.76L143.789 55.7C143.789 54.788 143.729 53.132 143.609 50.732L143.465 46.304C143.465 45.896 143.621 45.692 143.933 45.692C144.053 45.692 144.257 45.728 144.545 45.8C144.833 45.872 145.061 45.908 145.229 45.908C145.901 46.004 146.705 46.052 147.641 46.052C148.289 46.052 148.901 46.016 149.477 45.944C149.837 45.896 150.089 45.92 150.233 46.016C150.377 46.112 150.449 46.268 150.449 46.484C150.449 46.652 150.425 46.832 150.377 47.024C150.353 47.192 150.341 47.384 150.341 47.6L150.269 49.544C150.173 51.512 150.125 52.988 150.125 53.972L150.197 59.408C150.221 60.272 150.233 61.16 150.233 62.072L150.161 65.996L150.125 66.716L150.161 67.724L150.233 68.984L155.381 69.164L159.665 69.2H159.737C159.881 69.2 159.965 69.224 159.989 69.272C160.013 69.32 160.013 69.392 159.989 69.488C159.989 69.56 159.989 69.62 159.989 69.668C159.965 69.764 159.965 69.944 159.989 70.208C160.037 70.472 160.061 70.712 160.061 70.928C160.061 71.096 160.001 71.204 159.881 71.252C159.761 71.3 159.605 71.312 159.413 71.288C159.245 71.288 159.113 71.288 159.017 71.288L157.109 71.18C155.429 71.036 154.241 70.964 153.545 70.964C152.777 70.964 150.833 71.036 147.713 71.18L144.437 71.288ZM163.316 71.288C162.788 71.288 162.524 71.048 162.524 70.568V67.76L162.668 55.7C162.668 54.788 162.608 53.132 162.488 50.732L162.344 46.304C162.344 45.896 162.5 45.692 162.812 45.692C162.932 45.692 163.136 45.728 163.424 45.8C163.712 45.872 163.94 45.908 164.108 45.908C164.78 46.004 165.584 46.052 166.52 46.052C167.168 46.052 167.78 46.016 168.356 45.944C168.716 45.896 168.968 45.92 169.112 46.016C169.256 46.112 169.328 46.268 169.328 46.484C169.328 46.652 169.304 46.832 169.256 47.024C169.232 47.192 169.22 47.384 169.22 47.6L169.148 49.544C169.052 51.512 169.004 52.988 169.004 53.972L169.076 59.408C169.1 60.272 169.112 61.16 169.112 62.072L169.04 65.996L169.004 66.716L169.04 67.724L169.112 68.984L174.26 69.164L178.544 69.2H178.616C178.76 69.2 178.844 69.224 178.868 69.272C178.892 69.32 178.892 69.392 178.868 69.488C178.868 69.56 178.868 69.62 178.868 69.668C178.844 69.764 178.844 69.944 178.868 70.208C178.916 70.472 178.94 70.712 178.94 70.928C178.94 71.096 178.88 71.204 178.76 71.252C178.64 71.3 178.484 71.312 178.292 71.288C178.124 71.288 177.992 71.288 177.896 71.288L175.988 71.18C174.308 71.036 173.12 70.964 172.424 70.964C171.656 70.964 169.712 71.036 166.592 71.18L163.316 71.288Z" fill="#00EAFF"/>
<path d="M158.877 14.2985C158.945 14.0474 161.351 9.71746 163.492 10.2987C165.082 10.7304 165.512 13.5974 165.373 14.1097C165.171 14.8525 164.384 15.3372 163.687 15.1481C163.318 15.048 162.77 14.5525 162.34 14.0616C159.837 16.8694 158.59 15.3537 158.877 14.2985ZM150.841 16.1262C150.73 16.536 150.835 17.0266 151.011 17.8336C151.492 20.0376 152.48 24.6018 150.307 32.9443C149.153 34.0392 149.33 35.7042 150.673 36.0689C150.925 36.1374 151.29 36.1319 152.09 36.1182C169.917 35.8601 184.644 43.8466 190.227 45.3626C191.09 45.597 191.916 44.9303 192.119 44.1824C192.308 43.4857 192.566 42.538 183.999 39.1557C174.241 35.307 164.857 32.616 154.284 32.3302C155.5 28.6724 155.812 24.7089 155.462 20.9067C158.075 23.2608 159.243 25.3052 159.977 26.5936C160.521 27.5444 160.881 28.1756 161.522 28.3497C162.482 28.6102 163.722 27.913 164.086 26.9118C166.627 19.8516 179.182 11.0224 180.712 11.295C182.807 11.8638 188.725 26.941 187.48 33.8196C187.328 34.6584 187.765 35.3655 188.568 35.5835C189.34 35.7932 190.104 35.3737 191.259 34.7356C192.808 33.8802 195.052 32.6415 198.758 32.0305C195.653 36.1379 193.661 40.8389 193.103 45.4287C192.908 47.0258 195.435 48.0804 196.215 45.0689C198.309 36.958 201.768 33.3595 203.381 31.6137C203.971 30.9765 204.294 30.6242 204.4 30.2349C204.635 29.3692 204.179 28.5138 203.356 28.2903C202.912 28.1697 197.536 27.986 191.426 30.8044C191.395 21.4563 185.347 8.18058 182.222 7.33209C180.329 6.81806 168.561 12.5883 162.252 22.6075C158.508 17.2126 153.882 14.7078 153.448 14.5899C152.372 14.3198 151.136 15.0402 150.841 16.1262ZM195.23 23.7627C195.334 24.2365 195.524 24.937 195.906 25.9429C196.333 27.0654 197.947 26.8106 198.249 25.699C198.262 25.6529 198.697 20.8153 196.754 20.2876C195.244 19.8777 192.956 21.5994 192.64 22.7623C192.434 23.5204 192.929 24.7714 195.23 23.7627ZM175.912 30.1118C175.235 29.9281 172.065 27.9893 173.362 23.2149C174.556 18.8146 178.978 15.4059 180.151 17.2754C185.111 23.842 179.789 31.1646 175.912 30.1118ZM178.206 20.6032C176.417 22.8234 176.454 24.7203 177.106 26.6905C178.629 25.1348 178.541 22.8061 178.206 20.6032Z" fill="#00EAFF"/>
</svg>
