<svg width="124" height="124" viewBox="0 0 124 124" fill="none" xmlns="http://www.w3.org/2000/svg">
<g clip-path="url(#clip0_61_854)">
<path d="M75.9642 41.5754C75.7794 50.0665 74.9315 58.5602 73.4258 67.0513C72.8513 70.2908 70.3229 72.8193 67.0834 73.3937C57.3167 75.1273 47.5524 75.9878 37.7857 75.9728C29.9171 75.9653 22.046 75.3857 14.1751 74.2365C12.4338 73.9859 10.6951 73.7025 8.9538 73.3937C5.7143 72.8193 3.18587 70.2908 2.6114 67.0513C-0.828148 47.6749 -0.828148 28.2982 2.6114 8.92413C3.18562 5.68463 5.71406 3.15644 8.95356 2.58173C10.6949 2.27294 12.4386 1.98958 14.18 1.73649C31.8153 -0.83239 49.448 -0.551452 67.0834 2.58173C70.3229 3.1562 72.8513 5.68463 73.4258 8.92413C75.3565 19.8071 76.2044 30.69 75.9642 41.5754Z" fill="#C1C0BF"/>
<path d="M75.9646 41.5754C75.7798 50.0665 74.9319 58.5602 73.4262 67.0513C72.8518 70.2908 70.3233 72.8193 67.0838 73.3937C57.3171 75.1273 47.5528 75.9878 37.7861 75.9728C29.9175 75.9653 22.0464 75.3857 14.1755 74.2365C12.7658 72.999 11.7788 71.2981 11.4345 69.362C7.72172 48.4443 7.72172 27.5287 11.4345 6.61342C11.7786 4.67738 12.7682 2.97407 14.1804 1.73649C31.8157 -0.83239 49.4484 -0.551452 67.0838 2.58173C70.3233 3.1562 72.8518 5.68463 73.4262 8.92413C75.3569 19.8071 76.2048 30.69 75.9646 41.5754Z" fill="#E8E8E8"/>
<path d="M75.9641 41.5753C75.7793 50.0664 74.9314 58.5602 73.4257 67.0513C72.8512 70.2908 70.3228 72.8192 67.0833 73.3937C57.3166 75.1273 47.5523 75.9878 37.7856 75.9727C37.9704 67.4816 38.8157 58.9879 40.324 50.4941C40.9011 47.2546 43.4269 44.7262 46.6664 44.1517C56.4331 42.4182 66.1971 41.5577 75.9641 41.5753Z" fill="#C1C0BF"/>
<path d="M115.045 50.6058C95.6692 47.1655 76.2927 47.1655 56.9163 50.6058C53.6772 51.1807 51.1488 53.7092 50.5739 56.9482C47.1336 76.3244 47.1336 95.7009 50.5739 115.077C51.1488 118.316 53.6772 120.845 56.9163 121.42C76.2925 124.86 95.6692 124.86 115.045 121.42C118.284 120.845 120.813 118.316 121.388 115.077C124.828 95.7011 124.828 76.3247 121.388 56.9482C120.813 53.7092 118.285 51.1807 115.045 50.6058Z" fill="#C1C0BF"/>
<path d="M123.927 89.6014C123.742 98.0925 122.894 106.586 121.388 115.077C120.814 118.317 118.285 120.845 115.046 121.42C105.279 123.153 95.515 124.014 85.7483 123.999C77.8796 123.991 70.0085 123.412 62.1374 122.263C60.7277 121.025 59.7408 119.324 59.3964 117.388C55.6836 96.4703 55.6836 75.5547 59.3964 54.6394C59.7405 52.7034 60.7301 51.0001 62.1423 49.7625C79.7777 47.1936 97.4104 47.4745 115.046 50.6077C118.285 51.1822 120.814 53.7106 121.388 56.9501C123.32 67.8331 124.167 78.716 123.927 89.6014Z" fill="#E8E8E8"/>
<path d="M47.003 37.9866C47.003 42.9498 42.9815 46.9737 38.0184 46.9737C36.8794 46.9737 35.7912 46.7637 34.7915 46.3765C31.4229 45.0808 29.0337 41.8132 29.0337 37.9866C29.0337 34.1625 31.4229 30.8951 34.7915 29.5992C35.7912 29.2146 36.8794 29.002 38.0184 29.002C42.9815 29.0017 47.003 33.0259 47.003 37.9866Z" fill="#423D3D"/>
<path d="M40.5497 37.9866C40.5497 41.8134 38.1605 45.0808 34.7919 46.3765C31.4234 45.0808 29.0342 41.8132 29.0342 37.9866C29.0342 34.1625 31.4234 30.8951 34.7919 29.5992C38.1605 30.8949 40.5497 34.1622 40.5497 37.9866Z" fill="#666666"/>
<path d="M94.9664 86.0114C94.9664 90.9746 90.9449 94.9985 85.9817 94.9985C84.8427 94.9985 83.7546 94.7886 82.7548 94.4013C79.3863 93.1056 76.9971 89.838 76.9971 86.0114C76.9971 82.1873 79.3863 78.9199 82.7548 77.624C83.7546 77.2394 84.8427 77.0268 85.9817 77.0268C90.9446 77.0268 94.9664 81.051 94.9664 86.0114Z" fill="#423D3D"/>
<path d="M88.5126 86.0114C88.5126 89.8382 86.1234 93.1056 82.7548 94.4013C79.3863 93.1056 76.9971 89.838 76.9971 86.0114C76.9971 82.1873 79.3863 78.9199 82.7548 77.624C86.1232 78.9199 88.5126 82.1873 88.5126 86.0114Z" fill="#666666"/>
<path d="M114.659 66.318C114.659 71.2811 110.638 75.3051 105.675 75.3051C104.536 75.3051 103.447 75.0951 102.448 74.7078C99.0791 73.4121 96.6899 70.1445 96.6899 66.318C96.6899 62.4938 99.0791 59.2265 102.448 57.9305C103.447 57.5459 104.536 57.3333 105.675 57.3333C110.638 57.3333 114.659 61.3572 114.659 66.318Z" fill="#423D3D"/>
<path d="M108.205 66.318C108.205 70.1448 105.816 73.4121 102.448 74.7078C99.0791 73.4121 96.6899 70.1445 96.6899 66.318C96.6899 62.4938 99.0791 59.2265 102.448 57.9305C105.816 59.2262 108.205 62.4938 108.205 66.318Z" fill="#666666"/>
<path d="M75.2726 105.705C75.2726 110.668 71.2511 114.692 66.2879 114.692C65.1489 114.692 64.0607 114.483 63.061 114.095C59.6924 112.8 57.3032 109.532 57.3032 105.705C57.3032 101.881 59.6924 98.6139 63.061 97.318C64.0607 96.9334 65.1489 96.7207 66.2879 96.7207C71.2511 96.7205 75.2726 100.745 75.2726 105.705Z" fill="#423D3D"/>
<path d="M68.8188 105.705C68.8188 109.532 66.4296 112.799 63.061 114.095C59.6924 112.799 57.3032 109.532 57.3032 105.705C57.3032 101.881 59.6924 98.6137 63.061 97.3177C66.4296 98.6137 68.8188 101.881 68.8188 105.705Z" fill="#666666"/>
</g>
<defs>
<clipPath id="clip0_61_854">
<rect width="124" height="124" fill="white"/>
</clipPath>
</defs>
</svg>
