<svg width="11" height="12" viewBox="0 0 11 12" fill="none" xmlns="http://www.w3.org/2000/svg">
<path d="M4.2958 11.71C4.3909 11.801 4.50304 11.8724 4.6258 11.92C4.86926 12.02 5.14233 12.02 5.3858 11.92C5.50855 11.8724 5.62069 11.801 5.7158 11.71L9.7158 7.71C9.80903 7.61676 9.883 7.50607 9.93346 7.38425C9.98392 7.26242 10.0099 7.13186 10.0099 7C10.0099 6.86814 9.98392 6.73757 9.93346 6.61575C9.883 6.49393 9.80903 6.38323 9.7158 6.29C9.62256 6.19676 9.51187 6.1228 9.39005 6.07234C9.26822 6.02188 9.13766 5.99591 9.0058 5.99591C8.87394 5.99591 8.74337 6.02188 8.62155 6.07234C8.49972 6.1228 8.38903 6.19676 8.2958 6.29L6.0058 8.59L6.0058 0.999997C6.0058 0.73478 5.90044 0.480426 5.7129 0.29289C5.52537 0.105353 5.27101 -2.86102e-06 5.0058 -2.86102e-06C4.74058 -2.86102e-06 4.48623 0.105353 4.29869 0.29289C4.11115 0.480426 4.0058 0.73478 4.0058 0.999997L4.0058 8.59L1.7158 6.29C1.62283 6.19627 1.51223 6.12187 1.39037 6.07111C1.26851 6.02034 1.13781 5.9942 1.0058 5.9942C0.873785 5.9942 0.743079 6.02034 0.62122 6.07111C0.49936 6.12187 0.388761 6.19627 0.295797 6.29C0.202069 6.38296 0.127673 6.49356 0.0769043 6.61542C0.0261354 6.73728 -1.90735e-06 6.86798 -1.90735e-06 7C-1.90735e-06 7.13201 0.0261354 7.26271 0.0769043 7.38457C0.127673 7.50643 0.202069 7.61703 0.295797 7.71L4.2958 11.71Z" fill="#FF221C"/>
</svg>
