<svg width="93" height="98" viewBox="0 0 93 98" fill="none" xmlns="http://www.w3.org/2000/svg">
<g filter="url(#filter0_di_1301_8258)">
<rect x="12" y="2" width="68" height="68" rx="10" fill="url(#paint0_linear_1301_8258)" fill-opacity="0.02" shape-rendering="crispEdges"/>
<rect x="12.5" y="2.5" width="67" height="67" rx="9.5" stroke="url(#paint1_linear_1301_8258)" shape-rendering="crispEdges"/>
</g>
<path d="M1.274 93H2.618V88.632H4.76C7.294 88.632 7.938 87.106 7.938 85.86C7.938 84.614 7.294 83.088 4.76 83.088H1.274V93ZM2.618 84.264H4.382C5.446 84.264 6.51 84.516 6.51 85.86C6.51 87.204 5.446 87.456 4.382 87.456H2.618V84.264ZM9.57283 93H15.4668V91.74H10.9168V83.088H9.57283V93ZM15.5726 93H17.1406L18.1206 90.55H22.8386L23.8326 93H25.4006L21.1586 83.088H19.9406L15.5726 93ZM18.5966 89.374L20.4726 84.824H20.5006L22.3486 89.374H18.5966ZM27.989 93H29.333V88.772L33.085 83.088H31.447L28.661 87.442L25.959 83.088H24.237L27.989 88.772V93ZM34.2232 93H40.8732V91.74H35.5672V88.562H40.2712V87.302H35.5672V84.348H40.6212V83.088H34.2232V93ZM42.7818 93H44.1258V88.632H45.6238L48.1438 93H49.8238L47.0098 88.478C48.5078 88.31 49.4458 87.12 49.4458 85.86C49.4458 84.614 48.8018 83.088 46.2678 83.088H42.7818V93ZM44.1258 84.264H45.8898C46.9538 84.264 48.0178 84.516 48.0178 85.86C48.0178 87.204 46.9538 87.456 45.8898 87.456H44.1258V84.264ZM55.2369 93H56.5809V88.632H58.0789L60.5989 93H62.2789L59.4649 88.478C60.9629 88.31 61.9009 87.12 61.9009 85.86C61.9009 84.614 61.2569 83.088 58.7229 83.088H55.2369V93ZM56.5809 84.264H58.3449C59.4089 84.264 60.4729 84.516 60.4729 85.86C60.4729 87.204 59.4089 87.456 58.3449 87.456H56.5809V84.264ZM62.5355 93H64.1035L65.0835 90.55H69.8015L70.7955 93H72.3635L68.1215 83.088H66.9035L62.5355 93ZM65.5595 89.374L67.4355 84.824H67.4635L69.3115 89.374H65.5595ZM73.6529 93H74.9969V84.852H75.0249L80.5409 93H82.2489V83.088H80.9049V91.236H80.8769L75.4169 83.088H73.6529V93ZM84.7955 93H86.1395V88.044H86.2515L90.8715 93H92.8315L87.7215 87.666L92.5095 83.088H90.6335L86.2515 87.372H86.1395V83.088H84.7955V93Z" fill="white"/>
<g clip-path="url(#clip0_1301_8258)">
<path d="M61.9816 48.4473H60.8376V32.2336C60.8376 31.6712 60.3816 31.2151 59.819 31.2151H54.4302C53.8676 31.2151 53.4116 31.6712 53.4116 32.2336V48.4473H51.0554V37.4117C51.0554 36.849 50.5994 36.393 50.037 36.393H44.648C44.0856 36.393 43.6296 36.849 43.6296 37.4117V48.4473H41.2732V41.1356C41.2732 40.5732 40.8172 40.1172 40.2548 40.1172H34.8658C34.3034 40.1172 33.8474 40.5732 33.8474 41.1356V48.4473H31.0371V28.2754C31.0371 27.7127 30.581 27.2567 30.0184 27.2567C29.456 27.2567 29 27.7127 29 28.2754V49.466C29 50.0284 29.456 50.4844 30.0184 50.4844H61.9816C62.544 50.4844 63 50.0284 63 49.466C63 48.9033 62.544 48.4473 61.9816 48.4473ZM35.8845 48.4473V42.154H39.2362V48.4473H35.8845ZM45.6664 48.4473V38.4301H49.0184V48.4473H45.6664ZM55.4486 48.4473V33.252H58.8006V48.4473H55.4486Z" fill="#00EAFF"/>
<path d="M36.1964 35.4483L54.7894 27.2845L55.3183 28.4894C55.4236 28.7286 55.7481 28.7644 55.903 28.5538L58.8075 24.5984C58.9621 24.3878 58.8308 24.0887 58.5709 24.0602L53.6934 23.5217C53.4335 23.4931 53.2402 23.7564 53.3453 23.9956L53.9704 25.4194L35.3775 33.583C34.8626 33.8092 34.6283 34.4102 34.8545 34.9251C35.0794 35.4377 35.6789 35.6753 36.1964 35.4483Z" fill="#00EAFF"/>
</g>
<defs>
<filter id="filter0_di_1301_8258" x="7" y="0" width="78" height="78" filterUnits="userSpaceOnUse" color-interpolation-filters="sRGB">
<feFlood flood-opacity="0" result="BackgroundImageFix"/>
<feColorMatrix in="SourceAlpha" type="matrix" values="0 0 0 0 0 0 0 0 0 0 0 0 0 0 0 0 0 0 127 0" result="hardAlpha"/>
<feOffset dy="3"/>
<feGaussianBlur stdDeviation="2.5"/>
<feComposite in2="hardAlpha" operator="out"/>
<feColorMatrix type="matrix" values="0 0 0 0 0.0903555 0 0 0 0 0.0588576 0 0 0 0 0.0958333 0 0 0 0.5 0"/>
<feBlend mode="normal" in2="BackgroundImageFix" result="effect1_dropShadow_1301_8258"/>
<feBlend mode="normal" in="SourceGraphic" in2="effect1_dropShadow_1301_8258" result="shape"/>
<feColorMatrix in="SourceAlpha" type="matrix" values="0 0 0 0 0 0 0 0 0 0 0 0 0 0 0 0 0 0 127 0" result="hardAlpha"/>
<feOffset/>
<feGaussianBlur stdDeviation="7"/>
<feComposite in2="hardAlpha" operator="arithmetic" k2="-1" k3="1"/>
<feColorMatrix type="matrix" values="0 0 0 0 0.792035 0 0 0 0 0.103226 0 0 0 0 0.904167 0 0 0 0.6 0"/>
<feBlend mode="normal" in2="shape" result="effect2_innerShadow_1301_8258"/>
</filter>
<linearGradient id="paint0_linear_1301_8258" x1="7.31034" y1="50.9123" x2="84.9502" y2="50.9123" gradientUnits="userSpaceOnUse">
<stop stop-color="#EF0896"/>
<stop offset="0.544792" stop-color="#7007FF"/>
<stop offset="1" stop-color="#00C8FF"/>
</linearGradient>
<linearGradient id="paint1_linear_1301_8258" x1="7.31034" y1="50.9123" x2="84.9502" y2="50.9123" gradientUnits="userSpaceOnUse">
<stop stop-color="#EF0896"/>
<stop offset="0.544792" stop-color="#7007FF"/>
<stop offset="1" stop-color="#00C8FF"/>
</linearGradient>
<clipPath id="clip0_1301_8258">
<rect width="34" height="34" fill="white" transform="translate(29 20)"/>
</clipPath>
</defs>
</svg>
