<svg width="34" height="24" viewBox="0 0 34 24" fill="none" xmlns="http://www.w3.org/2000/svg">
<path d="M32.9816 21.4473H31.8376V5.23355C31.8376 4.67117 31.3816 4.21515 30.819 4.21515H25.4302C24.8676 4.21515 24.4116 4.67117 24.4116 5.23355V21.4473H22.0554V10.4117C22.0554 9.84904 21.5994 9.39302 21.037 9.39302H15.648C15.0856 9.39302 14.6296 9.84904 14.6296 10.4117V21.4473H12.2732V14.1356C12.2732 13.5732 11.8172 13.1172 11.2548 13.1172H5.8658C5.30342 13.1172 4.8474 13.5732 4.8474 14.1356V21.4473H2.03706V1.27538C2.03706 0.712738 1.58104 0.256714 1.0184 0.256714C0.456024 0.256714 0 0.712738 0 1.27538V22.466C0 23.0284 0.456024 23.4844 1.0184 23.4844H32.9816C33.544 23.4844 34 23.0284 34 22.466C34 21.9033 33.544 21.4473 32.9816 21.4473V21.4473ZM6.88446 21.4473V15.154H10.2362V21.4473H6.88446ZM16.6664 21.4473V11.4301H20.0184V21.4473H16.6664ZM26.4486 21.4473V6.25195H29.8006V21.4473H26.4486Z" fill="#00EAFF"/>
</svg>
