<svg width="232" height="38" viewBox="0 0 232 38" fill="none" xmlns="http://www.w3.org/2000/svg">
<path d="M47.88 31H54.12V19.96H58.68C64.64 19.96 69.16 17.92 69.16 11.28C69.16 4.56 64.28 2.68 58.4 2.68H47.88V31ZM54.12 7.96H57.32C59.72 7.96 62.68 8.36 62.68 11.28C62.68 13.92 60.48 14.68 58.28 14.68H54.12V7.96ZM91.0353 11.56H85.0353V21.24C85.0353 23.76 84.5553 26.2 81.4353 26.2C78.3553 26.2 78.3153 23.32 78.3153 21.08V11.56H72.3153V22.28C72.3153 27.48 73.4353 31.48 79.5153 31.48C82.4353 31.48 84.3953 29.88 85.1953 28.36H85.2753V31H91.0353V11.56ZM95.3641 31H101.364V0.759998H95.3641V31ZM120.355 13.64C118.555 11.72 115.715 11.08 113.155 11.08C109.075 11.08 104.995 13.08 104.995 17.64C104.995 25.04 115.115 22.4 115.115 25.52C115.115 26.56 113.755 26.92 112.395 26.92C110.595 26.92 109.275 26.16 108.155 24.8L104.515 28.84C106.435 30.8 109.435 31.48 112.155 31.48C116.315 31.48 121.115 30.04 121.115 25.08C121.115 17.68 110.995 20.12 110.995 17.24C110.995 16.08 112.195 15.64 113.195 15.64C114.635 15.64 115.795 16.2 116.675 17.28L120.355 13.64ZM138.39 24.56C137.39 25.92 136.07 26.92 134.11 26.92C131.79 26.92 130.07 25.44 129.59 23.16H143.51V21.28C143.51 15.08 139.99 11.08 134.39 11.08C128.39 11.08 123.59 15.08 123.59 21.28C123.59 27.48 128.39 31.48 134.39 31.48C137.51 31.48 140.67 30.08 142.59 27.64L138.39 24.56ZM129.59 19.08C129.75 17.2 131.19 15.4 133.83 15.4C135.99 15.4 137.55 17.08 137.51 19.08H129.59ZM148.159 31H165.959V25.24H154.399V2.68H148.159V31ZM187.363 11.56H181.363V21.24C181.363 23.76 180.883 26.2 177.763 26.2C174.683 26.2 174.643 23.32 174.643 21.08V11.56H168.643V22.28C168.643 27.48 169.763 31.48 175.843 31.48C178.763 31.48 180.723 29.88 181.523 28.36H181.603V31H187.363V11.56ZM208.732 13.68C206.852 11.76 204.092 11.08 201.812 11.08C195.812 11.08 191.012 15.08 191.012 21.28C191.012 27.48 195.812 31.48 201.812 31.48C204.092 31.48 206.852 30.8 208.732 28.88L204.772 24.72C204.092 25.52 203.132 26.2 201.812 26.2C198.812 26.2 197.012 24.2 197.012 21.28C197.012 18.36 198.812 16.36 201.812 16.36C203.052 16.36 204.172 17 204.772 17.84L208.732 13.68ZM210.909 31H216.909V21.16H216.989L223.549 31H231.109L223.189 20.32L230.909 11.56H223.549L216.909 19.24V0.759998H210.909V31Z" fill="url(#paint0_linear_383_3)"/>
<g clip-path="url(#clip0_383_3)">
<path d="M18.0846 33.0528V37.0461C21.8891 36.814 25.4551 35.3369 28.3095 32.8108L25.4811 29.9825C23.4526 31.7079 20.8927 32.8261 18.0846 33.0528Z" fill="url(#paint1_linear_383_3)"/>
<path d="M30.0528 21.0847C29.8261 23.8928 28.7079 26.4527 26.9825 28.4812L29.8109 31.3095C32.337 28.4552 33.814 24.8892 34.0461 21.0847H30.0528Z" fill="url(#paint2_linear_383_3)"/>
<path d="M15.9614 6.99342V3.00012C12.1569 3.23226 8.59092 4.70934 5.73657 7.2354L8.56486 10.0637C10.5935 8.3383 13.1534 7.22017 15.9614 6.99342Z" fill="url(#paint3_linear_383_3)"/>
<path d="M17.0229 9.07336C10.9852 9.07336 6.07312 13.9854 6.07312 20.0232C6.07312 26.0609 10.9852 30.973 17.0229 30.973C23.0606 30.973 27.9726 26.0609 27.9726 20.0232C27.9726 13.9854 23.0606 9.07336 17.0229 9.07336ZM16.8156 18.6831H17.2302C18.8771 18.6831 20.2169 20.0229 20.2169 21.6698C20.2169 23.0199 19.3163 24.1629 18.0845 24.5314V26.6443H15.9613V24.5314C14.7295 24.1629 13.8289 23.0199 13.8289 21.6698H15.9521C15.9521 22.1459 16.3395 22.5333 16.8156 22.5333H17.2302C17.7063 22.5333 18.0937 22.1459 18.0937 21.6698C18.0937 21.1937 17.7063 20.8063 17.2302 20.8063H16.8156C15.1687 20.8063 13.8289 19.4665 13.8289 17.8195C13.8289 16.4695 14.7295 15.3264 15.9613 14.9579V12.8451H18.0845V14.9579C19.3163 15.3264 20.2169 16.4695 20.2169 17.8195H18.0937C18.0937 17.3434 17.7063 16.956 17.2302 16.956H16.8156C16.3395 16.956 15.9521 17.3434 15.9521 17.8195C15.9521 18.2957 16.3395 18.6831 16.8156 18.6831Z" fill="url(#paint4_linear_383_3)"/>
<path d="M25.4811 10.0637L28.3094 7.2354C25.4551 4.70934 21.8891 3.23226 18.0846 3.00012V6.99342C20.8927 7.22017 23.4526 8.3383 25.4811 10.0637Z" fill="url(#paint5_linear_383_3)"/>
<path d="M7.06356 11.565L4.23528 8.73669C1.70922 11.591 0.232138 15.157 0 18.9615H3.99336C4.22012 16.1534 5.33818 13.5935 7.06356 11.565Z" fill="url(#paint6_linear_383_3)"/>
<path d="M3.99336 21.0847H0C0.232138 24.8892 1.70922 28.4552 4.23521 31.3095L7.06356 28.4812C5.33818 26.4527 4.22012 23.8928 3.99336 21.0847Z" fill="url(#paint7_linear_383_3)"/>
<path d="M8.56492 29.9825L5.73657 32.8108C8.59092 35.3369 12.1569 36.814 15.9614 37.0461V33.0528C13.1534 32.8261 10.5935 31.7079 8.56492 29.9825Z" fill="url(#paint8_linear_383_3)"/>
<path d="M30.0529 18.9615H34.0462C33.814 15.157 32.337 11.591 29.8109 8.73669L26.9825 11.565C28.708 13.5935 29.8261 16.1534 30.0529 18.9615Z" fill="url(#paint9_linear_383_3)"/>
</g>
<defs>
<linearGradient id="paint0_linear_383_3" x1="310.297" y1="28.4561" x2="-0.609749" y2="28.4561" gradientUnits="userSpaceOnUse">
<stop stop-color="#EF0896"/>
<stop offset="0.544792" stop-color="#7007FF"/>
<stop offset="1" stop-color="#00C8FF"/>
</linearGradient>
<linearGradient id="paint1_linear_383_3" x1="11.7365" y1="24.8956" x2="30.1227" y2="41.6195" gradientUnits="userSpaceOnUse">
<stop stop-color="#EF0896"/>
<stop offset="1" stop-color="#7007FF"/>
</linearGradient>
<linearGradient id="paint2_linear_383_3" x1="22.5971" y1="13.7211" x2="42.1273" y2="22.199" gradientUnits="userSpaceOnUse">
<stop stop-color="#EF0896"/>
<stop offset="1" stop-color="#7007FF"/>
</linearGradient>
<linearGradient id="paint3_linear_383_3" x1="-0.611534" y1="-2.08684" x2="17.7747" y2="14.6371" gradientUnits="userSpaceOnUse">
<stop stop-color="#EF0896"/>
<stop offset="1" stop-color="#7007FF"/>
</linearGradient>
<linearGradient id="paint4_linear_383_3" x1="8.5114" y1="11.5116" x2="30.1892" y2="35.5168" gradientUnits="userSpaceOnUse">
<stop stop-color="#00C8FF"/>
<stop offset="0.46875" stop-color="#7007FF"/>
<stop offset="1" stop-color="#EF0896"/>
</linearGradient>
<linearGradient id="paint5_linear_383_3" x1="11.7365" y1="-2.08684" x2="30.1227" y2="14.637" gradientUnits="userSpaceOnUse">
<stop stop-color="#EF0896"/>
<stop offset="1" stop-color="#7007FF"/>
</linearGradient>
<linearGradient id="paint6_linear_383_3" x1="-4.38541" y1="1.3731" x2="15.1447" y2="9.85097" gradientUnits="userSpaceOnUse">
<stop stop-color="#EF0896"/>
<stop offset="1" stop-color="#7007FF"/>
</linearGradient>
<linearGradient id="paint7_linear_383_3" x1="-4.38541" y1="13.7211" x2="15.1447" y2="22.199" gradientUnits="userSpaceOnUse">
<stop stop-color="#EF0896"/>
<stop offset="1" stop-color="#7007FF"/>
</linearGradient>
<linearGradient id="paint8_linear_383_3" x1="-0.611534" y1="24.8956" x2="17.7747" y2="41.6195" gradientUnits="userSpaceOnUse">
<stop stop-color="#EF0896"/>
<stop offset="1" stop-color="#7007FF"/>
</linearGradient>
<linearGradient id="paint9_linear_383_3" x1="22.5971" y1="1.3731" x2="42.1274" y2="9.85111" gradientUnits="userSpaceOnUse">
<stop stop-color="#EF0896"/>
<stop offset="1" stop-color="#7007FF"/>
</linearGradient>
<clipPath id="clip0_383_3">
<rect width="34.0461" height="34.0461" fill="white" transform="translate(0 3)"/>
</clipPath>
</defs>
</svg>
