<svg width="1564" height="1564" viewBox="0 0 1564 1564" fill="none" xmlns="http://www.w3.org/2000/svg">
<rect x="155.789" y="250.484" width="1304.35" height="1020.27" rx="167" fill="white"/>
<path fill-rule="evenodd" clip-rule="evenodd" d="M24.5349 765.974C25.4341 765.888 26.3446 765.839 27.2649 765.829L469.469 763.52C483.429 763.372 495.807 772.4 499.805 785.63L535.867 905.661L563.286 767.51L563.197 767.469L649.839 325.387C652.741 311.094 665.325 300.73 680.052 300.522C693.583 300.266 707.668 310.297 711 324.497L873.688 1021.71L1026.26 569.159C1030.57 556.32 1042.79 548.679 1056.6 548.014C1070.32 548.315 1082.23 557.411 1086.02 570.443L1142.09 764.569H1558.22L1193.31 128.815C1190.13 123.265 1184.24 119.824 1177.84 119.778L421.884 114.285C415.484 114.238 409.541 117.593 406.273 123.096L24.5349 765.974ZM1548.57 826.442H1118.5C1104.54 826.442 1092.26 817.285 1088.4 804.013L1053.64 683.608L897.886 1145.6C893.639 1158.27 881.634 1166.74 868.221 1166.74C867.971 1166.74 867.722 1166.74 867.471 1166.73C867.254 1166.73 867.034 1166.72 866.809 1166.72L866.727 1166.71C852.735 1166.05 840.878 1156.26 837.734 1142.77L682.711 478.406L681.38 484.459C681.086 486.72 679.61 496.869 674.332 518.712C672.756 525.232 671.296 531.1 669.997 536.215L625.734 737.471L568.152 1006.31C563.981 1019.19 548.169 1040.47 534.365 1041.28C520.644 1041.12 508.635 1032.15 504.702 1019.16L446.549 825.638L47.6402 827.602L396.521 1435.43C399.707 1440.98 405.6 1444.42 411.999 1444.47L1167.95 1449.96C1174.35 1450.01 1180.3 1446.65 1183.56 1441.15L1548.57 826.442Z" fill="url(#paint0_linear_377_362)"/>
<path fill-rule="evenodd" clip-rule="evenodd" d="M1564 782C1564 1213.89 1213.89 1564 782 1564C350.113 1564 0 1213.89 0 782C0 350.113 350.113 0 782 0C1213.89 0 1564 350.113 1564 782ZM1441.81 782C1441.81 1146.4 1146.4 1441.81 782 1441.81C417.596 1441.81 122.188 1146.4 122.188 782C122.188 417.596 417.596 122.188 782 122.188C1146.4 122.188 1441.81 417.596 1441.81 782Z" fill="#99009B"/>
<path d="M364.226 364.227C483.482 244.991 643.867 175.943 812.441 171.265C981.016 166.586 1144.98 226.633 1270.67 339.071C1262.56 330.03 1254.21 321.1 1245.5 312.398C1121.6 189.422 954.02 120.557 779.454 120.882C604.888 121.207 437.565 190.698 314.128 314.134C190.69 437.571 121.199 604.894 120.873 779.46C120.547 954.026 189.412 1121.61 312.387 1245.5C321.089 1254.21 330.006 1262.56 339.06 1270.68C226.621 1144.99 166.576 981.019 171.256 812.443C175.936 643.867 244.987 483.482 364.226 364.227Z" fill="#540271"/>
<path d="M909.742 134.651L1010.42 33.9688C1093.13 59.25 1171.05 98.1274 1240.99 149.006L1153.37 236.626C1079.91 186.471 997.025 151.776 909.742 134.651Z" fill="#710073"/>
<path d="M236.626 1153.37L149.022 1240.98C98.1435 1171.04 59.2661 1093.12 33.9849 1010.42L134.667 909.733C151.787 997.018 186.476 1079.91 236.626 1153.37Z" fill="#710073"/>
<path d="M263.603 263.601C119.978 407.259 37.9034 601.176 34.7598 804.291C31.6161 1007.41 107.65 1203.77 246.76 1351.8C240.829 1346.23 234.837 1340.76 229.043 1334.96C82.3895 1188.31 0.000227601 989.401 4.71562e-10 782.001C-0.0002276 574.602 82.3886 375.697 229.042 229.043C375.695 82.3895 574.6 0.000230692 781.999 4.84456e-10C989.399 -0.000230691 1188.3 82.3886 1334.96 229.042C1340.75 234.836 1346.23 240.828 1351.8 246.759C1203.77 107.649 1007.41 31.6161 804.291 34.7597C601.176 37.9034 407.26 119.977 263.603 263.601Z" fill="#710073"/>
<defs>
<linearGradient id="paint0_linear_377_362" x1="-81.2368" y1="1075.03" x2="1669.87" y2="1075.03" gradientUnits="userSpaceOnUse">
<stop stop-color="#EF0896"/>
<stop offset="0.544792" stop-color="#7007FF"/>
<stop offset="1" stop-color="#00C8FF"/>
</linearGradient>
</defs>
</svg>
