<svg width="29" height="29" viewBox="0 0 29 29" fill="none" xmlns="http://www.w3.org/2000/svg">
<rect width="29" height="29" rx="14.5" fill="url(#paint0_linear_2_1271)"/>
<path d="M24.0113 13.8279H28.1843C28.6347 13.8279 29 14.1369 29 14.518C29 14.899 28.6349 15.208 28.1844 15.208H23.3162L21.4295 15.2079H18.8593C18.6362 15.2079 18.4228 15.1305 18.2689 14.9939L17.2575 14.0958L16.0758 15.0236C15.925 15.142 15.7268 15.2079 15.5211 15.2079H13.7041L12.389 17.601C12.254 17.8466 11.9636 18 11.6499 18C11.6131 18 11.5762 17.9979 11.539 17.9936C11.1844 17.9527 10.9029 17.7209 10.8448 17.4222L9.96802 12.9201L9.31541 16.2483C9.26753 16.4928 9.06829 16.6967 8.7936 16.7826C8.51884 16.8686 8.2108 16.8232 7.98652 16.6638L5.93651 15.2078H4.64C4.44916 15.2078 4.26444 15.1512 4.11788 15.0479L3.49267 14.607L2.86745 15.0479C2.72081 15.1512 2.53609 15.2078 2.34533 15.2078H0.815567C0.365129 15.2078 0 14.8988 0 14.5178C0 14.1367 0.365129 13.8277 0.815567 13.8277H2.05009L2.97054 13.1788C3.27303 12.9655 3.71238 12.9656 4.01479 13.1788L4.93524 13.8277H6.23346C6.42528 13.8277 6.61099 13.8849 6.75787 13.9893L7.94036 14.8291L9.16632 8.57707C9.23165 8.24413 9.57239 8 9.97128 8C10.3704 8.00021 10.7107 8.24468 10.7756 8.57783L12.0246 14.991L12.4445 14.2269C12.5783 13.9835 12.8668 13.8278 13.184 13.8278H15.201L16.738 12.621C17.0652 12.3642 17.5755 12.3776 17.8833 12.6508L19.2088 13.8279H22.2733H24.0113Z" fill="white"/>
<defs>
<linearGradient id="paint0_linear_2_1271" x1="-2" y1="20.8597" x2="31.1111" y2="20.8597" gradientUnits="userSpaceOnUse">
<stop stop-color="#EF0896"/>
<stop offset="0.544792" stop-color="#7007FF"/>
<stop offset="1" stop-color="#00C8FF"/>
</linearGradient>
</defs>
</svg>
