<svg width="16" height="16" viewBox="0 0 16 16" fill="none" xmlns="http://www.w3.org/2000/svg">
<rect x="4.7998" y="3.19998" width="6.4" height="9.6" fill="#121213"/>
<path d="M7.99967 1.33337C4.31967 1.33337 1.33301 4.32004 1.33301 8.00004C1.33301 11.68 4.31967 14.6667 7.99967 14.6667C11.6797 14.6667 14.6663 11.68 14.6663 8.00004C14.6663 4.32004 11.6797 1.33337 7.99967 1.33337ZM8.66634 12.6667H7.33301V11.3334H8.66634V12.6667ZM10.0463 7.50004L9.44634 8.11337C8.96634 8.60004 8.66634 9.00004 8.66634 10H7.33301V9.66671C7.33301 8.93337 7.63301 8.26671 8.11301 7.78004L8.93967 6.94004C9.18634 6.70004 9.33301 6.36671 9.33301 6.00004C9.33301 5.26671 8.73301 4.66671 7.99967 4.66671C7.26634 4.66671 6.66634 5.26671 6.66634 6.00004H5.33301C5.33301 4.52671 6.52634 3.33337 7.99967 3.33337C9.47301 3.33337 10.6663 4.52671 10.6663 6.00004C10.6663 6.58671 10.4263 7.12004 10.0463 7.50004Z" fill="#DC9A00"/>
</svg>
