<svg width="28" height="28" viewBox="0 0 28 28" fill="none" xmlns="http://www.w3.org/2000/svg">
<path fill-rule="evenodd" clip-rule="evenodd" d="M8.31479 0L0.16572 7.91471L0 19.2735L7.91471 27.4226L19.2735 27.5883L27.4226 19.6736L27.5883 8.31479L19.6736 0.165721L8.31479 0ZM15.4897 6.06997C15.4897 5.06622 14.7777 4.25251 13.8995 4.25251C13.0212 4.25251 12.3092 5.06622 12.3092 6.06997V15.1573C12.3092 16.161 13.0212 16.9747 13.8995 16.9747C14.7777 16.9747 15.4897 16.161 15.4897 15.1573V6.06997ZM13.8995 23.3358C14.7778 23.3358 15.4898 22.6238 15.4898 21.7455C15.4898 20.8673 14.7778 20.1553 13.8995 20.1553C13.0212 20.1553 12.3092 20.8673 12.3092 21.7455C12.3092 22.6238 13.0212 23.3358 13.8995 23.3358Z" fill="#C4C4C4"/>
</svg>
