<svg width="128" height="92" viewBox="0 0 128 92" fill="none" xmlns="http://www.w3.org/2000/svg">
<g clip-path="url(#clip0_55_415)">
<path d="M74.3284 41.4979C74.152 49.6054 73.3424 57.7156 71.9046 65.8231C71.356 68.9162 68.9418 71.3305 65.8486 71.879C56.523 73.5343 47.2 74.3559 37.8744 74.3414C30.3614 74.3342 22.8458 73.7807 15.3302 72.6837C13.6677 72.4444 12.0073 72.1737 10.3448 71.879C7.25171 71.3305 4.83768 68.9162 4.28892 65.8231C1.00493 47.3217 1.00493 28.8206 4.28892 10.3217C4.83745 7.22853 7.25171 4.81426 10.3448 4.26574C12.0073 3.97098 13.6724 3.7003 15.3352 3.45868C32.1738 1.00581 49.01 1.27412 65.8486 4.26574C68.9418 4.81426 71.356 7.22853 71.9046 10.3217C73.7484 20.7129 74.5581 31.1041 74.3284 41.4979Z" fill="#C1C0BF"/>
<path d="M74.3283 41.4979C74.152 49.6054 73.3423 57.7156 71.9045 65.8231C71.356 68.9162 68.9417 71.3305 65.8486 71.879C56.523 73.5343 47.2 74.3559 37.8744 74.3414C30.3614 74.3342 22.8457 73.7807 15.3301 72.6837C13.9841 71.502 13.0417 69.8781 12.7131 68.0293C9.16791 48.0563 9.16791 28.0858 12.7131 8.11541C13.0417 6.26682 13.9867 4.64032 15.3351 3.45868C32.1737 1.00581 49.01 1.27412 65.8486 4.26574C68.9417 4.81426 71.356 7.22853 71.9045 10.3217C73.7483 20.7129 74.558 31.1041 74.3283 41.4979Z" fill="#DBDBDB"/>
<path d="M82.4539 9.00026C82.2776 17.1078 81.4679 25.2179 80.0301 33.3255C79.4816 36.4186 77.0674 38.8329 73.9742 39.3814C64.6486 41.0367 55.3256 41.8583 46 41.8438C46.1763 33.7363 46.9836 25.6261 48.4238 17.5162C48.9747 14.4231 51.3866 12.0088 54.4797 11.4603C63.8053 9.80493 73.1286 8.98334 82.4539 9.00026Z" fill="#C1C0BF"/>
<path d="M117.77 16.6229C99.2692 13.3379 80.7683 13.3379 62.2669 16.6229C59.1743 17.1719 56.76 19.5862 56.211 22.6788C52.9261 41.1799 52.9261 59.6808 56.211 78.1821C56.76 81.2748 59.1743 83.6891 62.2669 84.2381C80.768 87.523 99.2692 87.523 117.77 84.2381C120.863 83.6891 123.277 81.2748 123.826 78.1821C127.111 59.681 127.111 41.1802 123.826 22.6788C123.277 19.5859 120.863 17.1719 117.77 16.6229Z" fill="#C1C0BF"/>
<path d="M126.25 53.8566C126.074 61.9641 125.264 70.0742 123.826 78.1818C123.278 81.2749 120.863 83.6892 117.77 84.2377C108.445 85.893 99.1216 86.7146 89.796 86.7001C82.283 86.6929 74.7674 86.1394 67.2517 85.0424C65.9057 83.8607 64.9633 82.2368 64.6347 80.388C61.0895 60.415 61.0895 40.4444 64.6347 20.4741C64.9633 18.6255 65.9083 16.999 67.2567 15.8174C84.0954 13.3645 100.932 13.6328 117.77 16.6244C120.863 17.173 123.278 19.5872 123.826 22.6803C125.67 33.0718 126.48 43.463 126.25 53.8566Z" fill="#DBDBDB"/>
<path d="M46.676 38.071C46.676 42.8099 42.8361 46.6522 38.0972 46.6522C37.0096 46.6522 35.9705 46.4516 35.0159 46.082C31.7994 44.8446 29.5183 41.7251 29.5183 38.071C29.5183 34.4196 31.7996 31.2998 35.0159 30.0626C35.9705 29.6952 37.0096 29.4924 38.0972 29.4924C42.8361 29.4922 46.676 33.3344 46.676 38.071Z" fill="#423D3D"/>
<path d="M40.5135 38.0708C40.5135 41.7246 38.2322 44.8444 35.0159 46.0818C31.7994 44.8444 29.5183 41.7248 29.5183 38.0708C29.5183 34.4194 31.7996 31.2995 35.0159 30.0624C38.2322 31.2995 40.5135 34.4196 40.5135 38.0708Z" fill="#666666"/>
<path d="M49.2065 72.4993C39.0733 72.7028 20.7974 71.8946 10.6621 70.0948C8.33151 69.6812 6.48769 67.8374 6.07404 65.5067C2.84199 47.3023 2.84199 28.8417 6.07404 10.6372C6.48793 8.30637 8.33175 6.46279 10.6624 6.0489C28.8668 2.81709 47.3274 2.81685 65.5321 6.0489C69.2835 6.71491 69.5 7.50002 70.5 8.00002C71.764 8.63202 72.5 7.1586 71.6894 5.00365C71.5 4.50002 70 3.16066 66.1659 2.47992C47.5409 -0.826946 28.6538 -0.826946 10.029 2.47992C6.20723 3.15831 3.18392 6.18186 2.5053 10.0034C-0.80157 28.6282 -0.80157 47.5153 2.5053 66.1401C3.18392 69.9619 6.20724 72.9852 10.0288 73.6636C19.352 75.3189 36.7918 76.1548 46.1393 76.1548C47.1866 76.1548 48.2348 76.1443 49.2796 76.1234C50.2804 76.1033 51.0753 75.2756 51.0553 74.275C51.035 73.2745 50.2077 72.4862 49.2065 72.4993Z" fill="black"/>
<path d="M126.08 58.7215C127.074 58.7622 127.925 57.9859 127.966 56.9856C128.443 45.4973 127.65 33.8482 125.611 22.3619C124.932 18.5403 121.909 15.5168 118.087 14.8384C99.4619 11.5313 80.5745 11.5315 61.95 14.8384C58.1284 15.517 55.1049 18.5403 54.4263 22.3619C51.1196 40.9867 51.1196 59.8738 54.4263 78.4988C55.1049 82.3204 58.1284 85.3439 61.95 86.0223C71.2625 87.676 80.6403 88.5026 90.0181 88.5026C99.3964 88.5026 108.774 87.676 118.087 86.0225C121.908 85.3439 124.931 82.3206 125.61 78.499C126.505 73.4582 127.167 68.3473 127.577 63.3074C127.659 62.31 126.916 61.435 125.918 61.354C124.924 61.272 124.046 62.0155 123.964 63.0131C123.563 67.9396 122.916 72.9366 122.041 77.8654C121.627 80.1961 119.783 82.0399 117.453 82.4536C99.2491 85.6856 80.788 85.6856 62.5831 82.4536C60.2525 82.0397 58.4087 80.1958 57.995 77.8652C54.763 59.6608 54.763 41.2002 57.995 22.9955C58.4087 20.6648 60.2527 18.821 62.5833 18.4074C80.7873 15.1753 99.2486 15.1753 117.453 18.4074C119.784 18.8213 121.628 20.6651 122.041 22.9957C124.035 34.2238 124.81 45.6096 124.344 56.8357C124.303 57.8355 125.08 58.68 126.08 58.7215Z" fill="black"/>
<path d="M38.0967 27.6801C32.3666 27.6801 27.7048 32.3419 27.7048 38.0721C27.7048 39.0731 28.5164 39.8844 29.5172 39.8844C30.5182 39.8844 31.3296 39.0728 31.3296 38.0721C31.3296 34.3406 34.3653 31.3049 38.0967 31.3049C41.8282 31.3049 44.8639 34.3408 44.8639 38.0721C44.8639 41.8033 41.828 44.8393 38.0967 44.8393C36.1793 44.8393 34.3438 44.0205 33.0612 42.5927C32.3921 41.8479 31.2462 41.7871 30.5015 42.456C29.7569 43.1251 29.6959 44.271 30.3648 45.0156C32.3339 47.2071 35.1523 48.4642 38.097 48.4642C43.8272 48.4642 48.4889 43.8025 48.4889 38.0723C48.4891 32.3419 43.8272 27.6801 38.0967 27.6801Z" fill="black"/>
<path d="M68.2752 44.4104C68.2752 43.2638 68.5189 42.2174 69.0062 41.2714C69.4936 40.3254 70.1672 39.5084 71.0272 38.8204C71.8872 38.1324 72.9192 37.6021 74.1232 37.2294C75.3272 36.8568 76.6459 36.6704 78.0792 36.6704C79.5126 36.6704 80.8312 36.8424 82.0352 37.1864C83.2392 37.5304 84.2712 38.0178 85.1312 38.6484C85.9912 39.2791 86.6649 40.0531 87.1522 40.9704C87.6396 41.8878 87.8832 42.9198 87.8832 44.0664C87.8832 45.3278 87.6252 46.4314 87.1092 47.3774C86.5932 48.3234 85.8766 49.1118 84.9592 49.7424C86.0486 50.4878 86.9372 51.3764 87.6252 52.4084C88.3132 53.4118 88.6572 54.7734 88.6572 56.4934C88.6572 57.6401 88.4136 58.6864 87.9262 59.6324C87.4389 60.5784 86.7366 61.3954 85.8192 62.0834C84.9019 62.7714 83.7982 63.3018 82.5082 63.6744C81.2182 64.0471 79.7706 64.2334 78.1652 64.2334C76.5599 64.2334 75.1122 64.0471 73.8222 63.6744C72.5322 63.3018 71.4286 62.7714 70.5112 62.0834C69.6226 61.3954 68.9202 60.5784 68.4042 59.6324C67.9169 58.6864 67.6732 57.6401 67.6732 56.4934C67.6732 54.9454 68.0029 53.6554 68.6622 52.6234C69.3502 51.5914 70.1529 50.7888 71.0702 50.2154C70.2962 49.5848 69.6369 48.8394 69.0922 47.9794C68.5476 47.0908 68.2752 45.9011 68.2752 44.4104ZM75.0262 55.8484C75.0262 56.7371 75.3129 57.4394 75.8862 57.9554C76.4882 58.4714 77.2479 58.7294 78.1652 58.7294C79.0826 58.7294 79.8279 58.4714 80.4012 57.9554C81.0032 57.4108 81.3042 56.7084 81.3042 55.8484C81.3042 55.0171 81.0462 54.3291 80.5302 53.7844C80.0429 53.2111 79.3692 52.7668 78.5092 52.4514C77.2479 52.7381 76.3449 53.1824 75.8002 53.7844C75.2842 54.3578 75.0262 55.0458 75.0262 55.8484ZM80.7022 44.6684C80.7022 43.8944 80.4729 43.2781 80.0142 42.8194C79.5556 42.3608 78.9106 42.1314 78.0792 42.1314C77.2479 42.1314 76.6029 42.3608 76.1442 42.8194C75.6856 43.2781 75.4562 43.8801 75.4562 44.6254C75.4562 45.3708 75.6856 45.9728 76.1442 46.4314C76.6316 46.8901 77.1906 47.2628 77.8212 47.5494C78.8246 47.3201 79.5556 46.9474 80.0142 46.4314C80.4729 45.9154 80.7022 45.3278 80.7022 44.6684ZM110.956 40.5404C110.956 41.1424 110.812 41.7301 110.526 42.3034C110.268 42.8481 109.952 43.2638 109.58 43.5504C108.806 43.2064 107.989 42.9484 107.129 42.7764C106.297 42.5758 105.523 42.4754 104.807 42.4754C103.087 42.4754 101.754 42.9341 100.808 43.8514C99.8904 44.7401 99.2741 46.0301 98.9588 47.7214C99.5321 47.3201 100.292 46.9618 101.238 46.6464C102.184 46.3024 103.158 46.1304 104.162 46.1304C106.799 46.1304 108.892 46.8901 110.44 48.4094C112.016 49.9288 112.805 52.1074 112.805 54.9454C112.805 56.1781 112.59 57.3534 112.16 58.4714C111.73 59.5894 111.085 60.5784 110.225 61.4384C109.365 62.2698 108.29 62.9434 107 63.4594C105.738 63.9468 104.262 64.1904 102.571 64.1904C99.1881 64.1904 96.5221 63.0581 94.5728 60.7934C92.6521 58.5288 91.6918 55.3038 91.6918 51.1184C91.6918 48.7391 91.9784 46.6464 92.5518 44.8404C93.1538 43.0344 93.9851 41.5294 95.0458 40.3254C96.1351 39.1214 97.4251 38.2184 98.9158 37.6164C100.406 37.0144 102.055 36.7134 103.861 36.7134C106.154 36.7134 107.903 37.0288 109.107 37.6594C110.339 38.2901 110.956 39.2504 110.956 40.5404ZM102.528 51.7204C101.983 51.7204 101.395 51.8351 100.765 52.0644C100.163 52.2938 99.6754 52.6091 99.3028 53.0104V54.0854C99.3028 55.6334 99.6181 56.7371 100.249 57.3964C100.908 58.0558 101.696 58.3854 102.614 58.3854C103.56 58.3854 104.262 58.0701 104.721 57.4394C105.208 56.8088 105.452 55.9918 105.452 54.9884C105.452 53.9851 105.194 53.1968 104.678 52.6234C104.19 52.0214 103.474 51.7204 102.528 51.7204Z" fill="black"/>
</g>
<defs>
<clipPath id="clip0_55_415">
<rect width="128" height="92" fill="white"/>
</clipPath>
</defs>
</svg>
