<svg width="24" height="24" viewBox="0 0 24 24" fill="none" xmlns="http://www.w3.org/2000/svg">
<g clip-path="url(#clip0_142_28609)">
<path d="M20.4862 3.51473C18.2197 1.24823 15.2062 0 12.0009 0C8.79557 0 5.78217 1.24823 3.51566 3.51473C1.24916 5.78123 0.000976562 8.79469 0.000976562 12C0.000976562 15.2053 1.24916 18.2188 3.51566 20.4853C5.78217 22.7518 8.79562 24 12.0009 24C15.2062 24 18.2197 22.7518 20.4862 20.4853C22.7527 18.2188 24.0009 15.2053 24.0009 12C24.0009 8.79469 22.7527 5.78123 20.4862 3.51473ZM12.0009 22.5938C6.15951 22.5938 1.40723 17.8414 1.40723 12C1.40723 6.15858 6.15951 1.40625 12.0009 1.40625C17.8423 1.40625 22.5946 6.15858 22.5946 12C22.5946 17.8414 17.8423 22.5938 12.0009 22.5938Z" fill="white"/>
<path d="M7.48125 6.77814C5.84775 6.77814 4.5188 8.10714 4.5188 9.74068C4.5188 10.129 4.83361 10.4438 5.22192 10.4438C5.61024 10.4438 5.92505 10.129 5.92505 9.74068C5.92505 8.88254 6.62316 8.18439 7.48125 8.18439C8.33935 8.18439 9.03746 8.88254 9.03746 9.74068C9.03746 10.129 9.35227 10.4438 9.74058 10.4438C10.1289 10.4438 10.4437 10.129 10.4437 9.74068C10.4437 8.10714 9.11475 6.77814 7.48125 6.77814Z" fill="white"/>
<path d="M16.5187 6.77814C14.8852 6.77814 13.5563 8.10714 13.5563 9.74068C13.5563 10.129 13.8711 10.4438 14.2594 10.4438C14.6477 10.4438 14.9625 10.129 14.9625 9.74068C14.9625 8.88254 15.6606 8.18439 16.5187 8.18439C17.3768 8.18439 18.0749 8.88254 18.0749 9.74068C18.0749 10.129 18.3897 10.4438 18.7781 10.4438C19.1664 10.4438 19.4812 10.129 19.4812 9.74068C19.4812 8.10714 18.1522 6.77814 16.5187 6.77814Z" fill="white"/>
<path d="M5.33196 19.344C5.69609 19.4787 6.10061 19.2927 6.23535 18.9285C7.12679 16.5188 9.45249 14.925 12.0227 14.9625C14.5928 15 16.8711 16.6609 17.6919 19.0955C17.8159 19.4635 18.2149 19.6612 18.5828 19.5372C18.9508 19.4132 19.1485 19.0143 19.0244 18.6463C18.0136 15.648 15.2081 13.6025 12.0432 13.5564C8.87826 13.5102 6.0143 15.4731 4.91647 18.4406C4.78172 18.8048 4.9677 19.2093 5.33196 19.344Z" fill="white"/>
</g>
<defs>
<clipPath id="clip0_142_28609">
<rect width="24" height="24" fill="white"/>
</clipPath>
</defs>
</svg>
