<svg width="256" height="40" viewBox="0 0 256 40" fill="none" xmlns="http://www.w3.org/2000/svg">
<path d="M1.86311 37.844C1.30844 37.9133 0.944443 37.8093 0.771109 37.532C0.597776 37.22 0.51111 36.752 0.51111 36.128C0.51111 35.3653 0.528443 34.672 0.563109 34.048L0.61511 29.68L0.719109 23.544C0.92711 16.1947 1.03111 10.4573 1.03111 6.332C1.03111 5.084 1.01378 4.33867 0.979109 4.096C0.909776 3.33333 0.87511 2.88267 0.87511 2.744C0.87511 1.84266 1.06578 1.392 1.44711 1.392C1.62044 1.392 1.96711 1.40933 2.48711 1.444C3.04178 1.47867 3.80444 1.496 4.77511 1.496C5.05244 1.496 5.76311 1.47867 6.90711 1.444C8.05111 1.40933 9.24711 1.392 10.4951 1.392C12.3324 1.392 14.0831 1.444 15.7471 1.548C18.1391 1.68667 20.1151 2.65733 21.6751 4.46C23.2698 6.26266 24.0671 8.96666 24.0671 12.572C24.0671 14.9293 23.5644 16.8013 22.5591 18.188C21.5538 19.5747 20.3924 20.5453 19.0751 21.1C17.7578 21.62 16.5964 21.88 15.5911 21.88C14.6551 21.88 13.0778 21.984 10.8591 22.192C9.57644 22.3307 8.53644 22.4173 7.73911 22.452C7.66978 25.6413 7.63511 27.808 7.63511 28.952C7.63511 33.4587 7.68711 35.9027 7.79111 36.284C7.86044 36.6307 7.79111 36.9427 7.58311 37.22C7.40978 37.4627 7.16711 37.636 6.85511 37.74C6.57778 37.8093 6.31778 37.792 6.07511 37.688C5.97111 37.6533 5.67644 37.636 5.19111 37.636C4.15111 37.636 3.04178 37.7053 1.86311 37.844ZM14.1351 18.136C15.4178 18.136 16.6138 17.7547 17.7231 16.992C18.8324 16.2293 19.3871 14.86 19.3871 12.884C19.3871 10.7693 18.9538 9.17466 18.0871 8.1C17.2204 6.99066 15.9551 6.28 14.2911 5.968C11.6911 5.448 9.64578 5.24 8.15511 5.344C8.15511 6.31467 8.13778 7.04267 8.10311 7.528C8.03378 9.46933 7.94711 10.856 7.84311 11.688C7.70444 12.9013 7.66978 14.2707 7.73911 15.796L7.84311 17.824L10.2871 17.98C11.2231 18.084 12.5058 18.136 14.1351 18.136ZM46.5067 7.164C46.4721 7.51067 46.4894 8.96667 46.5587 11.532C46.7321 15.7613 46.8187 19.2453 46.8187 21.984V25.156C46.7494 29.628 45.6747 32.8693 43.5947 34.88C41.5494 36.856 39.0707 37.844 36.1587 37.844C33.9401 37.844 32.1547 37.116 30.8027 35.66C29.4507 34.1693 28.4974 32.5227 27.9427 30.72C27.7001 29.9227 27.5094 28.692 27.3707 27.028C27.2667 25.3293 27.2147 23.596 27.2147 21.828C27.2147 19.852 27.2667 18.5347 27.3707 17.876C27.4401 17.3907 27.4747 15.7787 27.4747 13.04C27.4747 8.672 27.4054 5.51733 27.2667 3.576C27.2321 3.368 27.2147 3.09066 27.2147 2.744C27.2147 1.66933 27.5441 1.27066 28.2027 1.548L28.7747 1.6C28.9134 1.6 29.0521 1.58266 29.1907 1.548C29.3641 1.51333 29.5374 1.496 29.7107 1.496C29.8494 1.496 29.9361 1.6 29.9707 1.808C29.9361 3.992 29.9014 7.12933 29.8667 11.22C29.8321 15.276 29.8147 19.2107 29.8147 23.024C29.8147 25.0347 30.0574 26.8373 30.5427 28.432C31.0627 30.0267 31.7734 31.2747 32.6747 32.176C33.5761 33.0773 34.5814 33.528 35.6907 33.528C37.2161 33.528 38.3081 33.0947 38.9667 32.228C39.6601 31.3267 40.0067 30.3907 40.0067 29.42L40.1107 26.248C40.2147 21.048 40.2667 18.1707 40.2667 17.616C40.2667 16.8187 40.3014 15.2413 40.3707 12.884C40.4747 10.908 40.5267 8.96667 40.5267 7.06C40.5267 5.36133 40.4574 4.16533 40.3187 3.472C40.2147 3.056 40.1627 2.72666 40.1627 2.484C40.1627 1.99867 40.2667 1.704 40.4747 1.6C40.7174 1.46133 40.9427 1.40933 41.1507 1.444C41.3934 1.444 41.5494 1.444 41.6187 1.444C41.9654 1.47867 42.3467 1.496 42.7627 1.496C43.2134 1.46133 43.6121 1.444 43.9587 1.444H45.3107C45.8654 1.444 46.1774 1.53067 46.2467 1.704C46.3507 1.84267 46.4201 2.172 46.4547 2.692C46.5241 3.45467 46.5587 4.39067 46.5587 5.5C46.5587 6.26267 46.5414 6.81733 46.5067 7.164ZM29.9707 2.068V1.808V2.068ZM54.3734 38.416C53.6107 38.416 53.2294 38.0693 53.2294 37.376V33.32L53.4374 15.9C53.4374 14.5827 53.3507 12.1907 53.1774 8.724L52.9694 2.328C52.9694 1.73867 53.1947 1.444 53.6454 1.444C53.8187 1.444 54.1134 1.496 54.5294 1.6C54.9454 1.704 55.2747 1.756 55.5174 1.756C56.488 1.89467 57.6494 1.964 59.0014 1.964C59.9374 1.964 60.8214 1.912 61.6534 1.808C62.1734 1.73867 62.5374 1.77333 62.7454 1.912C62.9534 2.05066 63.0574 2.276 63.0574 2.588C63.0574 2.83066 63.0227 3.09067 62.9534 3.368C62.9187 3.61067 62.9014 3.888 62.9014 4.2L62.7974 7.008C62.6587 9.85067 62.5894 11.9827 62.5894 13.404L62.6934 21.256C62.728 22.504 62.7454 23.7867 62.7454 25.104L62.6414 30.772L62.5894 31.812L62.6414 33.268L62.7454 35.088L70.1814 35.348L76.3694 35.4H76.4734C76.6814 35.4 76.8027 35.4347 76.8374 35.504C76.872 35.5733 76.872 35.6773 76.8374 35.816C76.8374 35.92 76.8374 36.0067 76.8374 36.076C76.8027 36.2147 76.8027 36.4747 76.8374 36.856C76.9067 37.2373 76.9414 37.584 76.9414 37.896C76.9414 38.1387 76.8547 38.2947 76.6814 38.364C76.508 38.4333 76.2827 38.4507 76.0054 38.416C75.7627 38.416 75.572 38.416 75.4334 38.416L72.6774 38.26C70.2507 38.052 68.5347 37.948 67.5294 37.948C66.42 37.948 63.612 38.052 59.1054 38.26L54.3734 38.416ZM90.7429 39.092C85.7509 39.092 82.5789 38.1387 81.2269 36.232C79.8749 34.2907 79.1642 33.2853 79.0949 33.216C78.9562 33.0427 78.8869 32.8693 78.8869 32.696C78.8869 32.592 79.0256 32.3667 79.3029 32.02C79.7536 31.396 80.4122 30.6507 81.2789 29.784C81.4176 29.6453 81.5562 29.576 81.6949 29.576C81.8682 29.576 82.0589 29.7147 82.2669 29.992C82.4749 30.2347 82.6482 30.4253 82.7869 30.564C84.8322 32.6093 87.1549 33.632 89.7549 33.632C91.0722 33.632 92.2162 33.3893 93.1869 32.904C94.1576 32.384 94.6429 31.4307 94.6429 30.044C94.6429 27.652 92.7536 25.104 88.9749 22.4C88.3509 21.984 87.7616 21.6373 87.2069 21.36C85.7509 20.5627 84.5029 19.7827 83.4629 19.02C82.4229 18.2573 81.5042 17.252 80.7069 16.004C79.9096 14.756 79.5109 13.3 79.5109 11.636C79.5109 9.556 80.1522 7.684 81.4349 6.02C82.7522 4.356 84.3122 3.056 86.1149 2.12C87.9522 1.184 89.5469 0.716 90.8989 0.716C94.1922 0.716 96.8962 1.37467 99.0109 2.692C101.16 3.97467 102.824 5.20533 104.003 6.384C104.142 6.52266 104.211 6.67866 104.211 6.852C104.211 6.956 104.159 7.09467 104.055 7.268C103.986 7.40667 103.934 7.51067 103.899 7.58C103.726 7.82267 103.431 8.256 103.015 8.88C102.634 9.46933 102.322 9.90266 102.079 10.18C101.975 10.3187 101.854 10.4747 101.715 10.648C101.611 10.7867 101.507 10.8907 101.403 10.96C101.334 11.0293 101.212 11.064 101.039 11.064C100.97 11.064 100.796 10.96 100.519 10.752C100.276 10.5093 100.034 10.3013 99.7909 10.128C98.4042 8.91467 97.0522 7.87467 95.7349 7.008C94.4176 6.14133 93.1522 5.708 91.9389 5.708C90.9682 5.708 90.1709 5.93333 89.5469 6.384C88.9229 6.8 88.6109 7.77067 88.6109 9.296C88.6109 10.7867 89.1656 11.948 90.2749 12.78C91.3842 13.612 92.8576 14.4093 94.6949 15.172C94.8682 15.2413 95.8736 15.6747 97.7109 16.472C99.5829 17.2693 101.23 18.7947 102.651 21.048C104.107 23.3013 104.835 25.988 104.835 29.108C104.835 32.436 103.587 34.932 101.091 36.596C98.5949 38.26 95.1456 39.092 90.7429 39.092ZM110.772 38.104C110.564 38.104 110.442 38.052 110.408 37.948C110.373 37.8093 110.356 37.5667 110.356 37.22C110.321 36.8387 110.304 36.1973 110.304 35.296C110.304 35.0187 110.286 34.724 110.252 34.412C110.217 34.0653 110.2 33.6147 110.2 33.06V25.936C110.2 25.2427 110.217 24.5667 110.252 23.908C110.321 23.2493 110.356 22.764 110.356 22.452C110.494 20.8573 110.564 19.332 110.564 17.876C110.564 16.0733 110.512 14.652 110.408 13.612C110.338 12.4333 110.304 11.3587 110.304 10.388C110.304 8.204 110.356 5.656 110.46 2.744C110.46 2.29333 110.546 1.99866 110.72 1.86C110.893 1.68666 111.136 1.6 111.448 1.6L112.228 1.652C112.54 1.652 113.042 1.68666 113.736 1.756C114.429 1.79066 115.278 1.808 116.284 1.808C117.428 1.808 118.78 1.72133 120.34 1.548C122.212 1.40933 123.46 1.34 124.084 1.34C125.505 1.34 126.805 1.392 127.984 1.496L129.856 1.548C130.306 1.548 130.601 1.652 130.74 1.86C130.878 2.068 130.948 2.44933 130.948 3.004C130.948 3.316 130.982 3.85333 131.052 4.616C131.121 5.51733 131.156 6.29733 131.156 6.956C131.156 7.64933 131.104 8.29067 131 8.88C130.965 9.4 130.722 9.66 130.272 9.66C130.133 9.66 129.942 9.62533 129.7 9.556C129.457 9.48666 129.266 9.43467 129.128 9.4C128.608 9.296 127.1 9.244 124.604 9.244L122.628 9.192C122.177 9.15733 121.518 9.14 120.652 9.14C120.028 9.14 119.56 9.15733 119.248 9.192C118.208 9.26133 117.289 9.296 116.492 9.296L113.736 9.244C113.458 9.244 113.302 9.31333 113.268 9.452C113.233 9.556 113.216 9.83333 113.216 10.284C113.216 10.908 113.198 11.4453 113.164 11.896C113.094 13.2827 113.06 14.4093 113.06 15.276V18.344C113.06 19.072 113.077 19.6267 113.112 20.008C113.389 20.0427 113.857 20.06 114.516 20.06C115.105 20.0947 116.318 20.112 118.156 20.112C118.918 20.112 120.028 20.0773 121.484 20.008C122.593 19.9387 123.321 19.904 123.668 19.904C124.153 19.904 124.638 19.9387 125.124 20.008C125.609 20.0427 125.973 20.06 126.216 20.06C126.666 20.06 126.892 20.268 126.892 20.684C126.892 20.8227 126.874 21.0307 126.84 21.308C126.805 21.5507 126.788 21.88 126.788 22.296L126.84 25.052C126.84 25.364 126.805 25.5893 126.736 25.728C126.666 25.832 126.545 25.884 126.372 25.884C126.268 25.884 126.112 25.8667 125.904 25.832C125.73 25.7627 125.574 25.728 125.436 25.728C125.124 25.728 124.534 25.7107 123.668 25.676C122.836 25.6413 121.692 25.624 120.236 25.624C118.676 25.624 117.324 25.6933 116.18 25.832C115.036 25.9707 114.342 26.04 114.1 26.04C113.718 26.04 113.493 26.0227 113.424 25.988C113.25 25.988 113.146 25.9707 113.112 25.936V31.136C113.354 31.136 113.545 31.1187 113.684 31.084L115.14 31.032L121.276 30.98C122.524 30.98 123.512 30.9973 124.24 31.032L127.828 31.084L130.012 31.032C130.428 31.032 130.705 31.136 130.844 31.344C130.982 31.5173 131.052 31.7773 131.052 32.124L131 33.164L130.948 36.804C130.948 37.3587 130.826 37.7053 130.584 37.844C130.341 37.948 129.994 38 129.544 38C129.093 37.9653 128.729 37.948 128.452 37.948C126.961 37.948 125.678 37.9307 124.604 37.896L119.3 37.844C118.884 37.844 116.804 37.896 113.06 38L111.084 38.052L110.772 38.104ZM151.823 38.832C151.372 38.832 151.06 38.7453 150.887 38.572C150.748 38.3987 150.679 38.104 150.679 37.688L150.731 36.492L150.627 33.476C150.419 29.8707 150.315 26.7333 150.315 24.064C150.315 22.6773 150.367 21.724 150.471 21.204C150.644 20.3373 150.731 17.8933 150.731 13.872C150.731 9.67733 150.661 6.50533 150.523 4.356C150.488 4.07867 150.471 3.69733 150.471 3.212C150.471 2.65733 150.523 2.25866 150.627 2.016C150.731 1.77333 150.835 1.652 150.939 1.652C151.077 1.61733 151.303 1.6 151.615 1.6L152.759 1.496C155.151 1.21866 157.057 1.08 158.479 1.08C162.361 1.08 165.273 2.08533 167.215 4.096C169.191 6.072 170.179 8.65467 170.179 11.844C170.179 14.3747 169.364 16.8013 167.735 19.124C167.041 20.1293 166.244 21.0307 165.343 21.828L168.983 28.432C171.652 33.216 173.212 35.92 173.663 36.544C174.148 37.3067 174.391 37.8093 174.391 38.052C174.391 38.1907 174.304 38.2773 174.131 38.312C173.957 38.3467 173.801 38.364 173.663 38.364C173.559 38.364 173.472 38.364 173.403 38.364L167.527 38.52C167.249 38.52 167.024 38.3987 166.851 38.156C166.712 37.9133 166.504 37.48 166.227 36.856C166.053 36.336 165.741 35.6427 165.291 34.776C164.597 33.528 163.401 31.188 161.703 27.756L159.051 22.608L159.207 25.364L159.467 29.316C159.675 33.9613 159.848 36.5267 159.987 37.012C160.021 37.1507 160.039 37.324 160.039 37.532C160.039 38.156 159.709 38.468 159.051 38.468C158.843 38.468 158.669 38.4507 158.531 38.416C157.976 38.3467 156.624 38.416 154.475 38.624C153.019 38.7627 152.135 38.832 151.823 38.832ZM158.739 15.692C159.259 15.692 159.727 15.588 160.143 15.38C161.113 14.9293 161.599 14.0107 161.599 12.624C161.599 11.6187 161.443 10.8733 161.131 10.388C160.819 9.90267 160.42 9.66 159.935 9.66C159.553 9.66 159.224 9.79867 158.947 10.076C158.912 10.1107 158.912 10.3533 158.947 10.804C158.981 11.2547 158.999 11.7053 158.999 12.156C158.999 12.5373 158.981 12.8147 158.947 12.988C158.808 13.5773 158.739 14.184 158.739 14.808L158.687 15.276L158.739 15.692ZM187.449 39.144C182.491 39.144 179.198 37.064 177.569 32.904C175.939 28.7093 175.125 24.22 175.125 19.436C175.125 14.8253 175.749 11.1333 176.997 8.36C178.279 5.58666 179.822 3.64533 181.625 2.536C183.462 1.42666 185.282 0.871998 187.085 0.871998C190.551 0.871998 193.151 1.87733 194.885 3.888C196.618 5.864 197.727 8.22133 198.213 10.96C198.698 13.664 198.941 16.732 198.941 20.164C198.941 22.9373 198.525 25.7973 197.693 28.744C196.861 31.656 195.578 34.1173 193.845 36.128C192.111 38.1387 189.979 39.144 187.449 39.144ZM187.033 25.936C187.969 25.936 188.662 25.416 189.113 24.376C189.563 23.336 189.789 22.088 189.789 20.632C189.789 19.2453 189.563 18.032 189.113 16.992C188.697 15.952 188.125 15.432 187.397 15.432C186.53 15.432 185.871 16.0387 185.421 17.252C185.005 18.4307 184.797 19.7133 184.797 21.1C184.797 22.5213 184.935 23.6827 185.213 24.584C185.49 25.4853 186.097 25.936 187.033 25.936ZM205.854 38.416C205.091 38.416 204.71 38.0693 204.71 37.376V33.32L204.918 15.9C204.918 14.5827 204.831 12.1907 204.658 8.724L204.45 2.328C204.45 1.73867 204.675 1.444 205.126 1.444C205.299 1.444 205.594 1.496 206.01 1.6C206.426 1.704 206.755 1.756 206.998 1.756C207.968 1.89467 209.13 1.964 210.482 1.964C211.418 1.964 212.302 1.912 213.134 1.808C213.654 1.73867 214.018 1.77333 214.226 1.912C214.434 2.05066 214.538 2.276 214.538 2.588C214.538 2.83066 214.503 3.09067 214.434 3.368C214.399 3.61067 214.382 3.888 214.382 4.2L214.278 7.008C214.139 9.85067 214.07 11.9827 214.07 13.404L214.174 21.256C214.208 22.504 214.226 23.7867 214.226 25.104L214.122 30.772L214.07 31.812L214.122 33.268L214.226 35.088L221.662 35.348L227.85 35.4H227.954C228.162 35.4 228.283 35.4347 228.318 35.504C228.352 35.5733 228.352 35.6773 228.318 35.816C228.318 35.92 228.318 36.0067 228.318 36.076C228.283 36.2147 228.283 36.4747 228.318 36.856C228.387 37.2373 228.422 37.584 228.422 37.896C228.422 38.1387 228.335 38.2947 228.162 38.364C227.988 38.4333 227.763 38.4507 227.486 38.416C227.243 38.416 227.052 38.416 226.914 38.416L224.158 38.26C221.731 38.052 220.015 37.948 219.01 37.948C217.9 37.948 215.092 38.052 210.586 38.26L205.854 38.416ZM233.123 38.416C232.361 38.416 231.979 38.0693 231.979 37.376V33.32L232.187 15.9C232.187 14.5827 232.101 12.1907 231.927 8.724L231.719 2.328C231.719 1.73867 231.945 1.444 232.395 1.444C232.569 1.444 232.863 1.496 233.279 1.6C233.695 1.704 234.025 1.756 234.267 1.756C235.238 1.89467 236.399 1.964 237.751 1.964C238.687 1.964 239.571 1.912 240.403 1.808C240.923 1.73867 241.287 1.77333 241.495 1.912C241.703 2.05066 241.807 2.276 241.807 2.588C241.807 2.83066 241.773 3.09067 241.703 3.368C241.669 3.61067 241.651 3.888 241.651 4.2L241.547 7.008C241.409 9.85067 241.339 11.9827 241.339 13.404L241.443 21.256C241.478 22.504 241.495 23.7867 241.495 25.104L241.391 30.772L241.339 31.812L241.391 33.268L241.495 35.088L248.931 35.348L255.119 35.4H255.223C255.431 35.4 255.553 35.4347 255.587 35.504C255.622 35.5733 255.622 35.6773 255.587 35.816C255.587 35.92 255.587 36.0067 255.587 36.076C255.553 36.2147 255.553 36.4747 255.587 36.856C255.657 37.2373 255.691 37.584 255.691 37.896C255.691 38.1387 255.605 38.2947 255.431 38.364C255.258 38.4333 255.033 38.4507 254.755 38.416C254.513 38.416 254.322 38.416 254.183 38.416L251.427 38.26C249.001 38.052 247.285 37.948 246.279 37.948C245.17 37.948 242.362 38.052 237.855 38.26L233.123 38.416Z" fill="url(#paint0_linear_1298:9414)"/>
<defs>
<linearGradient id="paint0_linear_1298:9414" x1="364.443" y1="32.5965" x2="-66.1707" y2="32.5965" gradientUnits="userSpaceOnUse">
<stop stop-color="#EF0896"/>
<stop offset="0.544792" stop-color="#7007FF"/>
<stop offset="1" stop-color="#00C8FF"/>
</linearGradient>
</defs>
</svg>
