<svg width="135" height="41" viewBox="0 0 135 41" fill="none" xmlns="http://www.w3.org/2000/svg">
<mask id="path-1-inside-1_142_26374" fill="white">
<path fill-rule="evenodd" clip-rule="evenodd" d="M17.4057 0C7.79278 0 0 7.79278 0 17.4057C0 27.0185 7.79278 34.8113 17.4057 34.8113H64.539L69.9407 41L75.3423 34.8113H117.594C127.207 34.8113 135 27.0185 135 17.4057C135 7.79278 127.207 0 117.594 0H17.4057Z"/>
</mask>
<path fill-rule="evenodd" clip-rule="evenodd" d="M17.4057 0C7.79278 0 0 7.79278 0 17.4057C0 27.0185 7.79278 34.8113 17.4057 34.8113H64.539L69.9407 41L75.3423 34.8113H117.594C127.207 34.8113 135 27.0185 135 17.4057C135 7.79278 127.207 0 117.594 0H17.4057Z" fill="#1D092E"/>
<path d="M64.539 34.8113L65.2924 34.1537L64.9935 33.8113H64.539V34.8113ZM69.9407 41L69.1873 41.6576L69.9407 42.5207L70.6941 41.6576L69.9407 41ZM75.3423 34.8113V33.8113H74.8878L74.5889 34.1537L75.3423 34.8113ZM1 17.4057C1 8.34506 8.34507 1 17.4057 1V-1C7.2405 -1 -1 7.24049 -1 17.4057H1ZM17.4057 33.8113C8.34506 33.8113 1 26.4663 1 17.4057H-1C-1 27.5708 7.24049 35.8113 17.4057 35.8113V33.8113ZM64.539 33.8113H17.4057V35.8113H64.539V33.8113ZM70.6941 40.3424L65.2924 34.1537L63.7856 35.4689L69.1873 41.6576L70.6941 40.3424ZM74.5889 34.1537L69.1873 40.3424L70.6941 41.6576L76.0957 35.4689L74.5889 34.1537ZM117.594 33.8113H75.3423V35.8113H117.594V33.8113ZM134 17.4057C134 26.4663 126.655 33.8113 117.594 33.8113V35.8113C127.76 35.8113 136 27.5708 136 17.4057H134ZM117.594 1C126.655 1 134 8.34506 134 17.4057H136C136 7.24049 127.76 -1 117.594 -1V1ZM17.4057 1H117.594V-1H17.4057V1Z" fill="url(#paint0_linear_142_26374)" mask="url(#path-1-inside-1_142_26374)"/>
<defs>
<linearGradient id="paint0_linear_142_26374" x1="-9.31035" y1="29.4912" x2="144.828" y2="29.4912" gradientUnits="userSpaceOnUse">
<stop stop-color="#EF0896"/>
<stop offset="0.544792" stop-color="#7007FF"/>
<stop offset="1" stop-color="#00C8FF"/>
</linearGradient>
</defs>
</svg>
