<svg width="30" height="30" viewBox="0 0 30 30" fill="none" xmlns="http://www.w3.org/2000/svg">
<g clip-path="url(#clip0_1634_66)">
<path d="M26.8421 24.6038C26.6965 24.6038 26.5487 24.5675 26.4127 24.4912C25.9894 24.2535 25.8389 23.7178 26.0765 23.2945C27.4933 20.7708 28.2422 17.9024 28.2422 14.9995C28.2422 12.0969 27.4935 9.22882 26.0769 6.70527C25.8393 6.28199 25.9899 5.7462 26.4132 5.50866C26.8364 5.271 27.3722 5.42164 27.6098 5.84487C29.1734 8.63063 30 11.7963 30 14.9996C30 18.2032 29.1734 21.3691 27.6094 24.1551C27.448 24.4422 27.1496 24.6038 26.8421 24.6038Z" fill="url(#paint0_linear_1634_66)"/>
<path d="M23.666 22.1004C23.5333 22.1004 23.3986 22.0702 23.272 22.0065C22.8383 21.7886 22.6634 21.2602 22.8814 20.8265C23.7965 19.006 24.2605 17.0455 24.2605 14.9994C24.2605 12.9536 23.7966 10.9933 22.8818 9.17305C22.6638 8.73934 22.8387 8.21105 23.2724 7.99308C23.706 7.77499 24.2344 7.94995 24.4524 8.38373C25.4915 10.4512 26.0183 12.677 26.0183 14.9995C26.0183 17.3223 25.4914 19.5484 24.452 21.6161C24.2976 21.9231 23.9877 22.1004 23.666 22.1004Z" fill="url(#paint1_linear_1634_66)"/>
<path d="M20.4492 19.5649C20.3404 19.5649 20.2298 19.5445 20.1226 19.5016C19.672 19.321 19.4531 18.8094 19.6336 18.3588C20.0617 17.2903 20.2787 16.1601 20.2787 14.9994C20.2787 13.8391 20.0617 12.7091 19.6339 11.6408C19.4535 11.1902 19.6725 10.6785 20.1231 10.4981C20.5737 10.3176 21.0853 10.5367 21.2657 10.9873C21.7772 12.2644 22.0365 13.6143 22.0365 14.9995C22.0365 16.385 21.7771 17.7352 21.2654 19.0125C21.1277 19.356 20.7978 19.5649 20.4492 19.5649Z" fill="url(#paint2_linear_1634_66)"/>
<path d="M7.81409 9.56653H2.63675C1.18285 9.56653 0 10.7494 0 12.2033V17.7967C0 19.2506 1.18285 20.4335 2.63675 20.4335H7.63649L7.81409 9.56653Z" fill="url(#paint3_linear_1634_66)"/>
<path d="M17.3424 3.50743C17.0378 3.36112 16.6763 3.40243 16.4125 3.61366L9.58 9.08509L9.38916 20.7621L16.4125 26.3864C16.5714 26.5137 16.7659 26.5793 16.962 26.5793C17.0913 26.5793 17.2214 26.5508 17.3424 26.4927C17.6471 26.3464 17.8408 26.0384 17.8408 25.7004V4.29968C17.8408 3.96171 17.6471 3.65374 17.3424 3.50743Z" fill="url(#paint4_linear_1634_66)"/>
</g>
<defs>
<linearGradient id="paint0_linear_1634_66" x1="25.6855" y1="19.2121" x2="30.2938" y2="19.2121" gradientUnits="userSpaceOnUse">
<stop stop-color="#EF0896"/>
<stop offset="0.544792" stop-color="#7007FF"/>
<stop offset="1" stop-color="#00C8FF"/>
</linearGradient>
<linearGradient id="paint1_linear_1634_66" x1="22.5648" y1="18.1141" x2="26.2535" y2="18.1141" gradientUnits="userSpaceOnUse">
<stop stop-color="#EF0896"/>
<stop offset="0.544792" stop-color="#7007FF"/>
<stop offset="1" stop-color="#00C8FF"/>
</linearGradient>
<linearGradient id="paint2_linear_1634_66" x1="19.4002" y1="17.0021" x2="22.2161" y2="17.0021" gradientUnits="userSpaceOnUse">
<stop stop-color="#EF0896"/>
<stop offset="0.544792" stop-color="#7007FF"/>
<stop offset="1" stop-color="#00C8FF"/>
</linearGradient>
<linearGradient id="paint3_linear_1634_66" x1="-0.538903" y1="17.3831" x2="8.38294" y2="17.3831" gradientUnits="userSpaceOnUse">
<stop stop-color="#EF0896"/>
<stop offset="0.544792" stop-color="#7007FF"/>
<stop offset="1" stop-color="#00C8FF"/>
</linearGradient>
<linearGradient id="paint4_linear_1634_66" x1="8.80629" y1="20.0787" x2="18.456" y2="20.0787" gradientUnits="userSpaceOnUse">
<stop stop-color="#EF0896"/>
<stop offset="0.544792" stop-color="#7007FF"/>
<stop offset="1" stop-color="#00C8FF"/>
</linearGradient>
<clipPath id="clip0_1634_66">
<rect width="30" height="30" fill="white"/>
</clipPath>
</defs>
</svg>
