<svg width="32" height="24" viewBox="0 0 32 24" fill="none" xmlns="http://www.w3.org/2000/svg">
<path d="M7.81409 6.56653H2.63675C1.18285 6.56653 0 7.74937 0 9.20328V14.7967C0 16.2506 1.18285 17.4335 2.63675 17.4335H7.63649L7.81409 6.56653Z" fill="url(#paint0_linear_1634_82)"/>
<path d="M17.3424 0.507428C17.0378 0.361117 16.6763 0.402426 16.4125 0.613659L9.58 6.08509L9.38916 17.7621L16.4125 23.3864C16.5714 23.5137 16.7659 23.5793 16.962 23.5793C17.0913 23.5793 17.2214 23.5508 17.3424 23.4927C17.6471 23.3464 17.8408 23.0384 17.8408 22.7004V1.29968C17.8408 0.96171 17.6471 0.653738 17.3424 0.507428Z" fill="url(#paint1_linear_1634_82)"/>
<path fill-rule="evenodd" clip-rule="evenodd" d="M20.5493 17.3491C20.983 17.7828 21.686 17.7828 22.1197 17.3491L25.8211 13.6477L29.5225 17.3492C29.9561 17.7828 30.6592 17.7828 31.0928 17.3492C31.5265 16.9155 31.5265 16.2125 31.0928 15.7788L27.3914 12.0774L31.0925 8.37633C31.5261 7.9427 31.5261 7.23964 31.0925 6.806C30.6588 6.37237 29.9558 6.37237 29.5222 6.806L25.8211 10.5071L22.12 6.80602C21.6864 6.37239 20.9833 6.37239 20.5497 6.80602C20.1161 7.23966 20.1161 7.94272 20.5497 8.37636L24.2507 12.0774L20.5493 15.7788C20.1157 16.2124 20.1157 16.9155 20.5493 17.3491Z" fill="url(#paint2_linear_1634_82)"/>
<defs>
<linearGradient id="paint0_linear_1634_82" x1="-0.538903" y1="14.3831" x2="8.38294" y2="14.3831" gradientUnits="userSpaceOnUse">
<stop stop-color="#EF0896"/>
<stop offset="0.544792" stop-color="#7007FF"/>
<stop offset="1" stop-color="#00C8FF"/>
</linearGradient>
<linearGradient id="paint1_linear_1634_82" x1="8.80629" y1="17.0787" x2="18.456" y2="17.0787" gradientUnits="userSpaceOnUse">
<stop stop-color="#EF0896"/>
<stop offset="0.544792" stop-color="#7007FF"/>
<stop offset="1" stop-color="#00C8FF"/>
</linearGradient>
<linearGradient id="paint2_linear_1634_82" x1="19.4521" y1="14.5323" x2="32.2329" y2="14.5323" gradientUnits="userSpaceOnUse">
<stop stop-color="#EF0896"/>
<stop offset="0.544792" stop-color="#7007FF"/>
<stop offset="1" stop-color="#00C8FF"/>
</linearGradient>
</defs>
</svg>
