<svg width="77" height="77" viewBox="0 0 77 77" fill="none" xmlns="http://www.w3.org/2000/svg">
<path d="M75.0801 46.7215C76.0739 46.7622 76.9246 45.9859 76.9661 44.9856C77.4426 33.4973 76.6498 21.8482 74.6106 10.3619C73.9318 6.54033 70.9087 3.51678 67.0871 2.83839C48.4619 -0.468711 29.5745 -0.468473 10.95 2.83839C7.12844 3.51702 4.10489 6.54033 3.42626 10.3619C0.119632 28.9867 0.119632 47.8738 3.42626 66.4988C4.10489 70.3203 7.12844 73.3439 10.95 74.0223C20.2625 75.676 29.6403 76.5026 39.0181 76.5026C48.3964 76.5026 57.7744 75.676 67.0867 74.0225C70.908 73.3439 73.9313 70.3206 74.6102 66.499C75.5049 61.4582 76.1666 56.3473 76.5774 51.3074C76.6587 50.31 75.9157 49.435 74.918 49.354C73.9244 49.272 73.0456 50.0155 72.9644 51.0131C72.5631 55.9396 71.9162 60.9366 71.0409 65.8654C70.6273 68.1961 68.7835 70.0399 66.4528 70.4536C48.2491 73.6856 29.788 73.6856 11.5831 70.4536C9.25248 70.0397 7.40866 68.1958 6.995 65.8652C3.76295 47.6608 3.76295 29.2002 6.995 10.9955C7.40866 8.66485 9.25271 6.82102 11.5833 6.40737C29.7873 3.17532 48.2486 3.17532 66.4531 6.40737C68.7839 6.82126 70.6275 8.66508 71.0412 10.9957C73.0349 22.2238 73.8095 33.6096 73.3442 44.8357C73.3029 45.8355 74.0802 46.68 75.0801 46.7215Z" fill="black"/>
</svg>
