<svg width="22" height="20" viewBox="0 0 22 20" fill="none" xmlns="http://www.w3.org/2000/svg">
<path d="M9.44435 1.22031L0.711065 16.3457C0.553311 16.6188 0.470244 16.9287 0.470215 17.2441C0.470186 17.5596 0.553196 17.8694 0.710899 18.1426C0.868602 18.4158 1.09544 18.6426 1.36861 18.8003C1.64178 18.958 1.95166 19.041 2.26708 19.041H19.7322C20.0477 19.041 20.3575 18.958 20.6307 18.8003C20.9039 18.6426 21.1307 18.4158 21.2884 18.1426C21.4461 17.8694 21.5291 17.5596 21.5291 17.2441C21.5291 16.9287 21.446 16.6188 21.2883 16.3457L12.5559 1.22031C12.3982 0.947222 12.1715 0.720447 11.8984 0.562779C11.6253 0.405111 11.3155 0.322105 11.0001 0.322105C10.6848 0.322105 10.375 0.405111 10.1019 0.562779C9.82881 0.720447 9.60203 0.947222 9.44435 1.22031Z" fill="#FFB400"/>
<path d="M11.114 5.88531H10.8862C10.3253 5.88531 9.87061 6.33999 9.87061 6.90086V11.755C9.87061 12.3159 10.3253 12.7705 10.8862 12.7705H11.114C11.6748 12.7705 12.1295 12.3159 12.1295 11.755V6.90086C12.1295 6.33999 11.6748 5.88531 11.114 5.88531Z" fill="#FCF4D9"/>
<path d="M11.0001 16.6204C11.6238 16.6204 12.1295 16.1147 12.1295 15.4909C12.1295 14.8672 11.6238 14.3615 11.0001 14.3615C10.3763 14.3615 9.87061 14.8672 9.87061 15.4909C9.87061 16.1147 10.3763 16.6204 11.0001 16.6204Z" fill="#FCF4D9"/>
</svg>
