<svg width="11" height="12" viewBox="0 0 11 12" fill="none" xmlns="http://www.w3.org/2000/svg">
<path d="M5.71409 0.285014C5.61899 0.193973 5.50684 0.122608 5.38409 0.0750135C5.14063 -0.0250045 4.86755 -0.0250045 4.62409 0.0750135C4.50134 0.122608 4.3892 0.193973 4.29409 0.285014L0.294092 4.28501C0.200853 4.37825 0.126893 4.48894 0.0764322 4.61076C0.0259719 4.73259 1.96486e-09 4.86315 0 4.99501C-1.96485e-09 5.12687 0.0259719 5.25744 0.0764322 5.37926C0.126893 5.50109 0.200853 5.61178 0.294092 5.70501C0.38733 5.79825 0.498021 5.87221 0.619843 5.92267C0.741665 5.97313 0.872233 5.9991 1.00409 5.9991C1.13595 5.9991 1.26652 5.97313 1.38834 5.92267C1.51016 5.87221 1.62085 5.79825 1.71409 5.70501L4.00409 3.40501V10.995C4.00409 11.2602 4.10945 11.5146 4.29699 11.7021C4.48452 11.8897 4.73888 11.995 5.00409 11.995C5.26931 11.995 5.52366 11.8897 5.7112 11.7021C5.89873 11.5146 6.00409 11.2602 6.00409 10.995V3.40501L8.29409 5.70501C8.38706 5.79874 8.49765 5.87314 8.61951 5.9239C8.74137 5.97467 8.87208 6.00081 9.00409 6.00081C9.1361 6.00081 9.26681 5.97467 9.38867 5.9239C9.51053 5.87314 9.62113 5.79874 9.71409 5.70501C9.80782 5.61205 9.88221 5.50145 9.93298 5.37959C9.98375 5.25773 10.0099 5.12703 10.0099 4.99501C10.0099 4.863 9.98375 4.7323 9.93298 4.61044C9.88221 4.48858 9.80782 4.37798 9.71409 4.28501L5.71409 0.285014Z" fill="#27AE60"/>
</svg>
